<?xml version="1.0" encoding="UTF-8"?>
<!-- Generator: Adobe Illustrator 16.0.3, SVG Export Plug-In . SVG Version: 6.00 Build 0) -->
<svg xmlns="http://www.w3.org/2000/svg" xmlns:xlink="http://www.w3.org/1999/xlink" id="Layer_1" x="0px" y="0px" width="1000px" height="800px" viewBox="0 0 1000 800" xml:space="preserve"> <g> <defs> <rect id="SVGID_1_" width="1000" height="800"/> </defs> <clipPath id="SVGID_2_"> <use xlink:href="#SVGID_1_" overflow="visible"/> </clipPath> <radialGradient id="SVGID_3_" cx="355.042" cy="390.0234" r="706.7814" gradientUnits="userSpaceOnUse"> <stop offset="0" style="stop-color:#F1F2F2"/> <stop offset="0.1376" style="stop-color:#E8E9E9"/> <stop offset="0.361" style="stop-color:#D0D1D2"/> <stop offset="0.6425" style="stop-color:#A9AAAB"/> <stop offset="0.9682" style="stop-color:#737477"/> <stop offset="1" style="stop-color:#6D6E71"/> </radialGradient> <rect clip-path="url(#SVGID_2_)" fill="url(#SVGID_3_)" width="1000" height="800"/> <rect clip-path="url(#SVGID_2_)" fill="none" width="1000" height="800"/> <g clip-path="url(#SVGID_2_)"> <radialGradient id="SVGID_4_" cx="10834.5449" cy="-2607.9946" r="692.1618" gradientTransform="matrix(0.474 -0.8805 0.8805 0.474 -2353.3477 10897.0205)" gradientUnits="userSpaceOnUse"> <stop offset="0" style="stop-color:#F1F2F2"/> <stop offset="0.1376" style="stop-color:#E8E9E9"/> <stop offset="0.361" style="stop-color:#D0D1D2"/> <stop offset="0.6425" style="stop-color:#A9AAAB"/> <stop offset="0.9682" style="stop-color:#737477"/> <stop offset="1" style="stop-color:#6D6E71"/> </radialGradient> <polyline opacity="0.7" fill="url(#SVGID_4_)" points="479.816,481.071 246.709,-381.129 1038.67,-153.297 401.107,23.521 166.482,161.418 834.241,255.182 969.271,217.947 666.037,-442.012 "/> <radialGradient id="SVGID_5_" cx="10246.1895" cy="-2451.8364" r="692.1632" gradientTransform="matrix(0.474 -0.8805 0.8805 0.474 -2353.3477 10897.0205)" gradientUnits="userSpaceOnUse"> <stop offset="0" style="stop-color:#F1F2F2"/> <stop offset="0.1376" style="stop-color:#E8E9E9"/> <stop offset="0.361" style="stop-color:#D0D1D2"/> <stop offset="0.6425" style="stop-color:#A9AAAB"/> <stop offset="0.9682" style="stop-color:#737477"/> <stop offset="1" style="stop-color:#6D6E71"/> </radialGradient> <polyline opacity="0.7" fill="url(#SVGID_5_)" points="338.436,1073.141 105.324,210.939 897.293,438.765 259.725,615.582 25.102,753.479 692.854,847.25 827.886,810.017 524.654,150.053 "/> <radialGradient id="SVGID_6_" cx="-1413.1172" cy="3309.5742" r="692.139" gradientTransform="matrix(0.9134 0.4071 -0.4071 0.9134 3428.0432 -2625.457)" gradientUnits="userSpaceOnUse"> <stop offset="0" style="stop-color:#F1F2F2"/> <stop offset="0.1376" style="stop-color:#E8E9E9"/> <stop offset="0.361" style="stop-color:#D0D1D2"/> <stop offset="0.6425" style="stop-color:#A9AAAB"/> <stop offset="0.9682" style="stop-color:#737477"/> <stop offset="1" style="stop-color:#6D6E71"/> </radialGradient> <polyline opacity="0.7" fill="url(#SVGID_6_)" points="430.471,-157.024 1272.922,-453.682 1104.691,353.045 880.895,-269.584 725.91,-493.296 682.121,179.595 729.307,311.475 1364.859,-40.055 "/> <radialGradient id="SVGID_7_" cx="-1499.73" cy="4135.4697" r="692.1405" gradientTransform="matrix(0.9134 0.4071 -0.4071 0.9134 3428.0432 -2625.457)" gradientUnits="userSpaceOnUse"> <stop offset="0" style="stop-color:#F1F2F2"/> <stop offset="0.1376" style="stop-color:#E8E9E9"/> <stop offset="0.361" style="stop-color:#D0D1D2"/> <stop offset="0.6425" style="stop-color:#A9AAAB"/> <stop offset="0.9682" style="stop-color:#737477"/> <stop offset="1" style="stop-color:#6D6E71"/> </radialGradient> <polyline opacity="0.5" fill="url(#SVGID_7_)" points="15.137,562.086 857.586,265.43 689.363,1072.159 465.563,449.527 310.582,225.822 266.787,898.709 313.975,1030.59 949.523,679.063 "/> <radialGradient id="SVGID_8_" cx="10581.3613" cy="-2249.7783" r="692.1609" gradientTransform="matrix(0.474 -0.8805 0.8805 0.474 -2353.3477 10897.0205)" gradientUnits="userSpaceOnUse"> <stop offset="0" style="stop-color:#F1F2F2"/> <stop offset="0.1376" style="stop-color:#E8E9E9"/> <stop offset="0.361" style="stop-color:#D0D1D2"/> <stop offset="0.6425" style="stop-color:#A9AAAB"/> <stop offset="0.9682" style="stop-color:#737477"/> <stop offset="1" style="stop-color:#6D6E71"/> </radialGradient> <polyline opacity="0.7" fill="url(#SVGID_8_)" points="675.218,873.795 442.109,11.598 1234.074,239.426 596.51,416.244 361.879,554.139 1029.64,647.904 1164.668,610.672 861.436,-49.289 "/> <radialGradient id="SVGID_9_" cx="10382.2148" cy="-2808.9399" r="692.1618" gradientTransform="matrix(0.474 -0.8805 0.8805 0.474 -2353.3477 10897.0205)" gradientUnits="userSpaceOnUse"> <stop offset="0" style="stop-color:#F1F2F2"/> <stop offset="0.1376" style="stop-color:#E8E9E9"/> <stop offset="0.361" style="stop-color:#D0D1D2"/> <stop offset="0.6425" style="stop-color:#A9AAAB"/> <stop offset="0.9682" style="stop-color:#737477"/> <stop offset="1" style="stop-color:#6D6E71"/> </radialGradient> <polyline opacity="0.4" fill="url(#SVGID_9_)" points="88.483,784.101 -144.628,-78.1 647.337,149.732 9.771,326.55 -224.858,464.447 442.9,558.211 577.934,520.977 274.701,-138.982 "/> </g> </g> <g opacity="0.1"> <polygon fill="none" points="422.496,0 0,422.504 0,427.084 427.078,0 "/> <polygon fill="none" points="442.164,0 0,442.172 0,446.752 446.744,0 "/> <polygon fill="none" points="333.994,0 0,333.999 0,338.579 338.576,0 "/> <polygon fill="none" points="343.828,0 0,343.833 0,348.413 348.41,0 "/> <polygon fill="none" points="432.33,0 0,432.338 0,436.918 436.912,0 "/> <polygon fill="none" points="353.662,0 0,353.667 0,358.247 358.242,0 "/> <polygon fill="none" points="392.996,0 0,393.002 0,397.582 397.578,0 "/> <polygon fill="none" points="383.162,0 0,383.168 0,387.749 387.744,0 "/> <polygon fill="none" points="373.328,0 0,373.334 0,377.915 377.91,0 "/> <polygon fill="none" points="363.494,0 0,363.5 0,368.081 368.076,0 "/> <polygon fill="none" points="402.83,0 0,402.836 0,407.416 407.41,0 "/> <polygon fill="none" points="412.662,0 0,412.67 0,417.25 417.244,0 "/> <polygon fill="none" points="215.99,0 0,215.993 0,220.573 220.572,0 "/> <polygon fill="none" points="107.82,0 0,107.821 0,112.402 112.402,0 "/> <polygon fill="none" points="324.16,0 0,324.165 0,328.745 328.742,0 "/> <polygon fill="none" points="117.654,0 0,117.654 0,122.235 122.236,0 "/> <polygon fill="none" points="176.656,0 0,176.657 0,181.238 181.238,0 "/> <polygon fill="none" points="127.488,0 0,127.488 0,132.069 132.068,0 "/> <polygon fill="none" points="245.492,0 0,245.494 0,250.075 250.072,0 "/> <polygon fill="none" points="235.658,0 0,235.66 0,240.241 240.24,0 "/> <polygon fill="none" points="97.986,0 0,97.987 0,102.568 102.568,0 "/> <polygon fill="none" points="225.824,0 0,225.826 0,230.407 230.406,0 "/> <polygon fill="none" points="166.822,0 0,166.823 0,171.404 171.404,0 "/> <polygon fill="none" points="186.49,0 0,186.491 0,191.072 191.07,0 "/> <polygon fill="none" points="156.988,0 0,156.989 0,161.571 161.57,0 "/> <polygon fill="none" points="196.324,0 0,196.325 0,200.905 200.904,0 "/> <polygon fill="none" points="206.158,0 0,206.159 0,210.739 210.738,0 "/> <polygon fill="none" points="147.156,0 0,147.155 0,151.737 151.736,0 "/> <polygon fill="none" points="137.322,0 0,137.322 0,141.903 141.902,0 "/> <polygon fill="none" points="88.152,0 0,88.153 0,92.734 92.734,0 "/> <polygon fill="none" points="284.826,0 0,284.829 0,289.41 289.408,0 "/> <polygon fill="none" points="19.316,0 0,19.318 0,23.898 23.898,0 "/> <polygon fill="none" points="304.494,0 0,304.497 0,309.078 309.074,0 "/> <polygon fill="none" points="29.15,0 0,29.15 0,33.732 33.732,0 "/> <polygon fill="none" points="294.66,0 0,294.663 0,299.244 299.242,0 "/> <polygon fill="none" points="314.328,0 0,314.331 0,318.912 318.908,0 "/> <polygon fill="none" points="9.484,0 0,9.484 0,14.064 14.064,0 "/> <polygon fill="none" points="0,0 0,4.23 4.23,0 "/> <polygon fill="none" points="38.984,0 0,38.984 0,43.566 43.566,0 "/> <polygon fill="none" points="68.486,0 0,68.485 0,73.068 73.066,0 "/> <polygon fill="none" points="265.158,0 0,265.161 0,269.743 269.74,0 "/> <polygon fill="none" points="255.326,0 0,255.328 0,259.909 259.906,0 "/> <polygon fill="none" points="274.992,0 0,274.995 0,279.577 279.574,0 "/> <polygon fill="none" points="48.818,0 0,48.818 0,53.4 53.4,0 "/> <polygon fill="none" points="78.32,0 0,78.319 0,82.9 82.9,0 "/> <polygon fill="none" points="58.652,0 0,58.652 0,63.234 63.232,0 "/> <polygon fill="none" points="1000,789.377 989.381,799.998 993.963,799.998 1000,793.959 "/> <polygon fill="none" points="1000,101.005 301.039,799.998 305.619,799.998 1000,105.587 "/> <polygon fill="none" points="1000,120.673 320.707,799.998 325.287,799.998 1000,125.255 "/> <polygon fill="none" points="1000,110.839 310.873,799.998 315.453,799.998 1000,115.421 "/> <polygon fill="none" points="1000,130.507 330.539,799.998 335.121,799.998 1000,135.089 "/> <polygon fill="none" points="1000,140.34 340.373,799.998 344.953,799.998 1000,144.922 "/> <polygon fill="none" points="1000,150.174 350.207,799.998 354.787,799.998 1000,154.756 "/> <polygon fill="none" points="1000,91.171 291.205,799.998 295.787,799.998 1000,95.753 "/> <polygon fill="none" points="1000,160.008 360.041,799.998 364.621,799.998 1000,164.589 "/> <polygon fill="none" points="1000,51.837 251.871,799.998 256.451,799.998 1000,56.419 "/> <polygon fill="none" points="1000,61.67 261.705,799.998 266.285,799.998 1000,66.252 "/> <polygon fill="none" points="1000,71.504 271.539,799.998 276.119,799.998 1000,76.086 "/> <polygon fill="none" points="1000,81.338 281.371,799.998 285.953,799.998 1000,85.919 "/> <polygon fill="none" points="1000,228.845 428.875,799.998 433.455,799.998 1000,233.426 "/> <polygon fill="none" points="1000,169.841 369.875,799.998 374.455,799.998 1000,174.423 "/> <polygon fill="none" points="1000,258.346 458.375,799.998 462.957,799.998 1000,262.927 "/> <polygon fill="none" points="1000,238.678 438.709,799.998 443.289,799.998 1000,243.26 "/> <polygon fill="none" points="1000,278.013 478.043,799.998 482.623,799.998 1000,282.595 "/> <polygon fill="none" points="1000,268.179 468.209,799.998 472.789,799.998 1000,272.761 "/> <polygon fill="none" points="1000,42.003 242.037,799.998 246.617,799.998 1000,46.585 "/> <polygon fill="none" points="1000,248.512 448.543,799.998 453.123,799.998 1000,253.094 "/> <polygon fill="none" points="1000,219.011 419.041,799.998 423.623,799.998 1000,223.593 "/> <polygon fill="none" points="1000,179.675 379.707,799.998 384.289,799.998 1000,184.257 "/> <polygon fill="none" points="1000,189.509 389.541,799.998 394.121,799.998 1000,194.091 "/> <polygon fill="none" points="1000,199.343 399.375,799.998 403.955,799.998 1000,203.925 "/> <polygon fill="none" points="1000,209.177 409.209,799.998 413.789,799.998 1000,213.759 "/> <polygon fill="none" points="1000,2.668 202.703,799.998 207.283,799.998 1000,7.25 "/> <polygon fill="none" points="845.334,0 45.365,799.998 49.945,799.998 849.916,0 "/> <polygon fill="none" points="855.168,0 55.199,799.998 59.779,799.998 859.75,0 "/> <polygon fill="none" points="904.336,0 104.367,799.998 108.947,799.998 908.916,0 "/> <polygon fill="none" points="865.002,0 65.031,799.998 69.613,799.998 869.584,0 "/> <polygon fill="none" points="884.668,0 84.699,799.998 89.279,799.998 889.25,0 "/> <polygon fill="none" points="894.502,0 94.533,799.998 99.113,799.998 899.084,0 "/> <polygon fill="none" points="1000,32.169 232.203,799.998 236.785,799.998 1000,36.751 "/> <polygon fill="none" points="796.168,0 0,796.193 0,799.998 0.777,799.998 800.75,0 "/> <polygon fill="none" points="806.002,0 6.029,799.998 10.609,799.998 810.584,0 "/> <polygon fill="none" points="825.668,0 25.697,799.998 30.277,799.998 830.25,0 "/> <polygon fill="none" points="815.834,0 15.863,799.998 20.443,799.998 820.416,0 "/> <polygon fill="none" points="835.502,0 35.531,799.998 40.111,799.998 840.084,0 "/> <polygon fill="none" points="874.836,0 74.865,799.998 79.445,799.998 879.416,0 "/> <polygon fill="none" points="1000,287.847 487.877,799.998 492.457,799.998 1000,292.429 "/> <polygon fill="none" points="992.834,0 192.869,799.998 197.449,799.998 997.416,0 "/> <polygon fill="none" points="914.168,0 114.201,799.998 118.781,799.998 918.75,0 "/> <polygon fill="none" points="1000,22.335 222.371,799.998 226.951,799.998 1000,26.917 "/> <polygon fill="none" points="1000,12.501 212.537,799.998 217.117,799.998 1000,17.083 "/> <polygon fill="none" points="973.168,0 173.203,799.998 177.783,799.998 977.75,0 "/> <polygon fill="none" points="983.002,0 183.035,799.998 187.617,799.998 987.584,0 "/> <polygon fill="none" points="924.002,0 124.033,799.998 128.615,799.998 928.584,0 "/> <polygon fill="none" points="963.334,0 163.369,799.998 167.949,799.998 967.916,0 "/> <polygon fill="none" points="933.836,0 133.867,799.998 138.447,799.998 938.416,0 "/> <polygon fill="none" points="953.502,0 153.535,799.998 158.115,799.998 958.084,0 "/> <polygon fill="none" points="943.668,0 143.701,799.998 148.281,799.998 948.25,0 "/> <polygon fill="none" points="786.334,0 0,786.359 0,790.941 790.916,0 "/> <polygon fill="none" points="1000,641.865 841.878,799.998 846.461,799.998 1000,646.447 "/> <polygon fill="none" points="1000,612.365 812.378,799.998 816.961,799.998 1000,616.945 "/> <polygon fill="none" points="1000,622.199 822.213,799.998 826.793,799.998 1000,626.779 "/> <polygon fill="none" points="1000,632.033 832.045,799.998 836.626,799.998 1000,636.613 "/> <polygon fill="none" points="1000,651.699 851.713,799.998 856.293,799.998 1000,656.281 "/> <polygon fill="none" points="1000,661.533 861.545,799.998 866.126,799.998 1000,666.115 "/> <polygon fill="none" points="1000,671.367 871.378,799.998 875.961,799.998 1000,675.949 "/> <polygon fill="none" points="1000,602.531 802.545,799.998 807.126,799.998 1000,607.111 "/> <polygon fill="none" points="1000,563.195 763.213,799.998 767.793,799.998 1000,567.775 "/> <polygon fill="none" points="1000,573.029 773.045,799.998 777.626,799.998 1000,577.609 "/> <polygon fill="none" points="1000,592.697 792.713,799.998 797.293,799.998 1000,597.277 "/> <polygon fill="none" points="1000,582.863 782.878,799.998 787.459,799.998 1000,587.443 "/> <polygon fill="none" points="1000,720.537 920.545,799.998 925.126,799.998 1000,725.119 "/> <polygon fill="none" points="1000,681.201 881.213,799.998 885.793,799.998 1000,685.783 "/> <polygon fill="none" points="1000,759.875 959.878,799.998 964.461,799.998 1000,764.457 "/> <polygon fill="none" points="1000,740.207 940.213,799.998 944.794,799.998 1000,744.789 "/> <polygon fill="none" points="1000,750.041 950.047,799.998 954.626,799.998 1000,754.623 "/> <polygon fill="none" points="1000,779.543 979.547,799.998 984.129,799.998 1000,784.125 "/> <polygon fill="none" points="1000,799.213 999.215,799.998 1000,799.998 "/> <polygon fill="none" points="1000,769.709 969.713,799.998 974.294,799.998 1000,774.291 "/> <polygon fill="none" points="1000,691.036 891.045,799.998 895.626,799.998 1000,695.617 "/> <polygon fill="none" points="1000,700.869 900.878,799.998 905.461,799.998 1000,705.451 "/> <polygon fill="none" points="1000,553.361 753.378,799.998 757.958,799.998 1000,557.943 "/> <polygon fill="none" points="1000,730.371 930.378,799.998 934.961,799.998 1000,734.953 "/> <polygon fill="none" points="1000,710.703 910.713,799.998 915.293,799.998 1000,715.286 "/> <polygon fill="none" points="1000,415.686 615.711,799.998 620.293,799.998 1000,420.268 "/> <polygon fill="none" points="1000,376.352 576.377,799.998 580.959,799.998 1000,380.934 "/> <polygon fill="none" points="1000,366.518 566.545,799.998 571.125,799.998 1000,371.1 "/> <polygon fill="none" points="1000,356.684 556.711,799.998 561.291,799.998 1000,361.266 "/> <polygon fill="none" points="1000,386.186 586.211,799.998 590.791,799.998 1000,390.767 "/> <polygon fill="none" points="1000,396.02 596.045,799.998 600.625,799.998 1000,400.6 "/> <polygon fill="none" points="1000,405.852 605.877,799.998 610.459,799.998 1000,410.434 "/> <polygon fill="none" points="1000,307.515 507.543,799.998 512.123,799.998 1000,312.097 "/> <polygon fill="none" points="1000,297.681 497.709,799.998 502.291,799.998 1000,302.263 "/> <polygon fill="none" points="1000,346.85 546.877,799.998 551.457,799.998 1000,351.432 "/> <polygon fill="none" points="1000,317.349 517.377,799.998 521.957,799.998 1000,321.931 "/> <polygon fill="none" points="1000,337.017 537.043,799.998 541.625,799.998 1000,341.598 "/> <polygon fill="none" points="1000,327.183 527.211,799.998 531.791,799.998 1000,331.765 "/> <polygon fill="none" points="1000,464.855 664.879,799.998 669.459,799.998 1000,469.438 "/> <polygon fill="none" points="1000,514.025 714.045,799.998 718.627,799.998 1000,518.607 "/> <polygon fill="none" points="1000,504.191 704.213,799.998 708.793,799.998 1000,508.773 "/> <polygon fill="none" points="1000,533.693 733.713,799.998 738.293,799.998 1000,538.275 "/> <polygon fill="none" points="1000,523.859 723.879,799.998 728.459,799.998 1000,528.441 "/> <polygon fill="none" points="1000,494.357 694.379,799.998 698.959,799.998 1000,498.939 "/> <polygon fill="none" points="1000,543.527 743.545,799.998 748.127,799.998 1000,548.109 "/> <polygon fill="none" points="1000,435.354 635.379,799.998 639.959,799.998 1000,439.936 "/> <polygon fill="none" points="1000,445.188 645.211,799.998 649.793,799.998 1000,449.77 "/> <polygon fill="none" points="1000,474.689 674.711,799.998 679.293,799.998 1000,479.271 "/> <polygon fill="none" points="1000,425.52 625.545,799.998 630.125,799.998 1000,430.102 "/> <polygon fill="none" points="1000,484.523 684.545,799.998 689.127,799.998 1000,489.105 "/> <polygon fill="none" points="1000,455.021 655.045,799.998 659.625,799.998 1000,459.604 "/> <polygon fill="none" points="648.666,0 0,648.684 0,653.264 653.248,0 "/> <polygon fill="none" points="451.998,0 0,452.006 0,456.586 456.578,0 "/> <polygon fill="none" points="579.832,0 0,579.846 0,584.428 584.414,0 "/> <polygon fill="none" points="491.332,0 0,491.34 0,495.922 495.912,0 "/> <polygon fill="none" points="638.834,0 0,638.85 0,643.43 643.414,0 "/> <polygon fill="none" points="717.5,0 0,717.521 0,722.102 722.082,0 "/> <polygon fill="none" points="530.666,0 0,530.676 0,535.258 535.246,0 "/> <polygon fill="none" points="756.834,0 0,756.857 0,761.439 761.416,0 "/> <polygon fill="none" points="678.168,0 0,678.186 0,682.766 682.748,0 "/> <polygon fill="none" points="737.168,0 0,737.189 0,741.771 741.75,0 "/> <polygon fill="none" points="471.664,0 0,471.672 0,476.254 476.246,0 "/> <polygon fill="none" points="668.334,0 0,668.352 0,672.932 672.916,0 "/> <polygon fill="none" points="570,0 0,570.012 0,574.594 574.58,0 "/> <polygon fill="none" points="540.498,0 0,540.51 0,545.092 545.08,0 "/> <polygon fill="none" points="658.5,0 0,658.518 0,663.098 663.082,0 "/> <polygon fill="none" points="501.164,0 0,501.174 0,505.756 505.746,0 "/> <polygon fill="none" points="461.83,0 0,461.838 0,466.42 466.412,0 "/> <polygon fill="none" points="747.002,0 0,747.023 0,751.605 751.582,0 "/> <polygon fill="none" points="727.334,0 0,727.355 0,731.938 731.916,0 "/> <polygon fill="none" points="550.332,0 0,550.344 0,554.926 554.914,0 "/> <polygon fill="none" points="776.502,0 0,776.525 0,781.107 781.082,0 "/> <polygon fill="none" points="629,0 0,629.016 0,633.596 633.582,0 "/> <polygon fill="none" points="560.166,0 0,560.178 0,564.76 564.748,0 "/> <polygon fill="none" points="599.5,0 0,599.514 0,604.094 604.082,0 "/> <polygon fill="none" points="609.334,0 0,609.348 0,613.928 613.914,0 "/> <polygon fill="none" points="619.166,0 0,619.182 0,623.762 623.748,0 "/> <polygon fill="none" points="697.834,0 0,697.854 0,702.434 702.416,0 "/> <polygon fill="none" points="481.498,0 0,481.506 0,486.088 486.08,0 "/> <polygon fill="none" points="707.668,0 0,707.688 0,712.268 712.25,0 "/> <polygon fill="none" points="520.832,0 0,520.842 0,525.424 525.414,0 "/> <polygon fill="none" points="510.998,0 0,511.008 0,515.59 515.58,0 "/> <polygon fill="none" points="766.668,0 0,766.691 0,771.273 771.25,0 "/> <polygon fill="none" points="688,0 0,688.02 0,692.6 692.582,0 "/> <polygon fill="none" points="589.666,0 0,589.68 0,594.26 594.248,0 "/> <polygon fill="#F2F2F2" points="4.23,0 0,4.23 0,9.484 9.484,0 "/> <polygon fill="#F2F2F2" points="14.064,0 0,14.064 0,19.318 19.316,0 "/> <polygon fill="#F2F2F2" points="23.898,0 0,23.898 0,29.15 29.15,0 "/> <polygon fill="#F2F2F2" points="33.732,0 0,33.732 0,38.984 38.984,0 "/> <polygon fill="#F2F2F2" points="43.566,0 0,43.566 0,48.818 48.818,0 "/> <polygon fill="#F2F2F2" points="53.4,0 0,53.4 0,58.652 58.652,0 "/> <polygon fill="#F2F2F2" points="63.232,0 0,63.234 0,68.485 68.486,0 "/> <polygon fill="#F2F2F2" points="73.066,0 0,73.068 0,78.319 78.32,0 "/> <polygon fill="#F2F2F2" points="82.9,0 0,82.9 0,88.153 88.152,0 "/> <polygon fill="#F2F2F2" points="92.734,0 0,92.734 0,97.987 97.986,0 "/> <polygon fill="#F2F2F2" points="102.568,0 0,102.568 0,107.821 107.82,0 "/> <polygon fill="#F2F2F2" points="112.402,0 0,112.402 0,117.654 117.654,0 "/> <polygon fill="#F2F2F2" points="122.236,0 0,122.235 0,127.488 127.488,0 "/> <polygon fill="#F2F2F2" points="132.068,0 0,132.069 0,137.322 137.322,0 "/> <polygon fill="#F2F2F2" points="141.902,0 0,141.903 0,147.155 147.156,0 "/> <polygon fill="#F2F2F2" points="151.736,0 0,151.737 0,156.989 156.988,0 "/> <polygon fill="#F2F2F2" points="161.57,0 0,161.571 0,166.823 166.822,0 "/> <polygon fill="#F2F2F2" points="171.404,0 0,171.404 0,176.657 176.656,0 "/> <polygon fill="#F2F2F2" points="181.238,0 0,181.238 0,186.491 186.49,0 "/> <polygon fill="#F2F2F2" points="191.07,0 0,191.072 0,196.325 196.324,0 "/> <polygon fill="#F2F2F2" points="200.904,0 0,200.905 0,206.159 206.158,0 "/> <polygon fill="#F2F2F2" points="210.738,0 0,210.739 0,215.993 215.99,0 "/> <polygon fill="#F2F2F2" points="220.572,0 0,220.573 0,225.826 225.824,0 "/> <polygon fill="#F2F2F2" points="230.406,0 0,230.407 0,235.66 235.658,0 "/> <polygon fill="#F2F2F2" points="240.24,0 0,240.241 0,245.494 245.492,0 "/> <polygon fill="#F2F2F2" points="250.072,0 0,250.075 0,255.328 255.326,0 "/> <polygon fill="#F2F2F2" points="259.906,0 0,259.909 0,265.161 265.158,0 "/> <polygon fill="#F2F2F2" points="269.74,0 0,269.743 0,274.995 274.992,0 "/> <polygon fill="#F2F2F2" points="279.574,0 0,279.577 0,284.829 284.826,0 "/> <polygon fill="#F2F2F2" points="289.408,0 0,289.41 0,294.663 294.66,0 "/> <polygon fill="#F2F2F2" points="299.242,0 0,299.244 0,304.497 304.494,0 "/> <polygon fill="#F2F2F2" points="309.074,0 0,309.078 0,314.331 314.328,0 "/> <polygon fill="#F2F2F2" points="318.908,0 0,318.912 0,324.165 324.16,0 "/> <polygon fill="#F2F2F2" points="328.742,0 0,328.745 0,333.999 333.994,0 "/> <polygon fill="#F2F2F2" points="338.576,0 0,338.579 0,343.833 343.828,0 "/> <polygon fill="#F2F2F2" points="348.41,0 0,348.413 0,353.667 353.662,0 "/> <polygon fill="#F2F2F2" points="358.242,0 0,358.247 0,363.5 363.494,0 "/> <polygon fill="#F2F2F2" points="368.076,0 0,368.081 0,373.334 373.328,0 "/> <polygon fill="#F2F2F2" points="377.91,0 0,377.915 0,383.168 383.162,0 "/> <polygon fill="#F2F2F2" points="387.744,0 0,387.749 0,393.002 392.996,0 "/> <polygon fill="#F2F2F2" points="397.578,0 0,397.582 0,402.836 402.83,0 "/> <polygon fill="#F2F2F2" points="407.41,0 0,407.416 0,412.67 412.662,0 "/> <polygon fill="#F2F2F2" points="417.244,0 0,417.25 0,422.504 422.496,0 "/> <polygon fill="#F2F2F2" points="427.078,0 0,427.084 0,432.338 432.33,0 "/> <polygon fill="#F2F2F2" points="436.912,0 0,436.918 0,442.172 442.164,0 "/> <polygon fill="#F2F2F2" points="446.744,0 0,446.752 0,452.006 451.998,0 "/> <polygon fill="#F2F2F2" points="456.578,0 0,456.586 0,461.838 461.83,0 "/> <polygon fill="#F2F2F2" points="466.412,0 0,466.42 0,471.672 471.664,0 "/> <polygon fill="#F2F2F2" points="476.246,0 0,476.254 0,481.506 481.498,0 "/> <polygon fill="#F2F2F2" points="486.08,0 0,486.088 0,491.34 491.332,0 "/> <polygon fill="#F2F2F2" points="495.912,0 0,495.922 0,501.174 501.164,0 "/> <polygon fill="#F2F2F2" points="505.746,0 0,505.756 0,511.008 510.998,0 "/> <polygon fill="#F2F2F2" points="515.58,0 0,515.59 0,520.842 520.832,0 "/> <polygon fill="#F2F2F2" points="525.414,0 0,525.424 0,530.676 530.666,0 "/> <polygon fill="#F2F2F2" points="535.246,0 0,535.258 0,540.51 540.498,0 "/> <polygon fill="#F2F2F2" points="545.08,0 0,545.092 0,550.344 550.332,0 "/> <polygon fill="#F2F2F2" points="554.914,0 0,554.926 0,560.178 560.166,0 "/> <polygon fill="#F2F2F2" points="564.748,0 0,564.76 0,570.012 570,0 "/> <polygon fill="#F2F2F2" points="574.58,0 0,574.594 0,579.846 579.832,0 "/> <polygon fill="#F2F2F2" points="584.414,0 0,584.428 0,589.68 589.666,0 "/> <polygon fill="#F2F2F2" points="594.248,0 0,594.26 0,599.514 599.5,0 "/> <polygon fill="#F2F2F2" points="604.082,0 0,604.094 0,609.348 609.334,0 "/> <polygon fill="#F2F2F2" points="613.914,0 0,613.928 0,619.182 619.166,0 "/> <polygon fill="#F2F2F2" points="623.748,0 0,623.762 0,629.016 629,0 "/> <polygon fill="#F2F2F2" points="633.582,0 0,633.596 0,638.85 638.834,0 "/> <polygon fill="#F2F2F2" points="643.414,0 0,643.43 0,648.684 648.666,0 "/> <polygon fill="#F2F2F2" points="653.248,0 0,653.264 0,658.518 658.5,0 "/> <polygon fill="#F2F2F2" points="663.082,0 0,663.098 0,668.352 668.334,0 "/> <polygon fill="#F2F2F2" points="672.916,0 0,672.932 0,678.186 678.168,0 "/> <polygon fill="#F2F2F2" points="682.748,0 0,682.766 0,688.02 688,0 "/> <polygon fill="#F2F2F2" points="692.582,0 0,692.6 0,697.854 697.834,0 "/> <polygon fill="#F2F2F2" points="702.416,0 0,702.434 0,707.688 707.668,0 "/> <polygon fill="#F2F2F2" points="712.25,0 0,712.268 0,717.521 717.5,0 "/> <polygon fill="#F2F2F2" points="722.082,0 0,722.102 0,727.355 727.334,0 "/> <polygon fill="#F2F2F2" points="731.916,0 0,731.938 0,737.189 737.168,0 "/> <polygon fill="#F2F2F2" points="741.75,0 0,741.771 0,747.023 747.002,0 "/> <polygon fill="#F2F2F2" points="751.582,0 0,751.605 0,756.857 756.834,0 "/> <polygon fill="#F2F2F2" points="761.416,0 0,761.439 0,766.691 766.668,0 "/> <polygon fill="#F2F2F2" points="771.25,0 0,771.273 0,776.525 776.502,0 "/> <polygon fill="#F2F2F2" points="781.082,0 0,781.107 0,786.359 786.334,0 "/> <polygon fill="#F2F2F2" points="790.916,0 0,790.941 0,796.193 796.168,0 "/> <polygon fill="#F2F2F2" points="800.75,0 0.777,799.998 6.029,799.998 806.002,0 "/> <polygon fill="#F2F2F2" points="810.584,0 10.609,799.998 15.863,799.998 815.834,0 "/> <polygon fill="#F2F2F2" points="820.416,0 20.443,799.998 25.697,799.998 825.668,0 "/> <polygon fill="#F2F2F2" points="830.25,0 30.277,799.998 35.531,799.998 835.502,0 "/> <polygon fill="#F2F2F2" points="840.084,0 40.111,799.998 45.365,799.998 845.334,0 "/> <polygon fill="#F2F2F2" points="849.916,0 49.945,799.998 55.199,799.998 855.168,0 "/> <polygon fill="#F2F2F2" points="859.75,0 59.779,799.998 65.031,799.998 865.002,0 "/> <polygon fill="#F2F2F2" points="869.584,0 69.613,799.998 74.865,799.998 874.836,0 "/> <polygon fill="#F2F2F2" points="879.416,0 79.445,799.998 84.699,799.998 884.668,0 "/> <polygon fill="#F2F2F2" points="889.25,0 89.279,799.998 94.533,799.998 894.502,0 "/> <polygon fill="#F2F2F2" points="899.084,0 99.113,799.998 104.367,799.998 904.336,0 "/> <polygon fill="#F2F2F2" points="908.916,0 108.947,799.998 114.201,799.998 914.168,0 "/> <polygon fill="#F2F2F2" points="918.75,0 118.781,799.998 124.033,799.998 924.002,0 "/> <polygon fill="#F2F2F2" points="928.584,0 128.615,799.998 133.867,799.998 933.836,0 "/> <polygon fill="#F2F2F2" points="938.416,0 138.447,799.998 143.701,799.998 943.668,0 "/> <polygon fill="#F2F2F2" points="948.25,0 148.281,799.998 153.535,799.998 953.502,0 "/> <polygon fill="#F2F2F2" points="958.084,0 158.115,799.998 163.369,799.998 963.334,0 "/> <polygon fill="#F2F2F2" points="967.916,0 167.949,799.998 173.203,799.998 973.168,0 "/> <polygon fill="#F2F2F2" points="977.75,0 177.783,799.998 183.035,799.998 983.002,0 "/> <polygon fill="#F2F2F2" points="987.584,0 187.617,799.998 192.869,799.998 992.834,0 "/> <polygon fill="#F2F2F2" points="1000,0 997.416,0 197.449,799.998 202.703,799.998 1000,2.668 "/> <polygon fill="#F2F2F2" points="1000,7.25 207.283,799.998 212.537,799.998 1000,12.501 "/> <polygon fill="#F2F2F2" points="1000,17.083 217.117,799.998 222.371,799.998 1000,22.335 "/> <polygon fill="#F2F2F2" points="1000,26.917 226.951,799.998 232.203,799.998 1000,32.169 "/> <polygon fill="#F2F2F2" points="1000,36.751 236.785,799.998 242.037,799.998 1000,42.003 "/> <polygon fill="#F2F2F2" points="1000,46.585 246.617,799.998 251.871,799.998 1000,51.837 "/> <polygon fill="#F2F2F2" points="1000,56.419 256.451,799.998 261.705,799.998 1000,61.67 "/> <polygon fill="#F2F2F2" points="1000,66.252 266.285,799.998 271.539,799.998 1000,71.504 "/> <polygon fill="#F2F2F2" points="1000,76.086 276.119,799.998 281.371,799.998 1000,81.338 "/> <polygon fill="#F2F2F2" points="1000,85.919 285.953,799.998 291.205,799.998 1000,91.171 "/> <polygon fill="#F2F2F2" points="1000,95.753 295.787,799.998 301.039,799.998 1000,101.005 "/> <polygon fill="#F2F2F2" points="1000,105.587 305.619,799.998 310.873,799.998 1000,110.839 "/> <polygon fill="#F2F2F2" points="1000,115.421 315.453,799.998 320.707,799.998 1000,120.673 "/> <polygon fill="#F2F2F2" points="1000,125.255 325.287,799.998 330.539,799.998 1000,130.507 "/> <polygon fill="#F2F2F2" points="1000,135.089 335.121,799.998 340.373,799.998 1000,140.34 "/> <polygon fill="#F2F2F2" points="1000,144.922 344.953,799.998 350.207,799.998 1000,150.174 "/> <polygon fill="#F2F2F2" points="1000,154.756 354.787,799.998 360.041,799.998 1000,160.008 "/> <polygon fill="#F2F2F2" points="1000,164.589 364.621,799.998 369.875,799.998 1000,169.841 "/> <polygon fill="#F2F2F2" points="1000,174.423 374.455,799.998 379.707,799.998 1000,179.675 "/> <polygon fill="#F2F2F2" points="1000,184.257 384.289,799.998 389.541,799.998 1000,189.509 "/> <polygon fill="#F2F2F2" points="1000,194.091 394.121,799.998 399.375,799.998 1000,199.343 "/> <polygon fill="#F2F2F2" points="1000,203.925 403.955,799.998 409.209,799.998 1000,209.177 "/> <polygon fill="#F2F2F2" points="1000,213.759 413.789,799.998 419.041,799.998 1000,219.011 "/> <polygon fill="#F2F2F2" points="1000,223.593 423.623,799.998 428.875,799.998 1000,228.845 "/> <polygon fill="#F2F2F2" points="1000,233.426 433.455,799.998 438.709,799.998 1000,238.678 "/> <polygon fill="#F2F2F2" points="1000,243.26 443.289,799.998 448.543,799.998 1000,248.512 "/> <polygon fill="#F2F2F2" points="1000,253.094 453.123,799.998 458.375,799.998 1000,258.346 "/> <polygon fill="#F2F2F2" points="1000,262.927 462.957,799.998 468.209,799.998 1000,268.179 "/> <polygon fill="#F2F2F2" points="1000,272.761 472.789,799.998 478.043,799.998 1000,278.013 "/> <polygon fill="#F2F2F2" points="1000,282.595 482.623,799.998 487.877,799.998 1000,287.847 "/> <polygon fill="#F2F2F2" points="1000,292.429 492.457,799.998 497.709,799.998 1000,297.681 "/> <polygon fill="#F2F2F2" points="1000,302.263 502.291,799.998 507.543,799.998 1000,307.515 "/> <polygon fill="#F2F2F2" points="1000,312.097 512.123,799.998 517.377,799.998 1000,317.349 "/> <polygon fill="#F2F2F2" points="1000,321.931 521.957,799.998 527.211,799.998 1000,327.183 "/> <polygon fill="#F2F2F2" points="1000,331.765 531.791,799.998 537.043,799.998 1000,337.017 "/> <polygon fill="#F2F2F2" points="1000,341.598 541.625,799.998 546.877,799.998 1000,346.85 "/> <polygon fill="#F2F2F2" points="1000,351.432 551.457,799.998 556.711,799.998 1000,356.684 "/> <polygon fill="#F2F2F2" points="1000,361.266 561.291,799.998 566.545,799.998 1000,366.518 "/> <polygon fill="#F2F2F2" points="1000,371.1 571.125,799.998 576.377,799.998 1000,376.352 "/> <polygon fill="#F2F2F2" points="1000,380.934 580.959,799.998 586.211,799.998 1000,386.186 "/> <polygon fill="#F2F2F2" points="1000,390.767 590.791,799.998 596.045,799.998 1000,396.02 "/> <polygon fill="#F2F2F2" points="1000,400.6 600.625,799.998 605.877,799.998 1000,405.852 "/> <polygon fill="#F2F2F2" points="1000,410.434 610.459,799.998 615.711,799.998 1000,415.686 "/> <polygon fill="#F2F2F2" points="1000,420.268 620.293,799.998 625.545,799.998 1000,425.52 "/> <polygon fill="#F2F2F2" points="1000,430.102 630.125,799.998 635.379,799.998 1000,435.354 "/> <polygon fill="#F2F2F2" points="1000,439.936 639.959,799.998 645.211,799.998 1000,445.188 "/> <polygon fill="#F2F2F2" points="1000,449.77 649.793,799.998 655.045,799.998 1000,455.021 "/> <polygon fill="#F2F2F2" points="1000,459.604 659.625,799.998 664.879,799.998 1000,464.855 "/> <polygon fill="#F2F2F2" points="1000,469.438 669.459,799.998 674.711,799.998 1000,474.689 "/> <polygon fill="#F2F2F2" points="1000,479.271 679.293,799.998 684.545,799.998 1000,484.523 "/> <polygon fill="#F2F2F2" points="1000,489.105 689.127,799.998 694.379,799.998 1000,494.357 "/> <polygon fill="#F2F2F2" points="1000,498.939 698.959,799.998 704.213,799.998 1000,504.191 "/> <polygon fill="#F2F2F2" points="1000,508.773 708.793,799.998 714.045,799.998 1000,514.025 "/> <polygon fill="#F2F2F2" points="1000,518.607 718.627,799.998 723.879,799.998 1000,523.859 "/> <polygon fill="#F2F2F2" points="1000,528.441 728.459,799.998 733.713,799.998 1000,533.693 "/> <polygon fill="#F2F2F2" points="1000,538.275 738.293,799.998 743.545,799.998 1000,543.527 "/> <polygon fill="#F2F2F2" points="1000,548.109 748.127,799.998 753.378,799.998 1000,553.361 "/> <polygon fill="#F2F2F2" points="1000,557.943 757.958,799.998 763.213,799.998 1000,563.195 "/> <polygon fill="#F2F2F2" points="1000,567.775 767.793,799.998 773.045,799.998 1000,573.029 "/> <polygon fill="#F2F2F2" points="1000,577.609 777.626,799.998 782.878,799.998 1000,582.863 "/> <polygon fill="#F2F2F2" points="1000,587.443 787.459,799.998 792.713,799.998 1000,592.697 "/> <polygon fill="#F2F2F2" points="1000,597.277 797.293,799.998 802.545,799.998 1000,602.531 "/> <polygon fill="#F2F2F2" points="1000,607.111 807.126,799.998 812.378,799.998 1000,612.365 "/> <polygon fill="#F2F2F2" points="1000,616.945 816.961,799.998 822.213,799.998 1000,622.199 "/> <polygon fill="#F2F2F2" points="1000,626.779 826.793,799.998 832.045,799.998 1000,632.033 "/> <polygon fill="#F2F2F2" points="1000,636.613 836.626,799.998 841.878,799.998 1000,641.865 "/> <polygon fill="#F2F2F2" points="1000,646.447 846.461,799.998 851.713,799.998 1000,651.699 "/> <polygon fill="#F2F2F2" points="1000,656.281 856.293,799.998 861.545,799.998 1000,661.533 "/> <polygon fill="#F2F2F2" points="1000,666.115 866.126,799.998 871.378,799.998 1000,671.367 "/> <polygon fill="#F2F2F2" points="1000,675.949 875.961,799.998 881.213,799.998 1000,681.201 "/> <polygon fill="#F2F2F2" points="1000,685.783 885.793,799.998 891.045,799.998 1000,691.036 "/> <polygon fill="#F2F2F2" points="1000,695.617 895.626,799.998 900.878,799.998 1000,700.869 "/> <polygon fill="#F2F2F2" points="1000,705.451 905.461,799.998 910.713,799.998 1000,710.703 "/> <polygon fill="#F2F2F2" points="1000,715.286 915.293,799.998 920.545,799.998 1000,720.537 "/> <polygon fill="#F2F2F2" points="1000,725.119 925.126,799.998 930.378,799.998 1000,730.371 "/> <polygon fill="#F2F2F2" points="1000,734.953 934.961,799.998 940.213,799.998 1000,740.207 "/> <polygon fill="#F2F2F2" points="1000,744.789 944.794,799.998 950.047,799.998 1000,750.041 "/> <polygon fill="#F2F2F2" points="1000,754.623 954.626,799.998 959.878,799.998 1000,759.875 "/> <polygon fill="#F2F2F2" points="1000,764.457 964.461,799.998 969.713,799.998 1000,769.709 "/> <polygon fill="#F2F2F2" points="1000,774.291 974.294,799.998 979.547,799.998 1000,779.543 "/> <polygon fill="#F2F2F2" points="1000,784.125 984.129,799.998 989.381,799.998 1000,789.377 "/> <polygon fill="#F2F2F2" points="1000,793.959 993.963,799.998 999.215,799.998 1000,799.213 "/> </g> </svg>