<?xml version="1.0" encoding="UTF-8"?>
<!DOCTYPE svg PUBLIC "-//W3C//DTD SVG 1.1//EN" "http://www.w3.org/Graphics/SVG/1.1/DTD/svg11.dtd">
<!-- Creator: CorelDRAW 2017 -->
<svg xmlns="http://www.w3.org/2000/svg" xml:space="preserve" width="74.8452mm" height="8.8052mm" version="1.1" style="shape-rendering:geometricPrecision; text-rendering:geometricPrecision; image-rendering:optimizeQuality; fill-rule:evenodd; clip-rule:evenodd"
viewBox="0 0 7484.52 880.52"
 xmlns:xlink="http://www.w3.org/1999/xlink">
 <defs>
  <style type="text/css">
   <![CDATA[
    .str0 {stroke:#FFD600;stroke-width:50;stroke-miterlimit:22.9256}
    .fil0 {fill:none}
    .fil1 {fill:#2B2A29;fill-rule:nonzero}
   ]]>
  </style>
 </defs>
 <g id="Слой_x0020_1">
  <metadata id="CorelCorpID_0Corel-Layer"/>
  <line class="fil0 str0" x1="4530.95" y1="449.24" x2="39.77" y2= "449.24" />
  <polyline class="fil0 str0" points="4596.7,24.13 4525.87,24.13 4525.87,855.57 4596.7,855.57 "/>
  <polyline class="fil0 str0" points="7349.47,24.13 7419.95,24.13 7419.95,858.42 7349.47,858.42 "/>
  <path class="fil1" d="M4921.52 139.46c0,3.61 -0.12,6.71 -0.38,9.37 -0.25,2.66 -0.57,5.13 -1.01,7.41 -0.44,2.28 -1.01,4.43 -1.77,6.46 -0.7,2.02 -1.59,4.24 -2.6,6.58l-78.95 183.3c-0.76,1.58 -1.71,2.91 -2.85,3.86 -1.21,1.02 -2.85,1.78 -4.94,2.35 -2.09,0.57 -4.81,0.95 -8.04,1.14 -3.3,0.19 -7.35,0.25 -12.16,0.25 -6.52,0 -11.71,-0.19 -15.58,-0.63 -3.8,-0.45 -6.64,-1.14 -8.42,-2.09 -1.77,-0.89 -2.78,-2.09 -2.85,-3.49 -0.12,-1.45 0.26,-3.22 1.27,-5.31l84.72 -187.55 -100.87 0c-2.59,0 -4.55,-1.71 -5.82,-5.06 -1.33,-3.42 -1.96,-8.8 -1.96,-16.21 0,-3.67 0.19,-6.9 0.57,-9.5 0.38,-2.66 0.88,-4.88 1.58,-6.58 0.7,-1.71 1.46,-2.98 2.4,-3.68 0.95,-0.76 2.03,-1.14 3.23,-1.14l142.72 0c2.28,0 4.12,0.19 5.57,0.64 1.52,0.44 2.66,1.39 3.55,2.85 0.88,1.52 1.52,3.6 1.96,6.33 0.44,2.72 0.63,6.27 0.63,10.7z"/>
  <path id="1" class="fil1" d="M5042.27 265.58c0,7.22 -0.69,12.22 -2.02,15.07 -1.4,2.85 -3.55,4.31 -6.53,4.31l-77.31 0c-3.1,0 -5.31,-1.46 -6.71,-4.37 -1.33,-2.91 -2.02,-7.91 -2.02,-15.01 0,-6.96 0.69,-11.84 2.02,-14.68 1.4,-2.85 3.61,-4.31 6.71,-4.31l77.31 0c1.52,0 2.79,0.32 3.8,0.95 1.08,0.63 1.97,1.65 2.73,3.17 0.69,1.45 1.26,3.48 1.58,5.95 0.32,2.47 0.44,5.44 0.44,8.92z"/>
  <path id="2" class="fil1" d="M5234.18 294.65c0,10.82 -1.9,20.57 -5.63,29.06 -3.8,8.55 -9.37,15.77 -16.72,21.59 -7.34,5.89 -16.52,10.32 -27.41,13.36 -10.9,3.04 -23.43,4.56 -37.68,4.56 -13.55,0 -25.51,-1.33 -35.77,-4.05 -10.26,-2.73 -18.87,-6.71 -25.84,-11.97 -6.9,-5.26 -12.09,-11.78 -15.57,-19.5 -3.48,-7.73 -5.19,-16.59 -5.19,-26.59 0,-6.78 1.01,-13.17 3.04,-19.19 2.09,-6.01 5.06,-11.59 9.11,-16.72 3.99,-5.12 9.06,-9.94 15.01,-14.43 6.01,-4.5 12.92,-8.8 20.7,-12.92 -6.33,-3.42 -12.03,-7.15 -17.09,-11.21 -5.07,-3.98 -9.37,-8.35 -12.98,-13.17 -3.61,-4.74 -6.33,-9.94 -8.17,-15.63 -1.84,-5.7 -2.78,-11.91 -2.78,-18.56 0,-9.62 1.7,-18.36 5.12,-26.21 3.36,-7.85 8.49,-14.69 15.2,-20.39 6.77,-5.76 15.2,-10.19 25.33,-13.29 10.19,-3.11 21.9,-4.63 35.26,-4.63 13.3,0 24.63,1.4 34.13,4.25 9.44,2.85 17.22,6.9 23.3,12.09 6.02,5.19 10.51,11.4 13.43,18.62 2.91,7.21 4.36,15.25 4.36,23.99 0,5.83 -0.95,11.46 -2.85,16.97 -1.96,5.51 -4.62,10.76 -8.1,15.7 -3.48,4.94 -7.72,9.56 -12.79,14 -5.06,4.37 -10.83,8.35 -17.29,11.96 7.54,3.93 14.31,8.11 20.2,12.6 5.95,4.44 10.96,9.25 15.07,14.38 4.05,5.12 7.22,10.57 9.37,16.4 2.16,5.82 3.23,12.09 3.23,18.93zm-53.94 -116.44c0,-4.31 -0.64,-8.17 -1.84,-11.65 -1.27,-3.42 -3.17,-6.4 -5.82,-8.8 -2.66,-2.41 -5.96,-4.18 -9.82,-5.45 -3.86,-1.2 -8.48,-1.84 -13.74,-1.84 -10.38,0 -18.04,2.41 -23.11,7.16 -5.06,4.75 -7.6,11.27 -7.6,19.69 0,3.93 0.64,7.6 1.97,10.89 1.26,3.36 3.29,6.52 6.01,9.44 2.66,2.97 6.21,5.88 10.51,8.73 4.31,2.85 9.44,5.83 15.32,9.06 8.99,-5.32 15.96,-10.96 20.84,-17.03 4.87,-6.02 7.28,-12.79 7.28,-20.2zm5.69 119.67c0,-4.56 -0.75,-8.74 -2.34,-12.48 -1.52,-3.8 -3.92,-7.34 -7.22,-10.63 -3.29,-3.36 -7.4,-6.59 -12.41,-9.63 -4.93,-3.1 -10.7,-6.27 -17.28,-9.43 -5.7,3.04 -10.77,6.14 -15.07,9.24 -4.37,3.04 -7.98,6.33 -10.83,9.69 -2.85,3.42 -5,6.96 -6.39,10.76 -1.46,3.74 -2.16,7.79 -2.16,12.1 0,9.62 3.11,16.97 9.38,22.03 6.26,5.07 15.63,7.6 28.04,7.6 12.16,0 21.22,-2.6 27.23,-7.79 6.02,-5.19 9.05,-12.35 9.05,-21.46z"/>
  <path id="3" class="fil1" d="M5552.86 352.77c0,1.2 -0.38,2.28 -1.2,3.23 -0.82,0.95 -2.15,1.71 -3.99,2.34 -1.84,0.57 -4.37,1.08 -7.53,1.4 -3.17,0.31 -7.1,0.44 -11.78,0.44 -4.69,0 -8.61,-0.13 -11.78,-0.44 -3.16,-0.32 -5.63,-0.83 -7.41,-1.4 -1.83,-0.63 -3.1,-1.39 -3.8,-2.34 -0.76,-0.95 -1.14,-2.03 -1.14,-3.23l0 -126.57c0,-4.81 0.07,-9.56 0.19,-14.18 0.13,-4.69 0.32,-8.8 0.57,-12.35l-0.38 0c-1.01,1.71 -2.15,3.74 -3.54,6.02 -1.39,2.28 -2.85,4.68 -4.37,7.22 -1.58,2.53 -3.23,5.12 -4.94,7.78 -1.77,2.66 -3.48,5.26 -5.19,7.73l-83.39 124.54c-1.01,1.33 -2.03,2.53 -3.04,3.48 -1.07,1.02 -2.4,1.78 -4.11,2.35 -1.65,0.57 -3.68,0.95 -6.08,1.14 -2.41,0.19 -5.57,0.25 -9.37,0.25 -4.82,0 -8.74,-0.13 -11.65,-0.44 -2.98,-0.32 -5.32,-0.83 -6.97,-1.4 -1.71,-0.63 -2.85,-1.45 -3.42,-2.4 -0.63,-1.02 -0.95,-2.22 -0.95,-3.55l0 -227.18c0,-1.2 0.38,-2.28 1.21,-3.23 0.82,-0.95 2.15,-1.71 4.05,-2.34 1.9,-0.57 4.43,-1.08 7.53,-1.39 3.04,-0.32 6.97,-0.45 11.65,-0.45 4.75,0 8.74,0.13 11.78,0.45 3.1,0.31 5.57,0.82 7.41,1.39 1.83,0.63 3.16,1.39 3.86,2.34 0.76,0.95 1.14,2.03 1.14,3.23l0 127.33c0,3.93 -0.06,8.17 -0.19,12.6 -0.13,4.5 -0.32,8.8 -0.57,12.98l0.38 0c2.15,-3.67 4.81,-8.17 8.04,-13.36 3.23,-5.19 6.59,-10.26 10.01,-15.19l83.51 -124.55c0.89,-1.2 1.77,-2.28 2.79,-3.23 1.01,-0.95 2.34,-1.71 3.99,-2.34 1.64,-0.57 3.73,-1.01 6.2,-1.27 2.47,-0.25 5.64,-0.38 9.5,-0.38 4.68,0 8.48,0.13 11.39,0.45 2.92,0.31 5.2,0.82 6.97,1.39 1.71,0.63 2.91,1.39 3.61,2.34 0.7,0.95 1.01,2.09 1.01,3.42l0 227.37z"/>
  <path id="4" class="fil1" d="M5911.42 236.97c0,20 -2.34,37.86 -7.03,53.56 -4.74,15.7 -11.84,28.94 -21.27,39.7 -9.5,10.76 -21.21,18.93 -35.27,24.57 -14.05,5.63 -30.39,8.42 -49.13,8.42 -17.03,0 -32.1,-2.28 -45.08,-6.84 -12.98,-4.62 -24,-11.4 -32.93,-20.51 -8.99,-9.06 -15.95,-20.39 -20.83,-33.94 -4.87,-13.55 -7.79,-29.19 -8.8,-46.98l-36.85 0 0 97.82c0,1.2 -0.38,2.28 -1.2,3.23 -0.83,0.95 -2.16,1.71 -3.99,2.34 -1.84,0.57 -4.37,1.08 -7.41,1.4 -3.1,0.31 -7.09,0.44 -11.9,0.44 -4.69,0 -8.61,-0.13 -11.78,-0.44 -3.17,-0.32 -5.7,-0.83 -7.53,-1.4 -1.84,-0.63 -3.17,-1.39 -3.99,-2.34 -0.83,-0.95 -1.21,-2.03 -1.21,-3.23l0 -227.56c0,-1.2 0.38,-2.28 1.21,-3.23 0.82,-0.95 2.15,-1.71 4.11,-2.34 1.9,-0.57 4.37,-1.08 7.47,-1.39 3.11,-0.32 7.03,-0.45 11.72,-0.45 4.81,0 8.8,0.13 11.9,0.45 3.04,0.31 5.57,0.76 7.41,1.39 1.83,0.63 3.16,1.39 3.99,2.34 0.82,0.89 1.2,1.97 1.2,3.23l0 89.85 37.8 0c1.71,-15.32 5.26,-29.19 10.64,-41.6 5.38,-12.41 12.66,-22.99 21.72,-31.6 9.11,-8.67 20.07,-15.38 32.98,-20.07 12.86,-4.68 27.61,-7.03 44.32,-7.03 17.48,0 32.99,2.47 46.61,7.41 13.61,4.94 25.07,12.48 34.44,22.54 9.37,10.07 16.46,22.8 21.34,38.12 4.87,15.32 7.34,33.37 7.34,54.14zm-51.28 2.46c0,-12.47 -1.02,-23.93 -3.04,-34.31 -2.09,-10.39 -5.45,-19.31 -10.07,-26.79 -4.62,-7.53 -10.83,-13.29 -18.49,-17.47 -7.66,-4.12 -17.22,-6.21 -28.62,-6.21 -11.9,0 -21.65,2.28 -29.38,6.78 -7.66,4.49 -13.74,10.57 -18.3,18.11 -4.49,7.53 -7.66,16.27 -9.43,26.21 -1.84,10 -2.72,20.51 -2.72,31.66 0,8.17 0.38,15.95 1.14,23.3 0.69,7.34 2.02,14.18 3.86,20.51 1.9,6.27 4.31,12.03 7.28,17.23 2.98,5.19 6.65,9.62 11.14,13.17 4.44,3.6 9.69,6.39 15.77,8.35 6.08,1.97 13.11,2.98 21.02,2.98 11.53,0 21.09,-2.15 28.68,-6.52 7.67,-4.31 13.74,-10.26 18.37,-17.79 4.55,-7.54 7.85,-16.4 9.81,-26.53 1.96,-10.13 2.98,-21.02 2.98,-32.68z"/>
  <path id="5" class="fil1" d="M6128.79 352.77c0,1.2 -0.38,2.28 -1.14,3.23 -0.69,0.95 -2.02,1.71 -3.86,2.34 -1.83,0.57 -4.37,1.08 -7.53,1.4 -3.17,0.31 -7.09,0.44 -11.78,0.44 -4.81,0 -8.8,-0.13 -11.9,-0.44 -3.04,-0.32 -5.58,-0.83 -7.41,-1.4 -1.84,-0.63 -3.17,-1.39 -3.86,-2.34 -0.76,-0.95 -1.14,-2.03 -1.14,-3.23l0 -193.94 -51.29 0c-3.48,28.37 -7.03,53.13 -10.64,74.34 -3.54,21.14 -7.4,39.32 -11.52,54.39 -4.05,15.13 -8.61,27.54 -13.49,37.16 -4.87,9.69 -10.51,17.35 -16.71,22.99 -6.27,5.63 -13.36,9.49 -21.28,11.58 -7.85,2.09 -16.84,3.17 -26.84,3.17 -1.9,0 -3.49,-0.25 -4.88,-0.76 -1.33,-0.44 -2.4,-1.39 -3.23,-2.79 -0.82,-1.33 -1.39,-3.23 -1.77,-5.7 -0.38,-2.46 -0.57,-5.63 -0.57,-9.43 0,-5.32 0.13,-9.62 0.38,-12.92 0.25,-3.23 0.7,-5.76 1.27,-7.53 0.63,-1.84 1.45,-3.04 2.47,-3.61 0.94,-0.63 2.15,-0.95 3.54,-0.95 3.8,0 7.54,-0.76 11.02,-2.34 3.54,-1.52 6.96,-4.56 10.26,-9.18 3.29,-4.56 6.45,-11.02 9.49,-19.31 3.04,-8.3 6.02,-19.19 8.93,-32.8 2.91,-13.55 5.83,-30.08 8.74,-49.58 2.91,-19.5 5.89,-42.68 8.86,-69.52 0.76,-6.33 2.22,-10.77 4.43,-13.3 2.22,-2.53 5.51,-3.8 9.82,-3.8l117.7 0c4.5,0 7.92,1.27 10.32,3.8 2.41,2.53 3.61,6.4 3.61,11.59l0 218.44z"/>
  <path id="6" class="fil1" d="M6346.79 352.77c0,1.2 -0.38,2.28 -1.14,3.23 -0.7,0.95 -1.96,1.71 -3.8,2.34 -1.77,0.57 -4.24,1.08 -7.41,1.4 -3.16,0.31 -7.09,0.44 -11.77,0.44 -4.82,0 -8.81,-0.13 -11.91,-0.44 -3.1,-0.32 -5.57,-0.83 -7.47,-1.4 -1.96,-0.63 -3.29,-1.39 -3.99,-2.34 -0.76,-0.95 -1.14,-2.03 -1.14,-3.23l0 -89.84 -18.04 0c-7.41,0 -13.11,0.76 -16.97,2.21 -3.93,1.52 -7.41,3.8 -10.45,6.9 -3.04,3.04 -5.7,6.97 -8.1,11.59 -2.35,4.62 -4.63,10.13 -6.84,16.4l-18.24 51.98c-0.63,1.46 -1.39,2.72 -2.4,3.8 -1.02,1.08 -2.54,1.9 -4.56,2.6 -2.03,0.69 -4.69,1.14 -8.04,1.39 -3.36,0.25 -7.6,0.38 -12.79,0.38 -5.7,0 -10.13,-0.19 -13.43,-0.57 -3.29,-0.38 -5.76,-0.89 -7.53,-1.58 -1.71,-0.7 -2.79,-1.46 -3.29,-2.28 -0.51,-0.89 -0.76,-1.84 -0.76,-2.79 0,-1.26 0.19,-2.78 0.63,-4.56 0.44,-1.83 1.33,-4.49 2.72,-8.1l17.98 -47.17c2.35,-6.14 4.75,-11.53 7.22,-16.15 2.47,-4.56 5.19,-8.67 8.23,-12.35 3.04,-3.6 6.27,-6.71 9.63,-9.18 3.42,-2.47 7.15,-4.43 11.21,-5.95 -7.67,-2.09 -14.44,-4.81 -20.33,-8.23 -5.89,-3.42 -10.83,-7.53 -14.88,-12.41 -3.99,-4.87 -7.03,-10.51 -9.12,-16.9 -2.02,-6.34 -3.04,-13.49 -3.04,-21.41 0,-10.89 1.9,-20.76 5.64,-29.56 3.8,-8.87 9.43,-16.4 16.84,-22.55 7.41,-6.2 16.72,-11.01 27.8,-14.37 11.08,-3.42 26.53,-5.13 46.35,-5.13l58.88 0c3.99,0 7.34,1.21 10.13,3.61 2.79,2.41 4.18,6.33 4.18,11.78l0 218.44zm-48.63 -196.22l-25.2 0c-10.51,0 -18.42,0.83 -23.68,2.41 -5.19,1.58 -9.43,3.92 -12.72,6.96 -3.3,3.04 -5.7,6.65 -7.22,10.96 -1.46,4.24 -2.22,8.99 -2.22,14.18 0,5.07 0.82,9.69 2.41,13.99 1.64,4.25 4.11,7.98 7.47,11.08 3.35,3.17 7.66,5.64 12.85,7.35 5.26,1.71 12.73,2.6 22.42,2.6l25.89 0 0 -69.53z"/>
  <path id="7" class="fil1" d="M6636.34 339.16c0,3.61 -0.12,6.71 -0.44,9.24 -0.32,2.54 -0.82,4.56 -1.39,6.21 -0.64,1.58 -1.46,2.72 -2.41,3.42 -1.01,0.69 -2.15,1.01 -3.35,1.01l-138.1 0c-2.72,0 -5.06,-0.25 -7.03,-0.76 -1.96,-0.51 -3.61,-1.46 -4.81,-2.85 -1.26,-1.46 -2.15,-3.48 -2.72,-6.2 -0.57,-2.73 -0.82,-6.27 -0.82,-10.58 0,-4.11 0.19,-7.6 0.57,-10.51 0.38,-2.91 1.01,-5.51 2.02,-7.79 1.01,-2.28 2.28,-4.49 3.8,-6.64 1.58,-2.22 3.55,-4.56 6.08,-7.16l41.6 -44.45c8.29,-8.67 15,-16.52 20.07,-23.68 5.06,-7.09 9.05,-13.61 11.9,-19.5 2.85,-5.89 4.75,-11.27 5.83,-16.21 1.07,-4.94 1.58,-9.69 1.58,-14.12 0,-4.05 -0.63,-7.91 -1.96,-11.59 -1.27,-3.6 -3.23,-6.77 -5.76,-9.49 -2.54,-2.73 -5.7,-4.81 -9.56,-6.4 -3.8,-1.52 -8.3,-2.28 -13.55,-2.28 -7.29,0 -13.74,0.95 -19.38,2.79 -5.63,1.83 -10.57,3.92 -14.82,6.2 -4.3,2.35 -7.85,4.44 -10.7,6.34 -2.84,1.96 -5.06,2.91 -6.64,2.91 -1.14,0 -2.09,-0.38 -2.92,-1.14 -0.82,-0.7 -1.45,-1.96 -1.96,-3.67 -0.44,-1.78 -0.89,-4.06 -1.2,-7.03 -0.32,-2.91 -0.45,-6.46 -0.45,-10.64 0,-2.85 0.07,-5.25 0.26,-7.22 0.19,-1.9 0.5,-3.54 0.88,-5 0.32,-1.39 0.83,-2.66 1.46,-3.74 0.63,-1.01 1.71,-2.27 3.23,-3.79 1.58,-1.46 4.43,-3.36 8.55,-5.64 4.18,-2.34 9.24,-4.56 15.32,-6.71 6.08,-2.15 12.73,-3.99 20.07,-5.51 7.28,-1.46 14.88,-2.22 22.8,-2.22 12.53,0 23.42,1.59 32.79,4.75 9.31,3.17 17.1,7.54 23.3,13.17 6.21,5.64 10.77,12.29 13.81,20.01 3.04,7.73 4.56,16.02 4.56,24.95 0,7.79 -0.76,15.45 -2.22,22.98 -1.52,7.6 -4.62,15.7 -9.31,24.44 -4.68,8.68 -11.33,18.36 -19.88,28.94 -8.55,10.57 -19.88,22.85 -34,36.85l-28.05 28.68 94.6 0c1.26,0 2.4,0.38 3.41,1.14 1.08,0.7 1.97,1.84 2.73,3.42 0.76,1.52 1.26,3.54 1.64,6.08 0.38,2.53 0.57,5.57 0.57,8.99z"/>
  <path id="8" class="fil1" d="M6833.83 238.04c0,19.19 -1.52,36.47 -4.62,51.92 -3.1,15.45 -8.17,28.62 -15.13,39.51 -7.03,10.89 -16.09,19.25 -27.29,25.01 -11.21,5.83 -24.95,8.74 -41.16,8.74 -16.46,0 -30.07,-2.79 -40.84,-8.42 -10.76,-5.64 -19.31,-13.74 -25.58,-24.32 -6.33,-10.57 -10.76,-23.49 -13.29,-38.75 -2.54,-15.25 -3.8,-32.54 -3.8,-51.79 0,-19.06 1.58,-36.34 4.75,-51.85 3.16,-15.52 8.23,-28.69 15.19,-39.58 7.03,-10.89 16.08,-19.25 27.29,-25.01 11.21,-5.82 24.88,-8.74 40.97,-8.74 16.46,0 30.07,2.79 40.9,8.43 10.83,5.63 19.44,13.74 25.71,24.31 6.33,10.57 10.7,23.49 13.17,38.75 2.47,15.26 3.73,32.54 3.73,51.79zm-49.01 2.53c0,-11.39 -0.31,-21.4 -0.94,-30.07 -0.64,-8.74 -1.59,-16.27 -2.85,-22.73 -1.33,-6.4 -2.98,-11.84 -4.88,-16.27 -1.9,-4.44 -4.24,-8.05 -7.03,-10.64 -2.72,-2.66 -5.82,-4.56 -9.31,-5.7 -3.48,-1.08 -7.34,-1.65 -11.58,-1.65 -7.28,0 -13.36,1.78 -18.17,5.26 -4.82,3.55 -8.55,8.8 -11.4,15.89 -2.79,7.03 -4.75,15.77 -5.83,26.28 -1.14,10.51 -1.71,22.73 -1.71,36.66 0,17.03 0.7,31.15 2.03,42.29 1.39,11.21 3.55,20.08 6.46,26.72 2.91,6.59 6.71,11.21 11.27,13.87 4.62,2.66 10.13,3.99 16.65,3.99 4.81,0 9.12,-0.76 12.85,-2.34 3.74,-1.52 6.97,-3.87 9.82,-6.91 2.78,-3.1 5.13,-6.96 6.96,-11.71 1.9,-4.68 3.42,-10.13 4.56,-16.27 1.21,-6.21 2.03,-13.17 2.47,-20.96 0.44,-7.72 0.63,-16.33 0.63,-25.71z"/>
  <path id="9" class="fil1" d="M7021.44 339.16c0,3.61 -0.12,6.71 -0.44,9.24 -0.32,2.54 -0.82,4.56 -1.39,6.21 -0.64,1.58 -1.46,2.72 -2.41,3.42 -1.01,0.69 -2.15,1.01 -3.35,1.01l-138.1 0c-2.72,0 -5.06,-0.25 -7.03,-0.76 -1.96,-0.51 -3.61,-1.46 -4.81,-2.85 -1.26,-1.46 -2.15,-3.48 -2.72,-6.2 -0.57,-2.73 -0.82,-6.27 -0.82,-10.58 0,-4.11 0.19,-7.6 0.57,-10.51 0.38,-2.91 1.01,-5.51 2.02,-7.79 1.01,-2.28 2.28,-4.49 3.8,-6.64 1.58,-2.22 3.55,-4.56 6.08,-7.16l41.6 -44.45c8.29,-8.67 15,-16.52 20.07,-23.68 5.06,-7.09 9.05,-13.61 11.9,-19.5 2.85,-5.89 4.75,-11.27 5.83,-16.21 1.07,-4.94 1.58,-9.69 1.58,-14.12 0,-4.05 -0.63,-7.91 -1.96,-11.59 -1.27,-3.6 -3.23,-6.77 -5.76,-9.49 -2.54,-2.73 -5.7,-4.81 -9.56,-6.4 -3.8,-1.52 -8.3,-2.28 -13.55,-2.28 -7.29,0 -13.74,0.95 -19.38,2.79 -5.63,1.83 -10.57,3.92 -14.82,6.2 -4.3,2.35 -7.85,4.44 -10.7,6.34 -2.84,1.96 -5.06,2.91 -6.64,2.91 -1.14,0 -2.09,-0.38 -2.92,-1.14 -0.82,-0.7 -1.45,-1.96 -1.96,-3.67 -0.44,-1.78 -0.89,-4.06 -1.2,-7.03 -0.32,-2.91 -0.45,-6.46 -0.45,-10.64 0,-2.85 0.07,-5.25 0.26,-7.22 0.19,-1.9 0.5,-3.54 0.88,-5 0.32,-1.39 0.83,-2.66 1.46,-3.74 0.63,-1.01 1.71,-2.27 3.23,-3.79 1.58,-1.46 4.43,-3.36 8.55,-5.64 4.18,-2.34 9.24,-4.56 15.32,-6.71 6.08,-2.15 12.73,-3.99 20.07,-5.51 7.28,-1.46 14.88,-2.22 22.8,-2.22 12.53,0 23.42,1.59 32.79,4.75 9.31,3.17 17.1,7.54 23.3,13.17 6.21,5.64 10.77,12.29 13.81,20.01 3.04,7.73 4.56,16.02 4.56,24.95 0,7.79 -0.76,15.45 -2.22,22.98 -1.52,7.6 -4.62,15.7 -9.31,24.44 -4.68,8.68 -11.33,18.36 -19.88,28.94 -8.55,10.57 -19.88,22.85 -34,36.85l-28.05 28.68 94.6 0c1.26,0 2.4,0.38 3.41,1.14 1.08,0.7 1.97,1.84 2.73,3.42 0.76,1.52 1.26,3.54 1.64,6.08 0.38,2.53 0.57,5.57 0.57,8.99z"/>
  <path id="10" class="fil1" d="M7211.71 340.49c0,3.48 -0.19,6.39 -0.57,8.8 -0.38,2.41 -0.88,4.37 -1.58,5.76 -0.63,1.46 -1.46,2.47 -2.28,3.04 -0.88,0.63 -1.9,0.95 -2.97,0.95l-132.78 0c-0.95,0 -1.9,-0.32 -2.79,-0.95 -0.82,-0.57 -1.58,-1.58 -2.27,-3.04 -0.7,-1.39 -1.21,-3.35 -1.59,-5.76 -0.38,-2.41 -0.57,-5.32 -0.57,-8.8 0,-3.55 0.13,-6.52 0.45,-8.99 0.31,-2.41 0.82,-4.31 1.52,-5.83 0.69,-1.45 1.45,-2.53 2.34,-3.23 0.82,-0.69 1.83,-1.01 2.91,-1.01l44.83 0 0 -156.14 -38.56 21.28c-2.79,1.33 -5.13,2.21 -6.9,2.53 -1.84,0.25 -3.23,-0.07 -4.31,-1.14 -1.01,-1.08 -1.71,-2.85 -2.09,-5.45 -0.38,-2.59 -0.57,-6.27 -0.57,-10.95 0,-2.98 0.07,-5.45 0.19,-7.35 0.13,-1.89 0.45,-3.54 0.95,-4.87 0.45,-1.39 1.14,-2.47 2.03,-3.36 0.82,-0.88 2.02,-1.77 3.48,-2.78l51.54 -33.37c0.63,-0.51 1.39,-0.89 2.28,-1.2 0.95,-0.32 2.15,-0.57 3.67,-0.76 1.46,-0.19 3.42,-0.32 5.83,-0.38 2.4,-0.07 5.51,-0.07 9.37,-0.07 4.68,0 8.48,0.07 11.4,0.26 2.91,0.19 5.12,0.5 6.58,0.95 1.52,0.44 2.47,1.01 2.98,1.77 0.5,0.76 0.76,1.65 0.76,2.79l0 198.24 39.25 0c1.14,0 2.16,0.32 3.11,1.01 0.94,0.7 1.7,1.78 2.4,3.23 0.7,1.52 1.2,3.42 1.52,5.83 0.32,2.47 0.44,5.44 0.44,8.99z"/>
  <polygon class="fil1" points="4754.37,777.44 4754.37,547.63 4924.48,547.63 4924.48,586.47 4800.91,586.47 4800.91,637.5 4915.81,637.5 4915.81,676.34 4800.91,676.34 4800.91,738.6 4928.97,738.6 4928.97,777.44 "/>
  <path id="1" class="fil1" d="M4969.09 547.63l46.54 0 0 97.9c10.33,-1.07 17.33,-3.7 20.97,-8.03 3.64,-4.28 9.31,-16.21 16.9,-35.79 9.58,-24.87 19.26,-40.38 28.94,-46.43 9.63,-6.04 25.09,-9.09 46.49,-9.09 1.07,0 3.32,-0.06 6.74,-0.16l0 34.34 -6.58 -0.16c-9.52,0 -16.48,1.18 -20.86,3.53 -4.39,2.35 -7.92,5.94 -10.65,10.75 -2.73,4.82 -6.74,14.71 -12.03,29.69 -2.84,7.97 -5.89,14.61 -9.2,19.95 -3.27,5.35 -9.1,10.38 -17.44,15.09 10.32,2.89 18.83,8.83 25.57,17.71 6.74,8.88 14.12,21.39 22.14,37.6l31.3 62.91 -54.57 0 -27.55 -59.16c-0.42,-0.86 -1.33,-2.46 -2.67,-4.87 -0.53,-0.8 -2.46,-4.44 -5.78,-10.81 -5.88,-11.34 -10.7,-18.4 -14.44,-21.23 -3.8,-2.84 -9.52,-4.28 -17.28,-4.39l0 100.46 -46.54 0 0 -229.81z"/>
  <path id="2" class="fil1" d="M5371.36 777.44l-50.12 0 -19.85 -52.32 -92.17 0 -19.1 52.32 -49.21 0 89.23 -229.81 49.16 0 92.06 229.81zm-85.06 -91.15l-31.93 -85.06 -31.03 85.06 62.96 0z"/>
  <polygon id="3" class="fil1" points="5431.81,777.44 5431.81,586.47 5363.77,586.47 5363.77,547.63 5546.08,547.63 5546.08,586.47 5478.35,586.47 5478.35,777.44 "/>
  <polygon id="4" class="fil1" points="5576.19,777.44 5576.19,547.63 5746.3,547.63 5746.3,586.47 5622.73,586.47 5622.73,637.5 5737.63,637.5 5737.63,676.34 5622.73,676.34 5622.73,738.6 5750.79,738.6 5750.79,777.44 "/>
  <path id="5" class="fil1" d="M5790.27 777.44l0 -229.81 74.41 0c28.19,0 46.54,1.13 55.1,3.43 13.16,3.47 24.18,10.96 33.06,22.52 8.88,11.55 13.32,26.48 13.32,44.77 0,14.12 -2.57,25.95 -7.65,35.57 -5.14,9.63 -11.61,17.18 -19.47,22.69 -7.87,5.45 -15.89,9.09 -24.02,10.85 -11.08,2.2 -27.07,3.32 -48.04,3.32l-30.17 0 0 86.66 -46.54 0zm46.54 -190.97l0 65.47 25.3 0c18.24,0 30.39,-1.23 36.54,-3.63 6.15,-2.41 10.96,-6.15 14.44,-11.34 3.48,-5.14 5.24,-11.08 5.24,-17.92 0,-8.4 -2.46,-15.3 -7.33,-20.76 -4.92,-5.46 -11.07,-8.88 -18.61,-10.27 -5.51,-1.02 -16.58,-1.55 -33.27,-1.55l-22.31 0z"/>
  <polygon id="6" class="fil1" points="6004.99,547.63 6048.32,547.63 6048.32,700.62 6141.4,547.63 6187.62,547.63 6187.62,777.44 6144.29,777.44 6144.29,626.91 6051.21,777.44 6004.99,777.44 "/>
  <polygon id="7" class="fil1" points="6235.07,777.44 6235.07,547.63 6281.61,547.63 6281.61,638.14 6372.12,638.14 6372.12,547.63 6418.66,547.63 6418.66,777.44 6372.12,777.44 6372.12,676.98 6281.61,676.98 6281.61,777.44 "/>
  <path id="8" class="fil1" d="M6467.82 547.63l171.72 0 0 38.84 -125.18 0 0 53.28 62 0c17.07,0 31.29,2.08 42.53,6.26 11.29,4.17 20.91,11.87 28.88,23.16 7.98,11.23 11.99,24.45 11.99,39.58 0,15.52 -4.01,28.84 -12.09,39.91 -8.03,11.02 -17.17,18.62 -27.5,22.68 -10.27,4.07 -24.93,6.1 -43.92,6.1l-108.43 0 0 -229.81zm46.54 190.97l45.1 0c14.39,0 24.55,-0.69 30.38,-2.08 5.83,-1.39 10.97,-4.55 15.3,-9.52 4.33,-4.93 6.47,-11.02 6.47,-18.25 0,-10.53 -3.79,-18.18 -11.34,-23 -7.59,-4.76 -20.49,-7.17 -38.78,-7.17l-47.13 0 0 60.02z"/>
  <path id="9" class="fil1" d="M6666.02 547.63l52.26 0 53.5 118.97 45.79 -118.97 48.41 0 -77.73 174.66c-8.45,18.94 -17.06,33.32 -25.84,43.22 -8.77,9.9 -20.06,14.82 -33.96,14.82 -13.7,0 -24.4,-0.91 -32.1,-2.68l0 -34.55c6.58,0.43 12.52,0.64 17.81,0.64 10.7,0 18.41,-1.98 23.06,-5.89 4.6,-3.95 9.09,-12.46 13.32,-25.46l-84.52 -164.76z"/>
  <path id="10" class="fil1" d="M6889.25 777.44l0 -229.81 74.41 0c28.19,0 46.54,1.13 55.1,3.43 13.16,3.47 24.18,10.96 33.06,22.52 8.88,11.55 13.32,26.48 13.32,44.77 0,14.12 -2.57,25.95 -7.65,35.57 -5.14,9.63 -11.61,17.18 -19.47,22.69 -7.87,5.45 -15.89,9.09 -24.02,10.85 -11.08,2.2 -27.07,3.32 -48.04,3.32l-30.17 0 0 86.66 -46.54 0zm46.54 -190.97l0 65.47 25.3 0c18.24,0 30.39,-1.23 36.54,-3.63 6.15,-2.41 10.96,-6.15 14.44,-11.34 3.48,-5.14 5.24,-11.08 5.24,-17.92 0,-8.4 -2.46,-15.3 -7.33,-20.76 -4.92,-5.46 -11.07,-8.88 -18.61,-10.27 -5.51,-1.02 -16.58,-1.55 -33.27,-1.55l-22.31 0z"/>
  <polygon id="11" class="fil1" points="7105.58,547.63 7261.24,547.63 7261.24,586.47 7152.12,586.47 7152.12,777.44 7105.58,777.44 "/>
 </g>
</svg>
