<?xml version="1.0" encoding="UTF-8"?>
<!DOCTYPE svg PUBLIC "-//W3C//DTD SVG 1.1//EN" "http://www.w3.org/Graphics/SVG/1.1/DTD/svg11.dtd">
<!-- Creator: CorelDRAW 2017 -->
<svg xmlns="http://www.w3.org/2000/svg" xml:space="preserve" width="37.4226mm" height="1.7778mm" version="1.1" style="shape-rendering:geometricPrecision; text-rendering:geometricPrecision; image-rendering:optimizeQuality; fill-rule:evenodd; clip-rule:evenodd"
viewBox="0 0 3742.26 177.78"
 xmlns:xlink="http://www.w3.org/1999/xlink">
 <defs>
  <style type="text/css">
   <![CDATA[
    .str0 {stroke:#FFD600;stroke-width:20;stroke-miterlimit:22.9256}
    .fil0 {fill:none}
    .fil1 {fill:#2B2A29;fill-rule:nonzero}
   ]]>
  </style>
 </defs>
 <g id="Слой_x0020_1">
  <metadata id="CorelCorpID_0Corel-Layer"/>
  <line class="fil0 str0" x1="2659.81" y1="91.03" x2="6.63" y2= "91.03" />
  <polyline class="fil0 str0" points="2693.76,21.15 2659.81,21.15 2659.81,156.63 2693.76,156.63 "/>
  <polyline class="fil0 str0" points="3695.09,21.15 3729.03,21.15 3729.03,156.63 3695.09,156.63 "/>
  <path class="fil1" d="M2879.49 50.17l-33.07 86.88 -28.58 0 33.14 -87.17 -31.22 0 0 -14.19 59.73 0 0 14.48zm38.74 50.82l-34.26 0 0 -11.44 34.26 0 0 11.44zm17.97 -18.67c-8.86,-2.32 -13.28,-8.62 -13.28,-18.95l0 -10.59c0,-11.97 9.84,-17.96 29.5,-17.96 7.87,0 14.72,1.45 20.61,4.32 5.85,2.87 8.78,7.41 8.78,13.64l0 10.59c0,10.33 -4.42,16.63 -13.29,18.95 9.33,1.88 13.98,7.06 13.98,15.58l0 20.83c0,12.79 -10.08,19.18 -30.25,19.18 -20.01,0 -30.02,-6.39 -30.02,-19.18l0 -20.83c0,-8.56 4.65,-13.75 13.97,-15.58zm20.47 -9.42l0 -21.14c0,-2.02 -1.44,-3.04 -4.28,-3.04 -2.9,0 -4.33,1.02 -4.33,3.04l0 21.14c0,2.03 1.43,3.04 4.33,3.04 2.84,0 4.28,-1.01 4.28,-3.04zm0 47.81l0 -29.44c0,-2 -1.44,-3.02 -4.28,-3.02 -2.9,0 -4.33,1.02 -4.33,3.02l0 29.44c0,2 1.43,3.02 4.33,3.02 2.84,0 4.28,-1.02 4.28,-3.02zm61.85 16.34l0 -101.36 22.04 0 0 46.21 16.85 -46.21 28.44 0 0 101.36 -22.04 0 0 -54.01 -18.11 54.01 -27.18 0zm109.33 -47.06l-9.65 0 0 47.06 -26.52 0 0 -101.36 26.52 0 0 39.82 9.65 0c0,-14.26 0.34,-23.29 1,-27.08 0.69,-3.79 3.19,-7 7.52,-9.65 4.36,-2.63 11.68,-3.96 21.99,-3.96 19.95,0 29.93,6.54 29.93,19.65l0 65.44c0,12.29 -10.04,18.44 -30.1,18.44 -20.24,0 -30.34,-6.1 -30.34,-18.29l0 -30.07zm34.61 31.13l0 -69.36c0,-2.02 -1.43,-3.04 -4.27,-3.04 -3.02,0 -4.51,1.02 -4.51,3.04l0 69.36c0,2.03 1.49,3.04 4.51,3.04 2.84,0 4.27,-1.01 4.27,-3.04zm101.64 15.93l-25.84 0 0 -88.18 -9.13 0 0 76.33c0,8.66 -6.65,13.01 -20,13.01 -5.82,0 -11.05,-0.39 -15.64,-1.14l0 -14.26c1.81,0.6 3.85,0.92 6.14,0.92 1.95,0 3.25,-0.39 3.82,-1.14 0.6,-0.75 0.89,-2.61 0.89,-5.57l0 -81.33 59.76 0 0 101.36zm4.64 0.14l26.38 0c2.84,-2.87 4.28,-11.03 4.28,-24.47l0 -0.14 -0.15 -6.09c-0.14,-8.44 -0.2,-12.74 -0.2,-12.93 0,-3.45 2.7,-5.17 8.1,-5.17l0 48.66 26.52 0 0 -101.36 -32.69 0c-7.46,0 -13.95,1.45 -19.46,4.32 -5.54,2.87 -8.3,7.41 -8.3,13.61l0 12.17c0,7.86 5.46,13.17 16.39,15.95 -10.93,2.17 -16.39,7.77 -16.39,16.77l0.34 11.1c0,16.21 -1.6,25.41 -4.82,27.58zm30.31 -66.48l0 -16.68c0,-3.55 2.7,-5.31 8.1,-5.31l0 27.37c-5.4,0 -8.1,-1.79 -8.1,-5.38zm130.54 66.34l-60.45 0 0 -13.47 29.74 -45.9c3.24,-4.97 4.88,-11.8 4.88,-20.44 0,-4.51 -1.78,-6.78 -5.34,-6.78 -3.68,0 -5.51,1.4 -5.51,4.22l0 17.35 -23.77 0 0 -17.63c0,-13.06 9.99,-19.58 29.94,-19.58 12.31,0 20.49,2.39 24.51,7.17 3.99,4.78 6,12.62 6,23.55 0,4.3 -0.86,7.82 -2.61,10.6l-29.77 47.88 32.38 0 0 13.03zm4.82 -17.35l0 -65.19c0,-13.12 10.31,-19.69 30.94,-19.69 20.24,0 30.37,6.52 30.37,19.55l0 65.18c0,5.84 -2.84,10.35 -8.55,13.56 -5.69,3.21 -13.04,4.8 -21.99,4.8 -9.21,0 -16.65,-1.56 -22.3,-4.72 -5.65,-3.17 -8.47,-7.65 -8.47,-13.49zm34.79 0.99l0 -68.93c0,-2.02 -1.35,-3.04 -4.02,-3.04 -2.84,0 -4.25,1.02 -4.25,3.04l0 68.93c0,2.02 1.41,3.04 4.25,3.04 2.67,0 4.02,-1.02 4.02,-3.04zm91.99 16.36l-60.45 0 0 -13.47 29.74 -45.9c3.24,-4.97 4.88,-11.8 4.88,-20.44 0,-4.51 -1.78,-6.78 -5.34,-6.78 -3.68,0 -5.51,1.4 -5.51,4.22l0 17.35 -23.77 0 0 -17.63c0,-13.06 9.99,-19.58 29.94,-19.58 12.31,0 20.49,2.39 24.51,7.17 3.99,4.78 6,12.62 6,23.55 0,4.3 -0.86,7.82 -2.61,10.6l-29.77 47.88 32.38 0 0 13.03zm41.16 0l-26.52 0 0 -74.28 -9.99 0 0 -14.77c3.82,0 7.03,-1.4 9.67,-4.18 2.61,-2.77 3.93,-5.5 3.93,-8.13l22.91 0 0 101.36z"/>
 </g>
</svg>
