<?xml version="1.0" encoding="UTF-8"?>
<svg xmlns="http://www.w3.org/2000/svg" width="70" height="38" viewBox="0 0 70 38" fill="none"> <rect width="70" height="23" fill="#FFD600"/> <path d="M8.03906 27.5518V26.1748H9.37207V27.5518C10.7393 27.625 11.8184 28.0376 12.6094 28.7896C13.4004 29.5366 13.7959 30.4668 13.7959 31.5801C13.7959 32.6689 13.4126 33.5942 12.646 34.356C11.8794 35.1177 10.7881 35.5376 9.37207 35.6157V37H8.03906V35.6157C6.76953 35.5669 5.7124 35.1812 4.86768 34.4585C4.02295 33.731 3.60059 32.7715 3.60059 31.5801C3.60059 30.3838 4.02051 29.4268 4.86035 28.709C5.70508 27.9912 6.76465 27.6055 8.03906 27.5518ZM9.37207 28.7676V34.3926C10.29 34.3486 11.0127 34.0825 11.54 33.5942C12.0674 33.106 12.3311 32.4346 12.3311 31.5801C12.3311 30.7402 12.0723 30.0762 11.5547 29.5879C11.0371 29.0947 10.3096 28.8213 9.37207 28.7676ZM8.03906 28.7749C7.15527 28.814 6.43994 29.0752 5.89307 29.5586C5.34619 30.042 5.07275 30.7158 5.07275 31.5801C5.07275 32.4346 5.34131 33.106 5.87842 33.5942C6.42041 34.0825 7.14062 34.3462 8.03906 34.3853V28.7749Z" fill="#2B2A29"/> <path d="M15.1362 31.7705C15.1362 29.9883 15.6147 28.5942 16.5718 27.5884C17.5288 26.5776 18.7642 26.0723 20.2778 26.0723C21.269 26.0723 22.1626 26.3091 22.9585 26.7827C23.7544 27.2563 24.3599 27.918 24.7749 28.7676C25.1948 29.6123 25.4048 30.5718 25.4048 31.646C25.4048 32.7349 25.1851 33.709 24.7456 34.5684C24.3062 35.4277 23.6836 36.0796 22.8779 36.5239C22.0723 36.9634 21.2031 37.1831 20.2705 37.1831C19.2598 37.1831 18.3564 36.939 17.5605 36.4507C16.7646 35.9624 16.1616 35.2959 15.7515 34.4512C15.3413 33.6064 15.1362 32.7129 15.1362 31.7705ZM16.6011 31.7925C16.6011 33.0864 16.9478 34.1069 17.6411 34.854C18.3394 35.5962 19.2134 35.9673 20.2632 35.9673C21.3325 35.9673 22.2114 35.5913 22.8999 34.8394C23.5933 34.0874 23.9399 33.0205 23.9399 31.6387C23.9399 30.7646 23.791 30.0029 23.4932 29.3535C23.2002 28.6992 22.7681 28.1938 22.1968 27.8374C21.6304 27.4761 20.9932 27.2954 20.2852 27.2954C19.2793 27.2954 18.4126 27.6421 17.6851 28.3354C16.9624 29.0239 16.6011 30.1763 16.6011 31.7925Z" fill="#2B2A29"/> <path d="M27.2432 37V26.2627H31.2935C32.0063 26.2627 32.5508 26.2969 32.9268 26.3652C33.4541 26.4531 33.896 26.6216 34.2524 26.8706C34.6089 27.1147 34.8945 27.459 35.1094 27.9033C35.3291 28.3477 35.439 28.8359 35.439 29.3682C35.439 30.2812 35.1484 31.0552 34.5674 31.6899C33.9863 32.3198 32.9365 32.6348 31.418 32.6348H28.6641V37H27.2432ZM28.6641 31.3677H31.4399C32.3579 31.3677 33.0098 31.1968 33.3955 30.855C33.7812 30.5132 33.9741 30.0322 33.9741 29.4121C33.9741 28.9629 33.8594 28.5796 33.6299 28.2622C33.4053 27.9399 33.1074 27.7275 32.7363 27.625C32.4971 27.5615 32.0552 27.5298 31.4106 27.5298H28.6641V31.3677Z" fill="#2B2A29"/> <path d="M37.0283 37V26.2627H39.167L41.7085 33.8652C41.9429 34.5732 42.1138 35.103 42.2212 35.4546C42.3433 35.064 42.5337 34.4902 42.7925 33.7334L45.3633 26.2627H47.2749V37H45.9053V28.0132L42.7852 37H41.5034L38.3979 27.8594V37H37.0283Z" fill="#2B2A29"/> <path d="M48.3882 37L52.5117 26.2627H54.0425L58.437 37H56.8184L55.5659 33.748H51.0762L49.897 37H48.3882ZM51.4863 32.5908H55.1265L54.0059 29.6172C53.6641 28.7139 53.4102 27.9717 53.2441 27.3906C53.1074 28.0791 52.9146 28.7627 52.6655 29.4414L51.4863 32.5908Z" fill="#2B2A29"/> <path d="M61.1323 37V27.5298H57.5947V26.2627H66.1055V27.5298H62.5532V37H61.1323Z" fill="#2B2A29"/> <path d="M7.84799 3.19999H3.95999V20H6.59999V13.688H7.84799C10.488 13.688 11.784 12.224 11.784 9.536V7.352C11.784 4.66399 10.488 3.19999 7.84799 3.19999ZM7.84799 5.6C8.68799 5.6 9.14399 5.98399 9.14399 7.18399V9.704C9.14399 10.904 8.68799 11.288 7.84799 11.288H6.59999V5.6H7.84799Z" fill="#2B2A29"/> <path d="M21.3321 20C21.0681 19.376 21.0441 18.776 21.0441 17.96V15.368C21.0441 13.616 20.6121 12.344 19.2921 11.792C20.4681 11.24 21.0201 10.112 21.0201 8.384V7.06399C21.0201 4.472 19.8441 3.19999 17.1081 3.19999H13.1241V20H15.7641V13.16H16.6761C17.8761 13.16 18.4041 13.736 18.4041 15.296V17.936C18.4041 19.304 18.5001 19.568 18.6441 20H21.3321ZM17.0361 5.6C17.9721 5.6 18.3801 6.128 18.3801 7.328V8.98399C18.3801 10.328 17.7801 10.76 16.7961 10.76H15.7641V5.6H17.0361Z" fill="#2B2A29"/> <path d="M25.2043 7.06399C25.2043 5.86399 25.7323 5.40799 26.5723 5.40799C27.4123 5.40799 27.9403 5.86399 27.9403 7.06399V16.136C27.9403 17.336 27.4123 17.792 26.5723 17.792C25.7323 17.792 25.2043 17.336 25.2043 16.136V7.06399ZM22.5643 15.968C22.5643 18.656 23.9803 20.192 26.5723 20.192C29.1643 20.192 30.5803 18.656 30.5803 15.968V7.232C30.5803 4.54399 29.1643 3.008 26.5723 3.008C23.9803 3.008 22.5643 4.54399 22.5643 7.232V15.968Z" fill="#2B2A29"/> </svg>