<?xml version="1.0" encoding="UTF-8"?>
<!DOCTYPE svg PUBLIC "-//W3C//DTD SVG 1.1//EN" "http://www.w3.org/Graphics/SVG/1.1/DTD/svg11.dtd">
<!-- Creator: CorelDRAW 2017 -->
<svg xmlns="http://www.w3.org/2000/svg" xml:space="preserve" width="40.6398mm" height="8.4666mm" version="1.1" style="shape-rendering:geometricPrecision; text-rendering:geometricPrecision; image-rendering:optimizeQuality; fill-rule:evenodd; clip-rule:evenodd"
viewBox="0 0 4063.98 846.66"
 xmlns:xlink="http://www.w3.org/1999/xlink">
 <defs>
  <style type="text/css">
   <![CDATA[
    .str0 {stroke:#363789;stroke-width:20;stroke-miterlimit:22.9256}
    .fil1 {fill:none}
    .fil2 {fill:#E31E24}
    .fil0 {fill:#363789}
    .fil3 {fill:#2B2A29;fill-rule:nonzero}
   ]]>
  </style>
 </defs>
 <g id="Слой_x0020_1">
  <metadata id="CorelCorpID_0Corel-Layer"/>
  <g id="_1019331712">
   <polygon class="fil0" points="769.31,831.42 471.5,221.68 161.51,831.55 "/>
   <polygon class="fil1 str0" points="723.17,345.01 563.76,18.19 479.09,227.21 542.31,351.53 "/>
   <polygon class="fil0" points="732.12,342.29 527.06,347.86 631.41,558.55 844.24,556.61 "/>
   <polygon class="fil2" points="844.24,556.61 631.41,558.55 754.46,831.42 984.42,831.6 "/>
   <g>
    <path class="fil3" d="M1387.73 288.15c0.65,2 1.08,3.59 1.25,4.76 0.17,1.17 -0.05,2.05 -0.65,2.65 -0.63,0.57 -1.71,0.94 -3.28,1.08 -1.54,0.15 -3.7,0.2 -6.41,0.2 -2.85,0 -5.07,-0.03 -6.64,-0.11 -1.59,-0.09 -2.79,-0.26 -3.64,-0.51 -0.83,-0.26 -1.4,-0.6 -1.74,-1.06 -0.34,-0.43 -0.63,-1.02 -0.82,-1.74l-7.1 -21.7 -40.73 0 -6.81 21.11c-0.23,0.79 -0.51,1.45 -0.88,1.96 -0.34,0.54 -0.94,0.94 -1.74,1.26 -0.8,0.31 -1.94,0.51 -3.42,0.62 -1.48,0.12 -3.42,0.17 -5.81,0.17 -2.56,0 -4.56,-0.08 -6.01,-0.25 -1.45,-0.17 -2.45,-0.57 -2.99,-1.2 -0.57,-0.66 -0.77,-1.57 -0.6,-2.73 0.17,-1.17 0.6,-2.71 1.26,-4.68l33.27 -95.85c0.31,-0.94 0.71,-1.71 1.16,-2.28 0.43,-0.6 1.14,-1.02 2.11,-1.34 1,-0.31 2.34,-0.51 4.07,-0.59 1.71,-0.09 3.99,-0.12 6.84,-0.12 3.28,0 5.9,0.03 7.83,0.12 1.97,0.08 3.48,0.28 4.56,0.59 1.08,0.32 1.85,0.77 2.34,1.37 0.45,0.63 0.88,1.45 1.19,2.51l33.39 95.76zm-49.57 -79.3l-0.08 0 -15.04 45.95 30.31 0 -15.19 -45.95zm139.38 71.16c0,1.39 -0.03,2.59 -0.11,3.56 -0.09,0.97 -0.23,1.82 -0.4,2.51 -0.14,0.71 -0.37,1.31 -0.66,1.82 -0.28,0.48 -0.71,1.05 -1.34,1.68 -0.59,0.63 -1.79,1.45 -3.53,2.45 -1.76,0.97 -3.9,1.94 -6.44,2.85 -2.53,0.88 -5.41,1.65 -8.66,2.25 -3.24,0.6 -6.77,0.91 -10.56,0.91 -7.38,0 -14.05,-1.14 -20,-3.42 -5.95,-2.28 -11.02,-5.7 -15.18,-10.23 -4.19,-4.52 -7.38,-10.16 -9.6,-16.97 -2.22,-6.78 -3.33,-14.67 -3.33,-23.67 0,-9.18 1.22,-17.32 3.67,-24.44 2.45,-7.12 5.87,-13.11 10.25,-17.95 4.39,-4.84 9.66,-8.49 15.81,-10.99 6.13,-2.51 12.91,-3.76 20.31,-3.76 2.99,0 5.87,0.25 8.66,0.76 2.79,0.49 5.36,1.14 7.72,1.97 2.37,0.8 4.47,1.74 6.38,2.79 1.88,1.08 3.22,2 3.96,2.74 0.74,0.77 1.26,1.39 1.54,1.88 0.29,0.51 0.51,1.14 0.66,1.9 0.17,0.8 0.31,1.71 0.39,2.77 0.09,1.05 0.12,2.33 0.12,3.9 0,1.65 -0.06,3.08 -0.17,4.24 -0.12,1.17 -0.32,2.11 -0.57,2.82 -0.29,0.72 -0.63,1.26 -1,1.57 -0.4,0.34 -0.85,0.51 -1.34,0.51 -0.82,0 -1.88,-0.48 -3.16,-1.45 -1.28,-0.97 -2.93,-2.05 -4.96,-3.25 -2.02,-1.19 -4.44,-2.27 -7.26,-3.24 -2.79,-0.97 -6.12,-1.46 -10.03,-1.46 -4.27,0 -8.09,0.89 -11.45,2.62 -3.36,1.77 -6.21,4.25 -8.57,7.5 -2.37,3.27 -4.16,7.2 -5.38,11.82 -1.23,4.58 -1.83,9.8 -1.83,15.58 0,6.32 0.66,11.82 1.97,16.46 1.31,4.62 3.16,8.46 5.58,11.45 2.39,3 5.33,5.25 8.75,6.7 3.41,1.48 7.26,2.22 11.53,2.22 3.88,0 7.24,-0.46 10.09,-1.37 2.82,-0.91 5.24,-1.93 7.26,-3.02 2.05,-1.11 3.7,-2.1 5.01,-2.99 1.31,-0.88 2.31,-1.34 3.05,-1.34 0.54,0 1,0.12 1.31,0.35 0.34,0.22 0.63,0.65 0.86,1.33 0.19,0.66 0.37,1.6 0.48,2.8 0.11,1.22 0.17,2.82 0.17,4.84zm89.13 0c0,1.39 -0.03,2.59 -0.11,3.56 -0.09,0.97 -0.23,1.82 -0.4,2.51 -0.14,0.71 -0.37,1.31 -0.66,1.82 -0.28,0.48 -0.71,1.05 -1.34,1.68 -0.59,0.63 -1.79,1.45 -3.53,2.45 -1.76,0.97 -3.9,1.94 -6.44,2.85 -2.53,0.88 -5.41,1.65 -8.66,2.25 -3.24,0.6 -6.77,0.91 -10.56,0.91 -7.38,0 -14.05,-1.14 -20,-3.42 -5.95,-2.28 -11.02,-5.7 -15.18,-10.23 -4.19,-4.52 -7.38,-10.16 -9.6,-16.97 -2.22,-6.78 -3.33,-14.67 -3.33,-23.67 0,-9.18 1.22,-17.32 3.67,-24.44 2.45,-7.12 5.87,-13.11 10.25,-17.95 4.39,-4.84 9.66,-8.49 15.81,-10.99 6.13,-2.51 12.91,-3.76 20.31,-3.76 2.99,0 5.87,0.25 8.66,0.76 2.79,0.49 5.36,1.14 7.72,1.97 2.37,0.8 4.47,1.74 6.38,2.79 1.88,1.08 3.22,2 3.96,2.74 0.74,0.77 1.26,1.39 1.54,1.88 0.29,0.51 0.51,1.14 0.66,1.9 0.17,0.8 0.31,1.71 0.39,2.77 0.09,1.05 0.12,2.33 0.12,3.9 0,1.65 -0.06,3.08 -0.17,4.24 -0.12,1.17 -0.32,2.11 -0.57,2.82 -0.29,0.72 -0.63,1.26 -1,1.57 -0.4,0.34 -0.85,0.51 -1.34,0.51 -0.82,0 -1.88,-0.48 -3.16,-1.45 -1.28,-0.97 -2.93,-2.05 -4.96,-3.25 -2.02,-1.19 -4.44,-2.27 -7.26,-3.24 -2.79,-0.97 -6.12,-1.46 -10.03,-1.46 -4.27,0 -8.09,0.89 -11.45,2.62 -3.36,1.77 -6.21,4.25 -8.57,7.5 -2.37,3.27 -4.16,7.2 -5.38,11.82 -1.23,4.58 -1.83,9.8 -1.83,15.58 0,6.32 0.66,11.82 1.97,16.46 1.31,4.62 3.16,8.46 5.58,11.45 2.39,3 5.33,5.25 8.75,6.7 3.41,1.48 7.26,2.22 11.53,2.22 3.88,0 7.24,-0.46 10.09,-1.37 2.82,-0.91 5.24,-1.93 7.26,-3.02 2.05,-1.11 3.7,-2.1 5.01,-2.99 1.31,-0.88 2.31,-1.34 3.05,-1.34 0.54,0 1,0.12 1.31,0.35 0.34,0.22 0.63,0.65 0.86,1.33 0.19,0.66 0.37,1.6 0.48,2.8 0.11,1.22 0.17,2.82 0.17,4.84zm112.86 -38.94c0,8.94 -1.11,16.95 -3.33,24.01 -2.22,7.07 -5.53,13.08 -9.94,17.98 -4.39,4.92 -9.83,8.68 -16.3,11.28 -6.49,2.59 -13.98,3.87 -22.5,3.87 -8.4,0 -15.72,-1.11 -21.96,-3.3 -6.27,-2.2 -11.48,-5.53 -15.67,-10.06 -4.16,-4.5 -7.29,-10.23 -9.37,-17.18 -2.08,-6.95 -3.13,-15.18 -3.13,-24.69 0,-8.72 1.11,-16.58 3.33,-23.56 2.22,-6.98 5.52,-12.9 9.94,-17.8 4.39,-4.9 9.83,-8.66 16.29,-11.25 6.5,-2.62 14.02,-3.94 22.59,-3.94 8.18,0 15.38,1.09 21.65,3.25 6.24,2.17 11.48,5.5 15.67,10.03 4.21,4.5 7.37,10.17 9.51,17.03 2.14,6.9 3.22,14.99 3.22,24.33zm-23.07 1.11c0,-5.67 -0.46,-10.82 -1.34,-15.47 -0.89,-4.64 -2.39,-8.63 -4.53,-11.93 -2.14,-3.31 -4.99,-5.87 -8.55,-7.69 -3.56,-1.8 -8,-2.71 -13.33,-2.71 -5.38,0 -9.88,1.03 -13.47,3.05 -3.62,2.02 -6.55,4.76 -8.77,8.15 -2.23,3.38 -3.79,7.34 -4.7,11.87 -0.92,4.56 -1.37,9.35 -1.37,14.42 0,5.89 0.45,11.19 1.34,15.89 0.88,4.7 2.39,8.72 4.5,12.08 2.11,3.33 4.93,5.87 8.49,7.63 3.56,1.74 8.03,2.62 13.41,2.62 5.39,0 9.89,-0.99 13.48,-3.02 3.61,-1.99 6.55,-4.72 8.77,-8.17 2.22,-3.45 3.79,-7.46 4.7,-12.05 0.91,-4.59 1.37,-9.49 1.37,-14.67zm138.49 79.53c0,0.57 -0.14,1.03 -0.43,1.42 -0.25,0.37 -0.74,0.69 -1.45,0.94 -0.68,0.26 -1.65,0.46 -2.91,0.6 -1.25,0.14 -2.82,0.2 -4.7,0.2 -1.88,0 -3.44,-0.06 -4.67,-0.2 -1.22,-0.14 -2.19,-0.34 -2.93,-0.6 -0.77,-0.25 -1.28,-0.57 -1.6,-0.94 -0.31,-0.39 -0.45,-0.88 -0.45,-1.42l0 -25.38 -71.42 0c-1.96,0 -3.5,-0.57 -4.64,-1.71 -1.14,-1.14 -1.71,-2.88 -1.71,-5.21l0 -98.28c0,-0.54 0.17,-1.02 0.54,-1.45 0.37,-0.43 0.97,-0.77 1.8,-1.05 0.82,-0.26 1.94,-0.49 3.36,-0.63 1.42,-0.14 3.19,-0.2 5.3,-0.2 2.13,0 3.93,0.06 5.3,0.2 1.39,0.14 2.5,0.37 3.33,0.63 0.83,0.28 1.42,0.62 1.74,1.05 0.34,0.43 0.51,0.91 0.51,1.45l0 87.08 39.99 0 0 -87.08c0,-0.54 0.17,-1.02 0.54,-1.45 0.37,-0.43 0.97,-0.77 1.8,-1.05 0.82,-0.26 1.93,-0.49 3.36,-0.63 1.42,-0.14 3.19,-0.2 5.3,-0.2 2.13,0 3.93,0.06 5.3,0.2 1.39,0.14 2.5,0.37 3.33,0.63 0.82,0.28 1.42,0.62 1.74,1.05 0.34,0.43 0.51,0.91 0.51,1.45l0 87.08 9.48 0c1.4,0 2.37,0.32 2.88,0.97 0.54,0.63 0.8,1.8 0.8,3.53l0 39zm103.34 -28.2c0,0.54 -0.17,1.03 -0.54,1.45 -0.37,0.43 -0.97,0.77 -1.8,1.06 -0.82,0.25 -1.96,0.48 -3.38,0.62 -1.43,0.15 -3.2,0.2 -5.3,0.2 -2.11,0 -3.88,-0.05 -5.3,-0.2 -1.43,-0.14 -2.54,-0.37 -3.33,-0.62 -0.83,-0.29 -1.4,-0.63 -1.71,-1.06 -0.35,-0.42 -0.52,-0.91 -0.52,-1.45l0 -56.94c0,-2.17 0.03,-4.3 0.09,-6.38 0.06,-2.11 0.14,-3.96 0.26,-5.56l-0.18 0c-0.45,0.77 -0.96,1.68 -1.59,2.71 -0.63,1.02 -1.28,2.11 -1.97,3.25 -0.71,1.14 -1.45,2.3 -2.22,3.5 -0.8,1.2 -1.56,2.36 -2.33,3.48l-37.52 56.03c-0.45,0.59 -0.91,1.13 -1.37,1.56 -0.48,0.46 -1.08,0.8 -1.85,1.06 -0.74,0.25 -1.65,0.42 -2.73,0.51 -1.08,0.08 -2.51,0.11 -4.22,0.11 -2.16,0 -3.93,-0.05 -5.24,-0.2 -1.34,-0.14 -2.39,-0.37 -3.13,-0.62 -0.77,-0.29 -1.28,-0.66 -1.54,-1.09 -0.28,-0.45 -0.43,-0.99 -0.43,-1.59l0 -102.21c0,-0.54 0.17,-1.02 0.54,-1.45 0.37,-0.43 0.97,-0.77 1.83,-1.05 0.85,-0.26 1.99,-0.49 3.39,-0.63 1.36,-0.14 3.13,-0.2 5.24,-0.2 2.13,0 3.93,0.06 5.3,0.2 1.39,0.14 2.5,0.37 3.33,0.63 0.83,0.28 1.42,0.62 1.74,1.05 0.34,0.43 0.51,0.91 0.51,1.45l0 57.29c0,1.76 -0.03,3.67 -0.09,5.67 -0.05,2.02 -0.14,3.96 -0.25,5.84l0.17 0c0.97,-1.66 2.16,-3.68 3.62,-6.01 1.45,-2.34 2.96,-4.62 4.5,-6.84l37.57 -56.03c0.4,-0.54 0.8,-1.03 1.25,-1.45 0.46,-0.43 1.06,-0.77 1.8,-1.06 0.74,-0.25 1.68,-0.45 2.79,-0.57 1.11,-0.11 2.53,-0.17 4.27,-0.17 2.11,0 3.82,0.06 5.13,0.2 1.31,0.14 2.33,0.37 3.13,0.63 0.77,0.28 1.31,0.62 1.62,1.05 0.32,0.43 0.46,0.94 0.46,1.54l0 102.29zm112 -5.36c0.65,2 1.08,3.59 1.25,4.76 0.17,1.17 -0.05,2.05 -0.65,2.65 -0.63,0.57 -1.71,0.94 -3.28,1.08 -1.54,0.15 -3.7,0.2 -6.41,0.2 -2.85,0 -5.07,-0.03 -6.64,-0.11 -1.59,-0.09 -2.79,-0.26 -3.64,-0.51 -0.83,-0.26 -1.4,-0.6 -1.74,-1.06 -0.34,-0.43 -0.63,-1.02 -0.82,-1.74l-7.1 -21.7 -40.73 0 -6.81 21.11c-0.23,0.79 -0.51,1.45 -0.88,1.96 -0.34,0.54 -0.94,0.94 -1.74,1.26 -0.8,0.31 -1.94,0.51 -3.42,0.62 -1.48,0.12 -3.42,0.17 -5.81,0.17 -2.56,0 -4.56,-0.08 -6.01,-0.25 -1.45,-0.17 -2.45,-0.57 -2.99,-1.2 -0.57,-0.66 -0.77,-1.57 -0.6,-2.73 0.17,-1.17 0.6,-2.71 1.26,-4.68l33.27 -95.85c0.31,-0.94 0.71,-1.71 1.16,-2.28 0.43,-0.6 1.14,-1.02 2.11,-1.34 1,-0.31 2.34,-0.51 4.07,-0.59 1.71,-0.09 3.99,-0.12 6.84,-0.12 3.28,0 5.9,0.03 7.83,0.12 1.97,0.08 3.48,0.28 4.56,0.59 1.08,0.32 1.85,0.77 2.34,1.37 0.45,0.63 0.88,1.45 1.19,2.51l33.39 95.76zm-49.57 -79.3l-0.08 0 -15.04 45.95 30.31 0 -15.19 -45.95zm161.6 112.86c0,0.57 -0.14,1.03 -0.43,1.42 -0.25,0.37 -0.74,0.69 -1.45,0.94 -0.68,0.26 -1.65,0.46 -2.91,0.6 -1.25,0.14 -2.82,0.2 -4.7,0.2 -1.88,0 -3.44,-0.06 -4.67,-0.2 -1.22,-0.14 -2.19,-0.34 -2.93,-0.6 -0.77,-0.25 -1.28,-0.57 -1.6,-0.94 -0.31,-0.39 -0.45,-0.88 -0.45,-1.42l0 -25.38 -71.42 0c-1.96,0 -3.5,-0.57 -4.64,-1.71 -1.14,-1.14 -1.71,-2.88 -1.71,-5.21l0 -98.28c0,-0.54 0.17,-1.02 0.54,-1.45 0.37,-0.43 0.97,-0.77 1.8,-1.05 0.82,-0.26 1.94,-0.49 3.36,-0.63 1.42,-0.14 3.19,-0.2 5.3,-0.2 2.13,0 3.93,0.06 5.3,0.2 1.39,0.14 2.5,0.37 3.33,0.63 0.83,0.28 1.42,0.62 1.74,1.05 0.34,0.43 0.51,0.91 0.51,1.45l0 87.08 39.99 0 0 -87.08c0,-0.54 0.17,-1.02 0.54,-1.45 0.37,-0.43 0.97,-0.77 1.8,-1.05 0.82,-0.26 1.93,-0.49 3.36,-0.63 1.42,-0.14 3.19,-0.2 5.3,-0.2 2.13,0 3.93,0.06 5.3,0.2 1.39,0.14 2.5,0.37 3.33,0.63 0.82,0.28 1.42,0.62 1.74,1.05 0.34,0.43 0.51,0.91 0.51,1.45l0 87.08 9.48 0c1.4,0 2.37,0.32 2.88,0.97 0.54,0.63 0.8,1.8 0.8,3.53l0 39zm103.34 -28.2c0,0.54 -0.17,1.03 -0.54,1.45 -0.37,0.43 -0.97,0.77 -1.8,1.06 -0.82,0.25 -1.96,0.48 -3.38,0.62 -1.43,0.15 -3.2,0.2 -5.3,0.2 -2.11,0 -3.88,-0.05 -5.3,-0.2 -1.43,-0.14 -2.54,-0.37 -3.33,-0.62 -0.83,-0.29 -1.4,-0.63 -1.71,-1.06 -0.35,-0.42 -0.52,-0.91 -0.52,-1.45l0 -56.94c0,-2.17 0.03,-4.3 0.09,-6.38 0.06,-2.11 0.14,-3.96 0.26,-5.56l-0.18 0c-0.45,0.77 -0.96,1.68 -1.59,2.71 -0.63,1.02 -1.28,2.11 -1.97,3.25 -0.71,1.14 -1.45,2.3 -2.22,3.5 -0.8,1.2 -1.56,2.36 -2.33,3.48l-37.52 56.03c-0.45,0.59 -0.91,1.13 -1.37,1.56 -0.48,0.46 -1.08,0.8 -1.85,1.06 -0.74,0.25 -1.65,0.42 -2.73,0.51 -1.08,0.08 -2.51,0.11 -4.22,0.11 -2.16,0 -3.93,-0.05 -5.24,-0.2 -1.34,-0.14 -2.39,-0.37 -3.13,-0.62 -0.77,-0.29 -1.28,-0.66 -1.54,-1.09 -0.28,-0.45 -0.43,-0.99 -0.43,-1.59l0 -102.21c0,-0.54 0.17,-1.02 0.54,-1.45 0.37,-0.43 0.97,-0.77 1.83,-1.05 0.85,-0.26 1.99,-0.49 3.39,-0.63 1.36,-0.14 3.13,-0.2 5.24,-0.2 2.13,0 3.93,0.06 5.3,0.2 1.39,0.14 2.5,0.37 3.33,0.63 0.83,0.28 1.42,0.62 1.74,1.05 0.34,0.43 0.51,0.91 0.51,1.45l0 57.29c0,1.76 -0.03,3.67 -0.09,5.67 -0.05,2.02 -0.14,3.96 -0.25,5.84l0.17 0c0.97,-1.66 2.16,-3.68 3.62,-6.01 1.45,-2.34 2.96,-4.62 4.5,-6.84l37.57 -56.03c0.4,-0.54 0.8,-1.03 1.25,-1.45 0.46,-0.43 1.06,-0.77 1.8,-1.06 0.74,-0.25 1.68,-0.45 2.79,-0.57 1.11,-0.11 2.53,-0.17 4.27,-0.17 2.11,0 3.82,0.06 5.13,0.2 1.31,0.14 2.33,0.37 3.13,0.63 0.77,0.28 1.31,0.62 1.62,1.05 0.32,0.43 0.46,0.94 0.46,1.54l0 102.29zm98.07 0c0,0.54 -0.17,1.03 -0.51,1.45 -0.32,0.43 -0.89,0.77 -1.71,1.06 -0.8,0.25 -1.91,0.48 -3.34,0.62 -1.42,0.15 -3.19,0.2 -5.29,0.2 -2.17,0 -3.96,-0.05 -5.36,-0.2 -1.39,-0.14 -2.51,-0.37 -3.36,-0.62 -0.88,-0.29 -1.48,-0.63 -1.79,-1.06 -0.35,-0.42 -0.52,-0.91 -0.52,-1.45l0 -40.42 -8.12 0c-3.33,0 -5.89,0.34 -7.63,1 -1.77,0.68 -3.33,1.71 -4.7,3.1 -1.37,1.37 -2.56,3.13 -3.65,5.21 -1.05,2.08 -2.07,4.56 -3.07,7.38l-8.21 23.39c-0.28,0.65 -0.62,1.22 -1.08,1.71 -0.45,0.48 -1.14,0.85 -2.05,1.17 -0.91,0.31 -2.11,0.51 -3.62,0.62 -1.51,0.12 -3.41,0.17 -5.75,0.17 -2.56,0 -4.56,-0.08 -6.04,-0.25 -1.48,-0.17 -2.59,-0.4 -3.39,-0.72 -0.77,-0.31 -1.25,-0.65 -1.48,-1.02 -0.23,-0.4 -0.34,-0.83 -0.34,-1.25 0,-0.57 0.08,-1.26 0.28,-2.06 0.2,-0.82 0.6,-2.02 1.23,-3.64l8.09 -21.22c1.05,-2.77 2.13,-5.19 3.24,-7.27 1.12,-2.05 2.34,-3.9 3.71,-5.55 1.37,-1.62 2.82,-3.02 4.33,-4.13 1.54,-1.11 3.22,-2 5.04,-2.68 -3.45,-0.94 -6.5,-2.16 -9.14,-3.7 -2.65,-1.54 -4.88,-3.39 -6.7,-5.59 -1.79,-2.19 -3.16,-4.72 -4.1,-7.6 -0.91,-2.85 -1.37,-6.07 -1.37,-9.63 0,-4.9 0.86,-9.34 2.54,-13.3 1.71,-3.99 4.24,-7.38 7.57,-10.14 3.34,-2.79 7.52,-4.96 12.51,-6.47 4.98,-1.54 11.94,-2.31 20.85,-2.31l26.49 0c1.8,0 3.31,0.55 4.56,1.63 1.25,1.08 1.88,2.85 1.88,5.3l0 98.27zm-21.88 -88.28l-11.33 0c-4.73,0 -8.29,0.38 -10.66,1.09 -2.33,0.71 -4.24,1.76 -5.72,3.13 -1.48,1.37 -2.57,2.99 -3.25,4.93 -0.66,1.91 -1,4.04 -1,6.38 0,2.28 0.37,4.36 1.09,6.29 0.74,1.91 1.85,3.59 3.36,4.99 1.51,1.42 3.44,2.53 5.78,3.3 2.36,0.77 5.72,1.17 10.08,1.17l11.65 0 0 -31.28zm168.21 88.28c0,0.54 -0.17,1.03 -0.51,1.45 -0.32,0.43 -0.91,0.77 -1.74,1.06 -0.83,0.25 -1.94,0.48 -3.36,0.62 -1.43,0.15 -3.19,0.2 -5.27,0.2 -2.11,0 -3.87,-0.05 -5.3,-0.2 -1.42,-0.14 -2.53,-0.37 -3.36,-0.62 -0.83,-0.29 -1.42,-0.63 -1.79,-1.06 -0.38,-0.42 -0.55,-0.91 -0.55,-1.45l0 -86.91 -40.33 0 0 86.91c0,0.54 -0.17,1.03 -0.54,1.45 -0.37,0.43 -0.97,0.77 -1.8,1.06 -0.82,0.25 -1.93,0.48 -3.33,0.62 -1.37,0.15 -3.16,0.2 -5.3,0.2 -2.11,0 -3.87,-0.05 -5.3,-0.2 -1.42,-0.14 -2.53,-0.37 -3.36,-0.62 -0.82,-0.29 -1.42,-0.63 -1.73,-1.06 -0.35,-0.42 -0.52,-0.91 -0.52,-1.45l0 -98.27c0,-2.34 0.6,-4.08 1.77,-5.22 1.17,-1.14 2.7,-1.71 4.64,-1.71l71.33 0c2.02,0 3.56,0.57 4.67,1.71 1.11,1.14 1.68,2.88 1.68,5.22l0 98.27zm97.56 -72.38c0,6.1 -0.94,11.45 -2.85,16.12 -1.88,4.7 -4.64,8.63 -8.29,11.82 -3.62,3.22 -8.06,5.64 -13.33,7.32 -5.27,1.68 -11.48,2.51 -18.63,2.51l-9.03 0 0 34.44c0,0.57 -0.17,1.05 -0.54,1.51 -0.37,0.43 -0.97,0.8 -1.8,1.08 -0.82,0.29 -1.93,0.49 -3.33,0.66 -1.37,0.17 -3.16,0.25 -5.3,0.25 -2.11,0 -3.87,-0.08 -5.3,-0.25 -1.42,-0.17 -2.53,-0.4 -3.36,-0.66 -0.82,-0.28 -1.42,-0.65 -1.73,-1.08 -0.35,-0.46 -0.52,-0.97 -0.52,-1.51l0 -97.16c0,-2.62 0.69,-4.59 2.05,-5.9 1.37,-1.31 3.17,-1.97 5.39,-1.97l25.46 0c2.57,0 5.02,0.09 7.32,0.29 2.31,0.2 5.07,0.63 8.32,1.25 3.22,0.66 6.5,1.83 9.8,3.56 3.3,1.71 6.15,3.91 8.49,6.56 2.33,2.64 4.13,5.72 5.35,9.28 1.23,3.53 1.83,7.49 1.83,11.88zm-22.91 1.59c0,-3.78 -0.68,-6.92 -2.02,-9.37 -1.34,-2.45 -2.99,-4.27 -4.95,-5.44 -1.97,-1.17 -4.02,-1.91 -6.16,-2.22 -2.16,-0.31 -4.38,-0.46 -6.69,-0.46l-9.4 0 0 36.75 9.91 0c3.53,0 6.47,-0.48 8.86,-1.42 2.37,-0.94 4.33,-2.28 5.84,-3.99 1.51,-1.68 2.65,-3.73 3.45,-6.1 0.77,-2.36 1.16,-4.95 1.16,-7.75zm136.93 18.35c0,8.94 -1.11,16.95 -3.33,24.01 -2.22,7.07 -5.53,13.08 -9.94,17.98 -4.39,4.92 -9.83,8.68 -16.3,11.28 -6.49,2.59 -13.98,3.87 -22.5,3.87 -8.4,0 -15.72,-1.11 -21.96,-3.3 -6.27,-2.2 -11.48,-5.53 -15.67,-10.06 -4.16,-4.5 -7.29,-10.23 -9.37,-17.18 -2.08,-6.95 -3.13,-15.18 -3.13,-24.69 0,-8.72 1.11,-16.58 3.33,-23.56 2.22,-6.98 5.52,-12.9 9.94,-17.8 4.39,-4.9 9.83,-8.66 16.29,-11.25 6.5,-2.62 14.02,-3.94 22.59,-3.94 8.18,0 15.38,1.09 21.65,3.25 6.24,2.17 11.48,5.5 15.67,10.03 4.21,4.5 7.37,10.17 9.51,17.03 2.14,6.9 3.22,14.99 3.22,24.33zm-23.07 1.11c0,-5.67 -0.46,-10.82 -1.34,-15.47 -0.89,-4.64 -2.39,-8.63 -4.53,-11.93 -2.14,-3.31 -4.99,-5.87 -8.55,-7.69 -3.56,-1.8 -8,-2.71 -13.33,-2.71 -5.38,0 -9.88,1.03 -13.47,3.05 -3.62,2.02 -6.55,4.76 -8.77,8.15 -2.23,3.38 -3.79,7.34 -4.7,11.87 -0.92,4.56 -1.37,9.35 -1.37,14.42 0,5.89 0.45,11.19 1.34,15.89 0.88,4.7 2.39,8.72 4.5,12.08 2.11,3.33 4.93,5.87 8.49,7.63 3.56,1.74 8.03,2.62 13.41,2.62 5.39,0 9.89,-0.99 13.48,-3.02 3.61,-1.99 6.55,-4.72 8.77,-8.17 2.22,-3.45 3.79,-7.46 4.7,-12.05 0.91,-4.59 1.37,-9.49 1.37,-14.67zm167.37 51.16c0,0.54 -0.14,1.05 -0.45,1.51 -0.32,0.43 -0.89,0.8 -1.68,1.08 -0.8,0.26 -1.88,0.49 -3.22,0.66 -1.34,0.17 -3.05,0.25 -5.1,0.25 -2.02,0 -3.7,-0.08 -5.04,-0.25 -1.34,-0.17 -2.4,-0.4 -3.19,-0.66 -0.77,-0.28 -1.34,-0.65 -1.66,-1.08 -0.34,-0.46 -0.51,-0.97 -0.51,-1.51l0 -87.93 -0.17 0 -31.19 87.84c-0.23,0.72 -0.57,1.31 -1.08,1.8 -0.52,0.48 -1.17,0.85 -2.05,1.14 -0.86,0.25 -1.97,0.45 -3.28,0.54 -1.34,0.08 -2.96,0.11 -4.84,0.11 -1.91,0 -3.51,-0.05 -4.84,-0.2 -1.34,-0.14 -2.45,-0.37 -3.31,-0.68 -0.85,-0.31 -1.54,-0.68 -2.05,-1.11 -0.48,-0.46 -0.83,-1 -1,-1.6l-30.11 -87.84 -0.17 0 0 87.93c0,0.54 -0.14,1.05 -0.45,1.51 -0.32,0.43 -0.88,0.8 -1.71,1.08 -0.86,0.26 -1.94,0.49 -3.25,0.66 -1.31,0.17 -2.99,0.25 -5.04,0.25 -2.02,0 -3.7,-0.08 -5.04,-0.25 -1.34,-0.17 -2.42,-0.4 -3.22,-0.66 -0.8,-0.28 -1.37,-0.65 -1.68,-1.08 -0.31,-0.46 -0.46,-0.97 -0.46,-1.51l0 -96.25c0,-2.85 0.74,-5.02 2.25,-6.52 1.51,-1.51 3.51,-2.26 6.04,-2.26l14.36 0c2.56,0 4.78,0.2 6.61,0.63 1.85,0.43 3.44,1.11 4.78,2.08 1.31,0.97 2.45,2.25 3.34,3.85 0.88,1.59 1.68,3.56 2.33,5.89l23.27 64.35 0.34 0 24.1 -64.2c0.72,-2.34 1.51,-4.31 2.37,-5.93 0.88,-1.59 1.88,-2.91 3.02,-3.9 1.14,-1 2.5,-1.71 4.04,-2.14 1.57,-0.43 3.39,-0.63 5.44,-0.63l14.81 0c1.51,0 2.8,0.2 3.88,0.6 1.08,0.37 1.99,0.94 2.68,1.71 0.71,0.74 1.22,1.65 1.59,2.74 0.37,1.08 0.54,2.33 0.54,3.73l0 96.25z"/>
    <path class="fil3" d="M2962.5 293.51c0,0.54 -0.17,1.03 -0.54,1.45 -0.37,0.43 -0.97,0.77 -1.79,1.06 -0.83,0.25 -1.97,0.48 -3.39,0.62 -1.43,0.15 -3.19,0.2 -5.3,0.2 -2.11,0 -3.87,-0.05 -5.27,-0.2 -1.39,-0.14 -2.51,-0.37 -3.36,-0.62 -0.88,-0.29 -1.48,-0.63 -1.85,-1.06 -0.37,-0.42 -0.54,-0.91 -0.54,-1.45l0 -102.38c0,-0.54 0.17,-1.02 0.54,-1.45 0.37,-0.43 0.97,-0.77 1.85,-1.05 0.85,-0.26 1.99,-0.49 3.42,-0.63 1.42,-0.14 3.16,-0.2 5.21,-0.2 2.11,0 3.87,0.06 5.3,0.2 1.42,0.14 2.56,0.37 3.39,0.63 0.82,0.28 1.42,0.62 1.79,1.05 0.37,0.43 0.54,0.91 0.54,1.45l0 102.38zm-35.2 -32.81c0,5.12 -0.8,9.79 -2.37,14.07 -1.59,4.24 -4.1,7.94 -7.49,11.13 -3.39,3.17 -7.83,5.7 -13.3,7.58 -5.47,1.91 -12.93,2.85 -22.39,2.85l-25.47 0c-0.94,0 -1.82,-0.11 -2.62,-0.37 -0.79,-0.26 -1.51,-0.68 -2.13,-1.25 -0.6,-0.6 -1.09,-1.31 -1.46,-2.17 -0.37,-0.88 -0.54,-1.91 -0.54,-3.13l0 -98.28c0,-0.54 0.17,-1.02 0.54,-1.45 0.37,-0.43 0.97,-0.77 1.83,-1.05 0.85,-0.26 1.99,-0.49 3.42,-0.63 1.42,-0.14 3.13,-0.2 5.21,-0.2 2.13,0 3.93,0.06 5.3,0.2 1.39,0.14 2.5,0.37 3.33,0.63 0.83,0.28 1.42,0.62 1.74,1.05 0.34,0.43 0.51,0.91 0.51,1.45l0 37.35 13.62 0c8.08,0 14.52,0.68 19.34,2.08 4.81,1.39 8.91,3.44 12.27,6.18 3.36,2.73 5.99,6.12 7.87,10.17 1.85,4.07 2.79,8.66 2.79,13.79zm-22.56 1.82c0,-2.65 -0.4,-5.04 -1.17,-7.15 -0.77,-2.11 -1.97,-3.9 -3.59,-5.41 -1.62,-1.48 -3.67,-2.65 -6.18,-3.48 -2.51,-0.82 -6.21,-1.25 -11.11,-1.25l-11.28 0 0 34.18 11.62 0c5.1,0 8.97,-0.51 11.57,-1.54 2.59,-1.02 4.58,-2.36 6.03,-3.99 1.46,-1.65 2.51,-3.44 3.14,-5.44 0.65,-1.99 0.97,-3.98 0.97,-5.92zm210.95 26.89c0,2.33 -0.57,4.07 -1.68,5.21 -1.11,1.14 -2.65,1.71 -4.67,1.71l-116.87 0c-1.94,0 -3.51,-0.57 -4.7,-1.71 -1.2,-1.14 -1.8,-2.88 -1.8,-5.21l0 -98.45c0,-0.54 0.17,-1.02 0.54,-1.39 0.37,-0.4 0.97,-0.71 1.8,-0.97 0.82,-0.26 1.94,-0.46 3.33,-0.6 1.4,-0.14 3.11,-0.2 5.1,-0.2 2.05,0 3.76,0.06 5.13,0.2 1.36,0.14 2.48,0.34 3.3,0.6 0.83,0.26 1.43,0.57 1.8,0.94 0.37,0.4 0.54,0.88 0.54,1.42l0 87.42 32.64 0 0 -87.42c0,-0.54 0.17,-1.02 0.54,-1.42 0.37,-0.37 0.94,-0.68 1.77,-0.94 0.8,-0.26 1.91,-0.46 3.27,-0.6 1.4,-0.14 3.11,-0.2 5.1,-0.2 2,0 3.68,0.06 5.04,0.2 1.37,0.14 2.48,0.34 3.31,0.6 0.83,0.26 1.42,0.57 1.79,0.94 0.37,0.4 0.55,0.88 0.55,1.42l0 87.42 32.64 0 0 -87.42c0,-0.54 0.17,-1.02 0.54,-1.42 0.37,-0.37 0.97,-0.68 1.79,-0.94 0.83,-0.26 1.94,-0.46 3.31,-0.6 1.37,-0.14 3.08,-0.2 5.13,-0.2 1.99,0 3.67,0.06 5.04,0.2 1.37,0.14 2.48,0.34 3.3,0.6 0.83,0.26 1.45,0.57 1.83,0.97 0.39,0.37 0.59,0.85 0.59,1.39l0 98.45zm107.51 4.1c0,0.54 -0.17,1.03 -0.51,1.45 -0.32,0.43 -0.91,0.77 -1.74,1.06 -0.83,0.25 -1.97,0.48 -3.39,0.62 -1.42,0.15 -3.19,0.2 -5.3,0.2 -2.16,0 -3.96,-0.05 -5.35,-0.2 -1.37,-0.14 -2.51,-0.37 -3.34,-0.62 -0.82,-0.29 -1.42,-0.63 -1.73,-1.06 -0.35,-0.42 -0.52,-0.91 -0.52,-1.45l0 -87.25 -23.07 0c-1.57,12.76 -3.16,23.9 -4.79,33.44 -1.59,9.52 -3.33,17.69 -5.18,24.47 -1.82,6.81 -3.87,12.39 -6.07,16.72 -2.19,4.36 -4.73,7.81 -7.52,10.34 -2.82,2.54 -6.01,4.27 -9.57,5.21 -3.53,0.94 -7.57,1.43 -12.08,1.43 -0.85,0 -1.56,-0.12 -2.19,-0.34 -0.6,-0.2 -1.08,-0.63 -1.45,-1.26 -0.37,-0.6 -0.63,-1.45 -0.8,-2.56 -0.17,-1.11 -0.26,-2.54 -0.26,-4.24 0,-2.4 0.06,-4.33 0.18,-5.82 0.11,-1.45 0.31,-2.59 0.57,-3.39 0.28,-0.82 0.65,-1.36 1.11,-1.62 0.42,-0.28 0.96,-0.43 1.59,-0.43 1.71,0 3.39,-0.34 4.96,-1.05 1.59,-0.68 3.13,-2.05 4.61,-4.13 1.48,-2.05 2.91,-4.96 4.27,-8.69 1.37,-3.73 2.71,-8.63 4.02,-14.75 1.31,-6.1 2.62,-13.53 3.93,-22.31 1.31,-8.77 2.65,-19.2 3.99,-31.27 0.34,-2.85 1,-4.85 1.99,-5.99 1,-1.14 2.48,-1.71 4.42,-1.71l52.95 0c2.03,0 3.56,0.57 4.65,1.71 1.08,1.14 1.62,2.88 1.62,5.22l0 98.27zm87.47 -5.81c0,1.62 -0.05,2.96 -0.2,4.07 -0.14,1.08 -0.34,1.97 -0.62,2.62 -0.29,0.69 -0.63,1.17 -1.06,1.48 -0.4,0.32 -0.88,0.46 -1.36,0.46l-54.18 0c-1.83,0 -3.36,-0.54 -4.62,-1.62 -1.25,-1.09 -1.88,-2.85 -1.88,-5.3l0 -94.17c0,-2.45 0.63,-4.22 1.88,-5.3 1.26,-1.08 2.79,-1.63 4.62,-1.63l53.92 0c0.48,0 0.94,0.15 1.34,0.43 0.37,0.29 0.71,0.77 1,1.45 0.25,0.72 0.48,1.6 0.62,2.68 0.14,1.11 0.2,2.48 0.2,4.16 0,1.57 -0.06,2.88 -0.2,3.99 -0.14,1.08 -0.34,1.96 -0.62,2.62 -0.29,0.68 -0.63,1.17 -1,1.48 -0.4,0.31 -0.86,0.46 -1.34,0.46l-38.54 0 0 26.32 32.47 0c0.51,0 0.97,0.14 1.37,0.45 0.43,0.32 0.77,0.77 1.05,1.43 0.29,0.62 0.49,1.48 0.63,2.59 0.14,1.08 0.2,2.39 0.2,3.93 0,1.62 -0.06,2.96 -0.2,4.02 -0.14,1.05 -0.34,1.9 -0.63,2.53 -0.28,0.66 -0.62,1.11 -1.05,1.37 -0.4,0.28 -0.86,0.43 -1.37,0.43l-32.47 0 0 30.42 38.8 0c0.51,0 0.96,0.14 1.36,0.45 0.43,0.32 0.77,0.8 1.06,1.49 0.28,0.65 0.48,1.53 0.62,2.62 0.15,1.11 0.2,2.45 0.2,4.07zm103.72 5.64c0,0.54 -0.17,1.05 -0.54,1.51 -0.37,0.43 -0.97,0.8 -1.79,1.08 -0.83,0.26 -1.94,0.49 -3.34,0.66 -1.36,0.17 -3.13,0.25 -5.21,0.25 -2.16,0 -3.96,-0.08 -5.38,-0.25 -1.43,-0.17 -2.51,-0.4 -3.34,-0.66 -0.79,-0.28 -1.36,-0.65 -1.73,-1.08 -0.37,-0.46 -0.55,-0.97 -0.55,-1.51l0 -43.67 -40.5 0 0 43.67c0,0.54 -0.17,1.05 -0.51,1.51 -0.32,0.43 -0.91,0.8 -1.74,1.08 -0.83,0.26 -1.94,0.49 -3.33,0.66 -1.37,0.17 -3.17,0.25 -5.3,0.25 -2.11,0 -3.88,-0.08 -5.3,-0.25 -1.42,-0.17 -2.54,-0.4 -3.36,-0.66 -0.83,-0.28 -1.43,-0.65 -1.8,-1.08 -0.37,-0.46 -0.54,-0.97 -0.54,-1.51l0 -102.03c0,-0.55 0.17,-1.06 0.54,-1.51 0.37,-0.43 0.97,-0.8 1.8,-1.09 0.82,-0.28 1.94,-0.48 3.36,-0.65 1.42,-0.17 3.19,-0.26 5.3,-0.26 2.13,0 3.93,0.09 5.3,0.26 1.39,0.17 2.5,0.4 3.33,0.65 0.83,0.29 1.42,0.66 1.74,1.09 0.34,0.45 0.51,0.96 0.51,1.51l0 39.73 40.5 0 0 -39.73c0,-0.55 0.18,-1.06 0.55,-1.51 0.37,-0.43 0.94,-0.8 1.73,-1.09 0.83,-0.25 1.91,-0.48 3.34,-0.65 1.42,-0.17 3.22,-0.26 5.38,-0.26 2.08,0 3.85,0.09 5.21,0.26 1.4,0.17 2.51,0.37 3.34,0.65 0.82,0.29 1.42,0.66 1.79,1.09 0.37,0.45 0.54,0.96 0.54,1.51l0 102.03zm107.82 0c0,0.54 -0.17,1.05 -0.54,1.51 -0.37,0.43 -0.97,0.8 -1.79,1.08 -0.83,0.26 -1.94,0.49 -3.34,0.66 -1.36,0.17 -3.13,0.25 -5.21,0.25 -2.16,0 -3.96,-0.08 -5.38,-0.25 -1.43,-0.17 -2.51,-0.4 -3.34,-0.66 -0.79,-0.28 -1.36,-0.65 -1.73,-1.08 -0.37,-0.46 -0.55,-0.97 -0.55,-1.51l0 -43.67 -40.5 0 0 43.67c0,0.54 -0.17,1.05 -0.51,1.51 -0.32,0.43 -0.91,0.8 -1.74,1.08 -0.83,0.26 -1.94,0.49 -3.33,0.66 -1.37,0.17 -3.17,0.25 -5.3,0.25 -2.11,0 -3.88,-0.08 -5.3,-0.25 -1.42,-0.17 -2.54,-0.4 -3.36,-0.66 -0.83,-0.28 -1.43,-0.65 -1.8,-1.08 -0.37,-0.46 -0.54,-0.97 -0.54,-1.51l0 -102.03c0,-0.55 0.17,-1.06 0.54,-1.51 0.37,-0.43 0.97,-0.8 1.8,-1.09 0.82,-0.28 1.94,-0.48 3.36,-0.65 1.42,-0.17 3.19,-0.26 5.3,-0.26 2.13,0 3.93,0.09 5.3,0.26 1.39,0.17 2.5,0.4 3.33,0.65 0.83,0.29 1.42,0.66 1.74,1.09 0.34,0.45 0.51,0.96 0.51,1.51l0 39.73 40.5 0 0 -39.73c0,-0.55 0.18,-1.06 0.55,-1.51 0.37,-0.43 0.94,-0.8 1.73,-1.09 0.83,-0.25 1.91,-0.48 3.34,-0.65 1.42,-0.17 3.22,-0.26 5.38,-0.26 2.08,0 3.85,0.09 5.21,0.26 1.4,0.17 2.51,0.37 3.34,0.65 0.82,0.29 1.42,0.66 1.79,1.09 0.37,0.45 0.54,0.96 0.54,1.51l0 102.03zm111.41 0.17c0,0.54 -0.17,1.03 -0.54,1.45 -0.37,0.43 -0.97,0.77 -1.8,1.06 -0.82,0.25 -1.96,0.48 -3.38,0.62 -1.43,0.15 -3.2,0.2 -5.3,0.2 -2.11,0 -3.88,-0.05 -5.3,-0.2 -1.43,-0.14 -2.54,-0.37 -3.33,-0.62 -0.83,-0.29 -1.4,-0.63 -1.71,-1.06 -0.35,-0.42 -0.52,-0.91 -0.52,-1.45l0 -56.94c0,-2.17 0.03,-4.3 0.09,-6.38 0.06,-2.11 0.14,-3.96 0.26,-5.56l-0.18 0c-0.45,0.77 -0.96,1.68 -1.59,2.71 -0.63,1.02 -1.28,2.11 -1.97,3.25 -0.71,1.14 -1.45,2.3 -2.22,3.5 -0.8,1.2 -1.56,2.36 -2.33,3.48l-37.52 56.03c-0.45,0.59 -0.91,1.13 -1.37,1.56 -0.48,0.46 -1.08,0.8 -1.85,1.06 -0.74,0.25 -1.65,0.42 -2.73,0.51 -1.08,0.08 -2.51,0.11 -4.22,0.11 -2.16,0 -3.93,-0.05 -5.24,-0.2 -1.34,-0.14 -2.39,-0.37 -3.13,-0.62 -0.77,-0.29 -1.28,-0.66 -1.54,-1.09 -0.28,-0.45 -0.43,-0.99 -0.43,-1.59l0 -102.21c0,-0.54 0.17,-1.02 0.54,-1.45 0.37,-0.43 0.97,-0.77 1.83,-1.05 0.85,-0.26 1.99,-0.49 3.39,-0.63 1.36,-0.14 3.13,-0.2 5.24,-0.2 2.13,0 3.93,0.06 5.3,0.2 1.39,0.14 2.5,0.37 3.33,0.63 0.83,0.28 1.42,0.62 1.74,1.05 0.34,0.43 0.51,0.91 0.51,1.45l0 57.29c0,1.76 -0.03,3.67 -0.09,5.67 -0.05,2.02 -0.14,3.96 -0.25,5.84l0.17 0c0.97,-1.66 2.16,-3.68 3.62,-6.01 1.45,-2.34 2.96,-4.62 4.5,-6.84l37.57 -56.03c0.4,-0.54 0.8,-1.03 1.25,-1.45 0.46,-0.43 1.06,-0.77 1.8,-1.06 0.74,-0.25 1.68,-0.45 2.79,-0.57 1.11,-0.11 2.53,-0.17 4.27,-0.17 2.11,0 3.82,0.06 5.13,0.2 1.31,0.14 2.33,0.37 3.13,0.63 0.77,0.28 1.31,0.62 1.62,1.05 0.32,0.43 0.46,0.94 0.46,1.54l0 102.29zm103.54 -0.09c0,0.6 -0.17,1.12 -0.51,1.54 -0.32,0.43 -0.92,0.77 -1.8,1.06 -0.85,0.25 -2.02,0.48 -3.47,0.62 -1.46,0.15 -3.31,0.2 -5.59,0.2 -2.42,0 -4.36,-0.05 -5.81,-0.2 -1.48,-0.14 -2.68,-0.37 -3.56,-0.68 -0.91,-0.31 -1.57,-0.71 -2.02,-1.25 -0.43,-0.52 -0.77,-1.17 -1,-1.97l-8.69 -24.07c-1.22,-3.53 -2.5,-6.47 -3.84,-8.83 -1.34,-2.36 -2.82,-4.3 -4.44,-5.78 -1.6,-1.45 -3.45,-2.51 -5.5,-3.14 -2.08,-0.59 -4.39,-0.91 -6.95,-0.91l-4.93 0 0 43.33c0,0.6 -0.17,1.11 -0.51,1.54 -0.32,0.42 -0.91,0.77 -1.74,1.08 -0.83,0.31 -1.94,0.54 -3.33,0.68 -1.37,0.15 -3.17,0.2 -5.3,0.2 -2.11,0 -3.88,-0.05 -5.3,-0.2 -1.42,-0.14 -2.54,-0.37 -3.36,-0.68 -0.83,-0.31 -1.43,-0.66 -1.8,-1.08 -0.37,-0.43 -0.54,-0.94 -0.54,-1.54l0 -102.12c0,-0.6 0.17,-1.11 0.54,-1.54 0.37,-0.43 0.97,-0.77 1.8,-1.05 0.82,-0.26 1.94,-0.49 3.36,-0.63 1.42,-0.14 3.19,-0.2 5.3,-0.2 2.13,0 3.93,0.06 5.3,0.2 1.39,0.14 2.5,0.34 3.33,0.63 0.83,0.28 1.42,0.62 1.74,1.05 0.34,0.4 0.51,0.91 0.51,1.54l0 40.51 4.93 0c2.5,0 4.73,-0.35 6.61,-1 1.9,-0.68 3.61,-1.74 5.15,-3.16 1.54,-1.46 2.94,-3.34 4.19,-5.64 1.25,-2.31 2.45,-5.16 3.64,-8.55l7.27 -21.5c0.28,-0.77 0.6,-1.43 1,-1.94 0.39,-0.54 1.02,-0.97 1.88,-1.25 0.85,-0.32 1.99,-0.55 3.41,-0.69 1.4,-0.14 3.31,-0.2 5.7,-0.2 2.17,0 3.96,0.06 5.36,0.2 1.42,0.14 2.53,0.34 3.33,0.6 0.82,0.26 1.37,0.57 1.62,1 0.29,0.42 0.43,0.94 0.43,1.53 0,0.72 -0.11,1.63 -0.37,2.68 -0.26,1.06 -0.68,2.45 -1.31,4.16l-7.24 19.17c-1.34,3.56 -2.67,6.61 -4.01,9.09 -1.34,2.51 -2.74,4.64 -4.22,6.38 -1.45,1.77 -3.02,3.19 -4.67,4.3 -1.62,1.11 -3.45,2.02 -5.44,2.76l0 0.06c2.22,0.97 4.24,2.02 6.04,3.22 1.82,1.22 3.53,2.73 5.13,4.56 1.56,1.85 3.1,4.1 4.55,6.78 1.43,2.67 2.91,5.95 4.42,9.85l8.86 22.42c0.91,2.28 1.42,3.85 1.59,4.73 0.17,0.85 0.26,1.56 0.26,2.13zm108.98 -52.35c0,8.94 -1.11,16.95 -3.33,24.01 -2.22,7.07 -5.53,13.08 -9.94,17.98 -4.39,4.92 -9.83,8.68 -16.3,11.28 -6.49,2.59 -13.98,3.87 -22.5,3.87 -8.4,0 -15.72,-1.11 -21.96,-3.3 -6.27,-2.2 -11.48,-5.53 -15.67,-10.06 -4.16,-4.5 -7.29,-10.23 -9.37,-17.18 -2.08,-6.95 -3.13,-15.18 -3.13,-24.69 0,-8.72 1.11,-16.58 3.33,-23.56 2.22,-6.98 5.52,-12.9 9.94,-17.8 4.39,-4.9 9.83,-8.66 16.29,-11.25 6.5,-2.62 14.02,-3.94 22.59,-3.94 8.18,0 15.38,1.09 21.65,3.25 6.24,2.17 11.48,5.5 15.67,10.03 4.21,4.5 7.37,10.17 9.51,17.03 2.14,6.9 3.22,14.99 3.22,24.33zm-23.07 1.11c0,-5.67 -0.46,-10.82 -1.34,-15.47 -0.89,-4.64 -2.39,-8.63 -4.53,-11.93 -2.14,-3.31 -4.99,-5.87 -8.55,-7.69 -3.56,-1.8 -8,-2.71 -13.33,-2.71 -5.38,0 -9.88,1.03 -13.47,3.05 -3.62,2.02 -6.55,4.76 -8.77,8.15 -2.23,3.38 -3.79,7.34 -4.7,11.87 -0.92,4.56 -1.37,9.35 -1.37,14.42 0,5.89 0.45,11.19 1.34,15.89 0.88,4.7 2.39,8.72 4.5,12.08 2.11,3.33 4.93,5.87 8.49,7.63 3.56,1.74 8.03,2.62 13.41,2.62 5.39,0 9.89,-0.99 13.48,-3.02 3.61,-1.99 6.55,-4.72 8.77,-8.17 2.22,-3.45 3.79,-7.46 4.7,-12.05 0.91,-4.59 1.37,-9.49 1.37,-14.67zm119.69 21.73c0,3.85 -0.54,7.32 -1.6,10.46 -1.05,3.1 -2.5,5.87 -4.35,8.26 -1.88,2.39 -4.11,4.44 -6.67,6.18 -2.59,1.74 -5.44,3.13 -8.55,4.27 -3.1,1.11 -6.43,1.94 -9.97,2.45 -3.53,0.54 -7.46,0.8 -11.79,0.8l-28.68 0c-1.83,0 -3.36,-0.54 -4.62,-1.62 -1.25,-1.09 -1.88,-2.85 -1.88,-5.3l0 -94.17c0,-2.45 0.63,-4.22 1.88,-5.3 1.26,-1.08 2.79,-1.63 4.62,-1.63l27.06 0c6.61,0 12.19,0.57 16.78,1.69 4.58,1.11 8.43,2.79 11.56,5.04 3.16,2.25 5.56,5.1 7.21,8.54 1.68,3.45 2.5,7.49 2.5,12.17 0,2.62 -0.34,5.07 -0.99,7.37 -0.66,2.31 -1.66,4.42 -2.91,6.3 -1.28,1.91 -2.85,3.56 -4.73,5.01 -1.85,1.45 -3.96,2.62 -6.35,3.51 3.05,0.57 5.9,1.53 8.49,2.93 2.59,1.4 4.84,3.19 6.75,5.38 1.94,2.2 3.45,4.79 4.56,7.72 1.11,2.97 1.68,6.27 1.68,9.94zm-28.37 -45.51c0,-2.17 -0.34,-4.11 -1,-5.84 -0.65,-1.71 -1.65,-3.17 -2.99,-4.31 -1.34,-1.14 -3.02,-1.99 -5.04,-2.62 -2.02,-0.59 -4.73,-0.91 -8.12,-0.91l-11.05 0 0 28.03 12.22 0c3.16,0 5.69,-0.37 7.57,-1.14 1.88,-0.74 3.45,-1.76 4.7,-3.07 1.26,-1.31 2.17,-2.85 2.8,-4.59 0.59,-1.77 0.91,-3.59 0.91,-5.55zm5.64 46.31c0,-2.51 -0.43,-4.76 -1.26,-6.75 -0.82,-1.96 -2.05,-3.62 -3.67,-4.96 -1.6,-1.33 -3.65,-2.36 -6.15,-3.1 -2.51,-0.71 -5.76,-1.08 -9.77,-1.08l-12.99 0 0 30.76 15.84 0c3.04,0 5.61,-0.31 7.71,-0.97 2.08,-0.62 3.88,-1.59 5.42,-2.85 1.51,-1.25 2.7,-2.79 3.59,-4.67 0.85,-1.85 1.28,-3.99 1.28,-6.38zm-2559.56 197.61c0,1.66 -0.06,3.05 -0.2,4.19 -0.14,1.14 -0.37,2.05 -0.63,2.73 -0.28,0.72 -0.62,1.2 -1.05,1.51 -0.43,0.32 -0.91,0.46 -1.45,0.46l-35.81 0 0 87.25c0,0.54 -0.17,1.03 -0.54,1.45 -0.37,0.43 -0.97,0.77 -1.8,1.06 -0.82,0.25 -1.96,0.48 -3.33,0.62 -1.39,0.15 -3.19,0.2 -5.35,0.2 -2.11,0 -3.88,-0.05 -5.3,-0.2 -1.43,-0.14 -2.57,-0.37 -3.39,-0.62 -0.83,-0.29 -1.43,-0.63 -1.8,-1.06 -0.37,-0.42 -0.54,-0.91 -0.54,-1.45l0 -98.27c0,-2.34 0.6,-4.08 1.8,-5.22 1.19,-1.14 2.76,-1.71 4.73,-1.71l51.33 0c1.11,0 1.93,0.69 2.5,2.08 0.54,1.4 0.83,3.71 0.83,6.98zm104.91 43.7c0,8.94 -1.11,16.95 -3.33,24.01 -2.22,7.07 -5.53,13.08 -9.94,17.98 -4.39,4.92 -9.83,8.68 -16.3,11.28 -6.49,2.59 -13.98,3.87 -22.5,3.87 -8.4,0 -15.72,-1.11 -21.96,-3.3 -6.27,-2.2 -11.48,-5.53 -15.67,-10.06 -4.16,-4.5 -7.29,-10.23 -9.37,-17.18 -2.08,-6.95 -3.13,-15.18 -3.13,-24.69 0,-8.72 1.11,-16.58 3.33,-23.56 2.22,-6.98 5.52,-12.9 9.94,-17.8 4.39,-4.9 9.83,-8.66 16.29,-11.25 6.5,-2.62 14.02,-3.94 22.59,-3.94 8.18,0 15.38,1.09 21.65,3.25 6.24,2.17 11.48,5.5 15.67,10.03 4.21,4.5 7.37,10.17 9.51,17.03 2.14,6.9 3.22,14.99 3.22,24.33zm-23.07 1.11c0,-5.67 -0.46,-10.82 -1.34,-15.47 -0.89,-4.64 -2.39,-8.63 -4.53,-11.93 -2.14,-3.31 -4.99,-5.87 -8.55,-7.69 -3.56,-1.8 -8,-2.71 -13.33,-2.71 -5.38,0 -9.88,1.03 -13.47,3.05 -3.62,2.02 -6.55,4.76 -8.77,8.15 -2.23,3.38 -3.79,7.34 -4.7,11.87 -0.92,4.56 -1.37,9.35 -1.37,14.42 0,5.89 0.45,11.19 1.34,15.89 0.88,4.7 2.39,8.72 4.5,12.08 2.11,3.33 4.93,5.87 8.49,7.63 3.56,1.74 8.03,2.62 13.41,2.62 5.39,0 9.89,-0.99 13.48,-3.02 3.61,-1.99 6.55,-4.72 8.77,-8.17 2.22,-3.45 3.79,-7.46 4.7,-12.05 0.91,-4.59 1.37,-9.49 1.37,-14.67zm115.59 -21.05c0,6.1 -0.94,11.45 -2.85,16.12 -1.88,4.7 -4.64,8.63 -8.29,11.82 -3.62,3.22 -8.06,5.64 -13.33,7.32 -5.27,1.68 -11.48,2.51 -18.63,2.51l-9.03 0 0 34.44c0,0.57 -0.17,1.05 -0.54,1.51 -0.37,0.43 -0.97,0.8 -1.8,1.08 -0.82,0.29 -1.93,0.49 -3.33,0.66 -1.37,0.17 -3.16,0.25 -5.3,0.25 -2.11,0 -3.87,-0.08 -5.3,-0.25 -1.42,-0.17 -2.53,-0.4 -3.36,-0.66 -0.82,-0.28 -1.42,-0.65 -1.73,-1.08 -0.35,-0.46 -0.52,-0.97 -0.52,-1.51l0 -97.16c0,-2.62 0.69,-4.59 2.05,-5.9 1.37,-1.31 3.17,-1.97 5.39,-1.97l25.46 0c2.57,0 5.02,0.09 7.32,0.29 2.31,0.2 5.07,0.63 8.32,1.25 3.22,0.66 6.5,1.83 9.8,3.56 3.3,1.71 6.15,3.91 8.49,6.56 2.33,2.64 4.13,5.72 5.35,9.28 1.23,3.53 1.83,7.49 1.83,11.88zm-22.91 1.59c0,-3.78 -0.68,-6.92 -2.02,-9.37 -1.34,-2.45 -2.99,-4.27 -4.95,-5.44 -1.97,-1.17 -4.02,-1.91 -6.16,-2.22 -2.16,-0.31 -4.38,-0.46 -6.69,-0.46l-9.4 0 0 36.75 9.91 0c3.53,0 6.47,-0.48 8.86,-1.42 2.37,-0.94 4.33,-2.28 5.84,-3.99 1.51,-1.68 2.65,-3.73 3.45,-6.1 0.77,-2.36 1.16,-4.95 1.16,-7.75zm124.11 70.62c0,0.54 -0.17,1.05 -0.54,1.51 -0.37,0.43 -0.97,0.8 -1.79,1.08 -0.83,0.26 -1.94,0.49 -3.34,0.66 -1.36,0.17 -3.13,0.25 -5.21,0.25 -2.16,0 -3.96,-0.08 -5.38,-0.25 -1.43,-0.17 -2.51,-0.4 -3.34,-0.66 -0.79,-0.28 -1.36,-0.65 -1.73,-1.08 -0.37,-0.46 -0.55,-0.97 -0.55,-1.51l0 -43.67 -40.5 0 0 43.67c0,0.54 -0.17,1.05 -0.51,1.51 -0.32,0.43 -0.91,0.8 -1.74,1.08 -0.83,0.26 -1.94,0.49 -3.33,0.66 -1.37,0.17 -3.17,0.25 -5.3,0.25 -2.11,0 -3.88,-0.08 -5.3,-0.25 -1.42,-0.17 -2.54,-0.4 -3.36,-0.66 -0.83,-0.28 -1.43,-0.65 -1.8,-1.08 -0.37,-0.46 -0.54,-0.97 -0.54,-1.51l0 -102.03c0,-0.55 0.17,-1.06 0.54,-1.51 0.37,-0.43 0.97,-0.8 1.8,-1.09 0.82,-0.28 1.94,-0.48 3.36,-0.65 1.42,-0.17 3.19,-0.26 5.3,-0.26 2.13,0 3.93,0.09 5.3,0.26 1.39,0.17 2.5,0.4 3.33,0.65 0.83,0.29 1.42,0.66 1.74,1.09 0.34,0.45 0.51,0.96 0.51,1.51l0 39.73 40.5 0 0 -39.73c0,-0.55 0.18,-1.06 0.55,-1.51 0.37,-0.43 0.94,-0.8 1.73,-1.09 0.83,-0.25 1.91,-0.48 3.34,-0.65 1.42,-0.17 3.22,-0.26 5.38,-0.26 2.08,0 3.85,0.09 5.21,0.26 1.4,0.17 2.51,0.37 3.34,0.65 0.82,0.29 1.42,0.66 1.79,1.09 0.37,0.45 0.54,0.96 0.54,1.51l0 102.03z"/>
    <path class="fil3" d="M1779.74 506.02c0,8.94 -1.11,16.95 -3.33,24.01 -2.22,7.07 -5.53,13.08 -9.94,17.98 -4.39,4.92 -9.83,8.68 -16.3,11.28 -6.49,2.59 -13.98,3.87 -22.5,3.87 -8.4,0 -15.72,-1.11 -21.96,-3.3 -6.27,-2.2 -11.48,-5.53 -15.67,-10.06 -4.16,-4.5 -7.29,-10.23 -9.37,-17.18 -2.08,-6.95 -3.13,-15.18 -3.13,-24.69 0,-8.72 1.11,-16.58 3.33,-23.56 2.22,-6.98 5.52,-12.9 9.94,-17.8 4.39,-4.9 9.83,-8.66 16.29,-11.25 6.5,-2.62 14.02,-3.94 22.59,-3.94 8.18,0 15.38,1.09 21.65,3.25 6.24,2.17 11.48,5.5 15.67,10.03 4.21,4.5 7.37,10.17 9.51,17.03 2.14,6.9 3.22,14.99 3.22,24.33zm-23.07 1.11c0,-5.67 -0.46,-10.82 -1.34,-15.47 -0.89,-4.64 -2.39,-8.63 -4.53,-11.93 -2.14,-3.31 -4.99,-5.87 -8.55,-7.69 -3.56,-1.8 -8,-2.71 -13.33,-2.71 -5.38,0 -9.88,1.03 -13.47,3.05 -3.62,2.02 -6.55,4.76 -8.77,8.15 -2.23,3.38 -3.79,7.34 -4.7,11.87 -0.92,4.56 -1.37,9.35 -1.37,14.42 0,5.89 0.45,11.19 1.34,15.89 0.88,4.7 2.39,8.72 4.5,12.08 2.11,3.33 4.93,5.87 8.49,7.63 3.56,1.74 8.03,2.62 13.41,2.62 5.39,0 9.89,-0.99 13.48,-3.02 3.61,-1.99 6.55,-4.72 8.77,-8.17 2.22,-3.45 3.79,-7.46 4.7,-12.05 0.91,-4.59 1.37,-9.49 1.37,-14.67zm77.3 12.11c0,3.24 -0.31,5.49 -0.91,6.78 -0.63,1.28 -1.59,1.93 -2.93,1.93l-34.78 0c-1.4,0 -2.4,-0.65 -3.02,-1.96 -0.6,-1.31 -0.91,-3.56 -0.91,-6.75 0,-3.14 0.31,-5.33 0.91,-6.61 0.62,-1.28 1.62,-1.94 3.02,-1.94l34.78 0c0.68,0 1.25,0.14 1.71,0.43 0.48,0.28 0.88,0.74 1.22,1.42 0.31,0.66 0.57,1.57 0.71,2.68 0.15,1.11 0.2,2.45 0.2,4.02zm142.4 39.05c0,0.54 -0.14,1.05 -0.45,1.51 -0.32,0.43 -0.89,0.8 -1.68,1.08 -0.8,0.26 -1.88,0.49 -3.22,0.66 -1.34,0.17 -3.05,0.25 -5.1,0.25 -2.02,0 -3.7,-0.08 -5.04,-0.25 -1.34,-0.17 -2.4,-0.4 -3.19,-0.66 -0.77,-0.28 -1.34,-0.65 -1.66,-1.08 -0.34,-0.46 -0.51,-0.97 -0.51,-1.51l0 -87.93 -0.17 0 -31.19 87.84c-0.23,0.72 -0.57,1.31 -1.08,1.8 -0.52,0.48 -1.17,0.85 -2.05,1.14 -0.86,0.25 -1.97,0.45 -3.28,0.54 -1.34,0.08 -2.96,0.11 -4.84,0.11 -1.91,0 -3.51,-0.05 -4.84,-0.2 -1.34,-0.14 -2.45,-0.37 -3.31,-0.68 -0.85,-0.31 -1.54,-0.68 -2.05,-1.11 -0.48,-0.46 -0.83,-1 -1,-1.6l-30.11 -87.84 -0.17 0 0 87.93c0,0.54 -0.14,1.05 -0.45,1.51 -0.32,0.43 -0.88,0.8 -1.71,1.08 -0.86,0.26 -1.94,0.49 -3.25,0.66 -1.31,0.17 -2.99,0.25 -5.04,0.25 -2.02,0 -3.7,-0.08 -5.04,-0.25 -1.34,-0.17 -2.42,-0.4 -3.22,-0.66 -0.8,-0.28 -1.37,-0.65 -1.68,-1.08 -0.31,-0.46 -0.46,-0.97 -0.46,-1.51l0 -96.25c0,-2.85 0.74,-5.02 2.25,-6.52 1.51,-1.51 3.51,-2.26 6.04,-2.26l14.36 0c2.56,0 4.78,0.2 6.61,0.63 1.85,0.43 3.44,1.11 4.78,2.08 1.31,0.97 2.45,2.25 3.34,3.85 0.88,1.59 1.68,3.56 2.33,5.89l23.27 64.35 0.34 0 24.1 -64.2c0.72,-2.34 1.51,-4.31 2.37,-5.93 0.88,-1.59 1.88,-2.91 3.02,-3.9 1.14,-1 2.5,-1.71 4.04,-2.14 1.57,-0.43 3.39,-0.63 5.44,-0.63l14.81 0c1.51,0 2.8,0.2 3.88,0.6 1.08,0.37 1.99,0.94 2.68,1.71 0.71,0.74 1.22,1.65 1.59,2.74 0.37,1.08 0.54,2.33 0.54,3.73l0 96.25zm87.51 -5.64c0,1.62 -0.05,2.96 -0.2,4.07 -0.14,1.08 -0.34,1.97 -0.62,2.62 -0.29,0.69 -0.63,1.17 -1.06,1.48 -0.4,0.32 -0.88,0.46 -1.36,0.46l-54.18 0c-1.83,0 -3.36,-0.54 -4.62,-1.62 -1.25,-1.09 -1.88,-2.85 -1.88,-5.3l0 -94.17c0,-2.45 0.63,-4.22 1.88,-5.3 1.26,-1.08 2.79,-1.63 4.62,-1.63l53.92 0c0.48,0 0.94,0.15 1.34,0.43 0.37,0.29 0.71,0.77 1,1.45 0.25,0.72 0.48,1.6 0.62,2.68 0.14,1.11 0.2,2.48 0.2,4.16 0,1.57 -0.06,2.88 -0.2,3.99 -0.14,1.08 -0.34,1.96 -0.62,2.62 -0.29,0.68 -0.63,1.17 -1,1.48 -0.4,0.31 -0.86,0.46 -1.34,0.46l-38.54 0 0 26.32 32.47 0c0.51,0 0.97,0.14 1.37,0.45 0.43,0.32 0.77,0.77 1.05,1.43 0.29,0.62 0.49,1.48 0.63,2.59 0.14,1.08 0.2,2.39 0.2,3.93 0,1.62 -0.06,2.96 -0.2,4.02 -0.14,1.05 -0.34,1.9 -0.63,2.53 -0.28,0.66 -0.62,1.11 -1.05,1.37 -0.4,0.28 -0.86,0.43 -1.37,0.43l-32.47 0 0 30.42 38.8 0c0.51,0 0.96,0.14 1.36,0.45 0.43,0.32 0.77,0.8 1.06,1.49 0.28,0.65 0.48,1.53 0.62,2.62 0.15,1.11 0.2,2.45 0.2,4.07zm90.64 -90.38c0,1.62 -0.05,2.99 -0.19,4.15 -0.15,1.14 -0.35,2.06 -0.63,2.74 -0.29,0.71 -0.63,1.22 -1.06,1.54 -0.39,0.34 -0.88,0.51 -1.36,0.51l-27.01 0 0 87.08c0,0.54 -0.17,1.05 -0.54,1.51 -0.37,0.43 -0.97,0.8 -1.79,1.08 -0.83,0.26 -1.97,0.49 -3.39,0.66 -1.43,0.17 -3.19,0.25 -5.3,0.25 -2.11,0 -3.87,-0.08 -5.3,-0.25 -1.42,-0.17 -2.56,-0.4 -3.39,-0.66 -0.82,-0.28 -1.42,-0.65 -1.79,-1.08 -0.37,-0.46 -0.54,-0.97 -0.54,-1.51l0 -87.08 -27.01 0c-0.54,0 -1.02,-0.17 -1.42,-0.51 -0.37,-0.32 -0.71,-0.83 -1,-1.54 -0.25,-0.68 -0.48,-1.6 -0.63,-2.74 -0.14,-1.16 -0.19,-2.53 -0.19,-4.15 0,-1.66 0.05,-3.08 0.19,-4.25 0.15,-1.17 0.38,-2.11 0.63,-2.79 0.29,-0.71 0.63,-1.2 1,-1.51 0.4,-0.31 0.88,-0.46 1.42,-0.46l76.06 0c0.48,0 0.94,0.15 1.36,0.46 0.43,0.31 0.77,0.8 1.06,1.51 0.28,0.68 0.48,1.62 0.63,2.79 0.14,1.17 0.19,2.59 0.19,4.25zm89.71 90.83c0.65,2 1.08,3.59 1.25,4.76 0.17,1.17 -0.05,2.05 -0.65,2.65 -0.63,0.57 -1.71,0.94 -3.28,1.08 -1.54,0.15 -3.7,0.2 -6.41,0.2 -2.85,0 -5.07,-0.03 -6.64,-0.11 -1.59,-0.09 -2.79,-0.26 -3.64,-0.51 -0.83,-0.26 -1.4,-0.6 -1.74,-1.06 -0.34,-0.43 -0.63,-1.02 -0.82,-1.74l-7.1 -21.7 -40.73 0 -6.81 21.11c-0.23,0.79 -0.51,1.45 -0.88,1.96 -0.34,0.54 -0.94,0.94 -1.74,1.26 -0.8,0.31 -1.94,0.51 -3.42,0.62 -1.48,0.12 -3.42,0.17 -5.81,0.17 -2.56,0 -4.56,-0.08 -6.01,-0.25 -1.45,-0.17 -2.45,-0.57 -2.99,-1.2 -0.57,-0.66 -0.77,-1.57 -0.6,-2.73 0.17,-1.17 0.6,-2.71 1.26,-4.68l33.27 -95.85c0.31,-0.94 0.71,-1.71 1.16,-2.28 0.43,-0.6 1.14,-1.02 2.11,-1.34 1,-0.31 2.34,-0.51 4.07,-0.59 1.71,-0.09 3.99,-0.12 6.84,-0.12 3.28,0 5.9,0.03 7.83,0.12 1.97,0.08 3.48,0.28 4.56,0.59 1.08,0.32 1.85,0.77 2.34,1.37 0.45,0.63 0.88,1.45 1.19,2.51l33.39 95.76zm-49.57 -79.3l-0.08 0 -15.04 45.95 30.31 0 -15.19 -45.95zm148.61 84.66c0,0.54 -0.17,1.03 -0.51,1.45 -0.32,0.43 -0.91,0.77 -1.74,1.06 -0.83,0.25 -1.97,0.48 -3.39,0.62 -1.42,0.15 -3.19,0.2 -5.3,0.2 -2.16,0 -3.96,-0.05 -5.35,-0.2 -1.37,-0.14 -2.51,-0.37 -3.34,-0.62 -0.82,-0.29 -1.42,-0.63 -1.73,-1.06 -0.35,-0.42 -0.52,-0.91 -0.52,-1.45l0 -87.25 -23.07 0c-1.57,12.76 -3.16,23.9 -4.79,33.44 -1.59,9.52 -3.33,17.69 -5.18,24.47 -1.82,6.81 -3.87,12.39 -6.07,16.72 -2.19,4.36 -4.73,7.81 -7.52,10.34 -2.82,2.54 -6.01,4.27 -9.57,5.21 -3.53,0.94 -7.57,1.43 -12.08,1.43 -0.85,0 -1.56,-0.12 -2.19,-0.34 -0.6,-0.2 -1.08,-0.63 -1.45,-1.26 -0.37,-0.6 -0.63,-1.45 -0.8,-2.56 -0.17,-1.11 -0.26,-2.54 -0.26,-4.24 0,-2.4 0.06,-4.33 0.18,-5.82 0.11,-1.45 0.31,-2.59 0.57,-3.39 0.28,-0.82 0.65,-1.36 1.11,-1.62 0.42,-0.28 0.96,-0.43 1.59,-0.43 1.71,0 3.39,-0.34 4.96,-1.05 1.59,-0.68 3.13,-2.05 4.61,-4.13 1.48,-2.05 2.91,-4.96 4.27,-8.69 1.37,-3.73 2.71,-8.63 4.02,-14.75 1.31,-6.1 2.62,-13.53 3.93,-22.31 1.31,-8.77 2.65,-19.2 3.99,-31.27 0.34,-2.85 1,-4.85 1.99,-5.99 1,-1.14 2.48,-1.71 4.42,-1.71l52.95 0c2.03,0 3.56,0.57 4.65,1.71 1.08,1.14 1.62,2.88 1.62,5.22l0 98.27zm107.47 0c0,0.54 -0.17,1.03 -0.51,1.45 -0.32,0.43 -0.91,0.77 -1.74,1.06 -0.83,0.25 -1.97,0.48 -3.39,0.62 -1.42,0.15 -3.19,0.2 -5.3,0.2 -2.16,0 -3.96,-0.05 -5.35,-0.2 -1.37,-0.14 -2.51,-0.37 -3.34,-0.62 -0.82,-0.29 -1.42,-0.63 -1.73,-1.06 -0.35,-0.42 -0.52,-0.91 -0.52,-1.45l0 -87.25 -23.07 0c-1.57,12.76 -3.16,23.9 -4.79,33.44 -1.59,9.52 -3.33,17.69 -5.18,24.47 -1.82,6.81 -3.87,12.39 -6.07,16.72 -2.19,4.36 -4.73,7.81 -7.52,10.34 -2.82,2.54 -6.01,4.27 -9.57,5.21 -3.53,0.94 -7.57,1.43 -12.08,1.43 -0.85,0 -1.56,-0.12 -2.19,-0.34 -0.6,-0.2 -1.08,-0.63 -1.45,-1.26 -0.37,-0.6 -0.63,-1.45 -0.8,-2.56 -0.17,-1.11 -0.26,-2.54 -0.26,-4.24 0,-2.4 0.06,-4.33 0.18,-5.82 0.11,-1.45 0.31,-2.59 0.57,-3.39 0.28,-0.82 0.65,-1.36 1.11,-1.62 0.42,-0.28 0.96,-0.43 1.59,-0.43 1.71,0 3.39,-0.34 4.96,-1.05 1.59,-0.68 3.13,-2.05 4.61,-4.13 1.48,-2.05 2.91,-4.96 4.27,-8.69 1.37,-3.73 2.71,-8.63 4.02,-14.75 1.31,-6.1 2.62,-13.53 3.93,-22.31 1.31,-8.77 2.65,-19.2 3.99,-31.27 0.34,-2.85 1,-4.85 1.99,-5.99 1,-1.14 2.48,-1.71 4.42,-1.71l52.95 0c2.03,0 3.56,0.57 4.65,1.71 1.08,1.14 1.62,2.88 1.62,5.22l0 98.27zm74.85 -27c-2.45,6.21 -4.84,11.36 -7.2,15.41 -2.37,4.07 -4.9,7.29 -7.58,9.65 -2.71,2.37 -5.64,3.99 -8.83,4.93 -3.19,0.91 -6.84,1.37 -10.94,1.37 -1.51,0 -2.96,-0.09 -4.41,-0.29 -1.46,-0.2 -2.79,-0.45 -4.08,-0.79 -1.28,-0.35 -2.39,-0.74 -3.33,-1.17 -0.94,-0.46 -1.62,-0.89 -2.08,-1.26 -0.45,-0.39 -0.8,-0.82 -1.05,-1.31 -0.23,-0.45 -0.46,-1.08 -0.6,-1.88 -0.17,-0.76 -0.31,-1.76 -0.4,-2.96 -0.09,-1.19 -0.11,-2.7 -0.11,-4.47 0,-3.25 0.22,-5.53 0.71,-6.89 0.45,-1.37 1.19,-2.05 2.19,-2.05 0.51,0 1.06,0.19 1.65,0.59 0.63,0.37 1.37,0.8 2.23,1.23 0.85,0.45 1.85,0.85 2.99,1.22 1.14,0.37 2.47,0.54 4.01,0.54 1.17,0 2.25,-0.11 3.25,-0.37 1,-0.25 1.94,-0.74 2.82,-1.45 0.88,-0.71 1.77,-1.74 2.65,-3.05 0.88,-1.28 1.85,-2.99 2.85,-5.1l-35.52 -72.35c-0.77,-1.73 -1.23,-3.13 -1.37,-4.21 -0.14,-1.09 0.11,-1.94 0.77,-2.54 0.68,-0.62 1.82,-1.02 3.39,-1.22 1.59,-0.2 3.73,-0.29 6.41,-0.29 2.62,0 4.7,0.06 6.26,0.17 1.57,0.12 2.82,0.34 3.76,0.72 0.94,0.34 1.69,0.88 2.17,1.56 0.51,0.71 1,1.63 1.51,2.74l15.12 32.7c1.69,3.5 3.25,7 4.73,10.48 1.51,3.47 2.97,6.98 4.33,10.54l0.26 0c1.11,-3.73 2.31,-7.35 3.56,-10.88 1.25,-3.53 2.62,-7.24 4.13,-11.14l12.48 -33.21c0.28,-0.77 0.62,-1.4 1.08,-1.88 0.45,-0.49 1.11,-0.86 1.99,-1.14 0.89,-0.26 2.11,-0.46 3.68,-0.54 1.54,-0.09 3.56,-0.12 6.06,-0.12 2.54,0 4.59,0.09 6.07,0.26 1.51,0.17 2.59,0.48 3.25,0.94 0.68,0.48 0.97,1.14 0.91,1.96 -0.06,0.86 -0.31,1.94 -0.82,3.28l-28.95 72.27zm116.25 -45.38c0,6.1 -0.94,11.45 -2.85,16.12 -1.88,4.7 -4.64,8.63 -8.29,11.82 -3.62,3.22 -8.06,5.64 -13.33,7.32 -5.27,1.68 -11.48,2.51 -18.63,2.51l-9.03 0 0 34.44c0,0.57 -0.17,1.05 -0.54,1.51 -0.37,0.43 -0.97,0.8 -1.8,1.08 -0.82,0.29 -1.93,0.49 -3.33,0.66 -1.37,0.17 -3.16,0.25 -5.3,0.25 -2.11,0 -3.87,-0.08 -5.3,-0.25 -1.42,-0.17 -2.53,-0.4 -3.36,-0.66 -0.82,-0.28 -1.42,-0.65 -1.73,-1.08 -0.35,-0.46 -0.52,-0.97 -0.52,-1.51l0 -97.16c0,-2.62 0.69,-4.59 2.05,-5.9 1.37,-1.31 3.17,-1.97 5.39,-1.97l25.46 0c2.57,0 5.02,0.09 7.32,0.29 2.31,0.2 5.07,0.63 8.32,1.25 3.22,0.66 6.5,1.83 9.8,3.56 3.3,1.71 6.15,3.91 8.49,6.56 2.33,2.64 4.13,5.72 5.35,9.28 1.23,3.53 1.83,7.49 1.83,11.88zm-22.91 1.59c0,-3.78 -0.68,-6.92 -2.02,-9.37 -1.34,-2.45 -2.99,-4.27 -4.95,-5.44 -1.97,-1.17 -4.02,-1.91 -6.16,-2.22 -2.16,-0.31 -4.38,-0.46 -6.69,-0.46l-9.4 0 0 36.75 9.91 0c3.53,0 6.47,-0.48 8.86,-1.42 2.37,-0.94 4.33,-2.28 5.84,-3.99 1.51,-1.68 2.65,-3.73 3.45,-6.1 0.77,-2.36 1.16,-4.95 1.16,-7.75zm101.04 -25.35c0,1.66 -0.06,3.05 -0.2,4.19 -0.14,1.14 -0.37,2.05 -0.63,2.73 -0.28,0.72 -0.62,1.2 -1.05,1.51 -0.43,0.32 -0.91,0.46 -1.45,0.46l-35.81 0 0 87.25c0,0.54 -0.17,1.03 -0.54,1.45 -0.37,0.43 -0.97,0.77 -1.8,1.06 -0.82,0.25 -1.96,0.48 -3.33,0.62 -1.39,0.15 -3.19,0.2 -5.35,0.2 -2.11,0 -3.88,-0.05 -5.3,-0.2 -1.43,-0.14 -2.57,-0.37 -3.39,-0.62 -0.83,-0.29 -1.43,-0.63 -1.8,-1.06 -0.37,-0.42 -0.54,-0.91 -0.54,-1.45l0 -98.27c0,-2.34 0.6,-4.08 1.8,-5.22 1.19,-1.14 2.76,-1.71 4.73,-1.71l51.33 0c1.11,0 1.93,0.69 2.5,2.08 0.54,1.4 0.83,3.71 0.83,6.98zm100.52 96.14c0,0.54 -0.17,1.03 -0.54,1.45 -0.37,0.43 -0.97,0.77 -1.8,1.06 -0.82,0.25 -1.96,0.48 -3.38,0.62 -1.43,0.15 -3.2,0.2 -5.3,0.2 -2.11,0 -3.88,-0.05 -5.3,-0.2 -1.43,-0.14 -2.54,-0.37 -3.33,-0.62 -0.83,-0.29 -1.4,-0.63 -1.71,-1.06 -0.35,-0.42 -0.52,-0.91 -0.52,-1.45l0 -56.94c0,-2.17 0.03,-4.3 0.09,-6.38 0.06,-2.11 0.14,-3.96 0.26,-5.56l-0.18 0c-0.45,0.77 -0.96,1.68 -1.59,2.71 -0.63,1.02 -1.28,2.11 -1.97,3.25 -0.71,1.14 -1.45,2.3 -2.22,3.5 -0.8,1.2 -1.56,2.36 -2.33,3.48l-37.52 56.03c-0.45,0.59 -0.91,1.13 -1.37,1.56 -0.48,0.46 -1.08,0.8 -1.85,1.06 -0.74,0.25 -1.65,0.42 -2.73,0.51 -1.08,0.08 -2.51,0.11 -4.22,0.11 -2.16,0 -3.93,-0.05 -5.24,-0.2 -1.34,-0.14 -2.39,-0.37 -3.13,-0.62 -0.77,-0.29 -1.28,-0.66 -1.54,-1.09 -0.28,-0.45 -0.43,-0.99 -0.43,-1.59l0 -102.21c0,-0.54 0.17,-1.02 0.54,-1.45 0.37,-0.43 0.97,-0.77 1.83,-1.05 0.85,-0.26 1.99,-0.49 3.39,-0.63 1.36,-0.14 3.13,-0.2 5.24,-0.2 2.13,0 3.93,0.06 5.3,0.2 1.39,0.14 2.5,0.37 3.33,0.63 0.83,0.28 1.42,0.62 1.74,1.05 0.34,0.43 0.51,0.91 0.51,1.45l0 57.29c0,1.76 -0.03,3.67 -0.09,5.67 -0.05,2.02 -0.14,3.96 -0.25,5.84l0.17 0c0.97,-1.66 2.16,-3.68 3.62,-6.01 1.45,-2.34 2.96,-4.62 4.5,-6.84l37.57 -56.03c0.4,-0.54 0.8,-1.03 1.25,-1.45 0.46,-0.43 1.06,-0.77 1.8,-1.06 0.74,-0.25 1.68,-0.45 2.79,-0.57 1.11,-0.11 2.53,-0.17 4.27,-0.17 2.11,0 3.82,0.06 5.13,0.2 1.31,0.14 2.33,0.37 3.13,0.63 0.77,0.28 1.31,0.62 1.62,1.05 0.32,0.43 0.46,0.94 0.46,1.54l0 102.29zm97.39 -0.09c0,0.55 -0.18,1.03 -0.55,1.46 -0.37,0.42 -0.94,0.77 -1.73,1.05 -0.83,0.26 -1.88,0.49 -3.25,0.66 -1.37,0.17 -3.11,0.25 -5.21,0.25 -2.05,0 -3.79,-0.08 -5.19,-0.25 -1.42,-0.17 -2.56,-0.4 -3.44,-0.66 -0.92,-0.28 -1.54,-0.63 -1.94,-1.05 -0.37,-0.43 -0.57,-0.91 -0.57,-1.46l0 -36.88c-2.96,0.28 -5.84,0.51 -8.69,0.71 -2.85,0.2 -5.72,0.28 -8.6,0.28 -5.98,0 -11.39,-0.54 -16.27,-1.59 -4.87,-1.06 -9.08,-2.91 -12.61,-5.56 -3.54,-2.62 -6.27,-6.26 -8.21,-10.85 -1.91,-4.59 -2.88,-10.4 -2.88,-17.4l0 -30.91c0,-0.54 0.18,-1.03 0.52,-1.45 0.31,-0.43 0.88,-0.77 1.71,-1.06 0.79,-0.28 1.88,-0.48 3.24,-0.65 1.37,-0.17 3.08,-0.26 5.13,-0.26 2.14,0 3.9,0.09 5.3,0.26 1.42,0.17 2.59,0.37 3.47,0.65 0.89,0.29 1.54,0.63 1.91,1.06 0.4,0.4 0.6,0.88 0.6,1.45l0 28.68c0,3.34 0.34,6.24 1.06,8.69 0.68,2.42 1.85,4.47 3.47,6.07 1.6,1.62 3.73,2.85 6.38,3.67 2.65,0.83 5.95,1.26 9.91,1.26 2.51,0 4.96,-0.09 7.35,-0.29 2.42,-0.2 4.82,-0.42 7.21,-0.71l0 -47.37c0,-0.57 0.2,-1.05 0.57,-1.45 0.4,-0.43 1.02,-0.77 1.94,-1.06 0.88,-0.28 2.02,-0.48 3.44,-0.65 1.4,-0.17 3.14,-0.26 5.19,-0.26 2.1,0 3.84,0.09 5.21,0.26 1.37,0.17 2.42,0.37 3.25,0.65 0.79,0.29 1.36,0.63 1.73,1.06 0.37,0.42 0.55,0.91 0.55,1.45l0 102.2zm87.38 -5.72c0,1.62 -0.05,2.96 -0.2,4.07 -0.14,1.08 -0.34,1.97 -0.62,2.62 -0.29,0.69 -0.63,1.17 -1.06,1.48 -0.4,0.32 -0.88,0.46 -1.36,0.46l-54.18 0c-1.83,0 -3.36,-0.54 -4.62,-1.62 -1.25,-1.09 -1.88,-2.85 -1.88,-5.3l0 -94.17c0,-2.45 0.63,-4.22 1.88,-5.3 1.26,-1.08 2.79,-1.63 4.62,-1.63l53.92 0c0.48,0 0.94,0.15 1.34,0.43 0.37,0.29 0.71,0.77 1,1.45 0.25,0.72 0.48,1.6 0.62,2.68 0.14,1.11 0.2,2.48 0.2,4.16 0,1.57 -0.06,2.88 -0.2,3.99 -0.14,1.08 -0.34,1.96 -0.62,2.62 -0.29,0.68 -0.63,1.17 -1,1.48 -0.4,0.31 -0.86,0.46 -1.34,0.46l-38.54 0 0 26.32 32.47 0c0.51,0 0.97,0.14 1.37,0.45 0.43,0.32 0.77,0.77 1.05,1.43 0.29,0.62 0.49,1.48 0.63,2.59 0.14,1.08 0.2,2.39 0.2,3.93 0,1.62 -0.06,2.96 -0.2,4.02 -0.14,1.05 -0.34,1.9 -0.63,2.53 -0.28,0.66 -0.62,1.11 -1.05,1.37 -0.4,0.28 -0.86,0.43 -1.37,0.43l-32.47 0 0 30.42 38.8 0c0.51,0 0.96,0.14 1.36,0.45 0.43,0.32 0.77,0.8 1.06,1.49 0.28,0.65 0.48,1.53 0.62,2.62 0.15,1.11 0.2,2.45 0.2,4.07zm90.3 -7.69c0,1.39 -0.03,2.59 -0.11,3.56 -0.09,0.97 -0.23,1.82 -0.4,2.51 -0.14,0.71 -0.37,1.31 -0.66,1.82 -0.28,0.48 -0.71,1.05 -1.34,1.68 -0.59,0.63 -1.79,1.45 -3.53,2.45 -1.76,0.97 -3.9,1.94 -6.44,2.85 -2.53,0.88 -5.41,1.65 -8.66,2.25 -3.24,0.6 -6.77,0.91 -10.56,0.91 -7.38,0 -14.05,-1.14 -20,-3.42 -5.95,-2.28 -11.02,-5.7 -15.18,-10.23 -4.19,-4.52 -7.38,-10.16 -9.6,-16.97 -2.22,-6.78 -3.33,-14.67 -3.33,-23.67 0,-9.18 1.22,-17.32 3.67,-24.44 2.45,-7.12 5.87,-13.11 10.25,-17.95 4.39,-4.84 9.66,-8.49 15.81,-10.99 6.13,-2.51 12.91,-3.76 20.31,-3.76 2.99,0 5.87,0.25 8.66,0.76 2.79,0.49 5.36,1.14 7.72,1.97 2.37,0.8 4.47,1.74 6.38,2.79 1.88,1.08 3.22,2 3.96,2.74 0.74,0.77 1.26,1.39 1.54,1.88 0.29,0.51 0.51,1.14 0.66,1.9 0.17,0.8 0.31,1.71 0.39,2.77 0.09,1.05 0.12,2.33 0.12,3.9 0,1.65 -0.06,3.08 -0.17,4.24 -0.12,1.17 -0.32,2.11 -0.57,2.82 -0.29,0.72 -0.63,1.26 -1,1.57 -0.4,0.34 -0.85,0.51 -1.34,0.51 -0.82,0 -1.88,-0.48 -3.16,-1.45 -1.28,-0.97 -2.93,-2.05 -4.96,-3.25 -2.02,-1.19 -4.44,-2.27 -7.26,-3.24 -2.79,-0.97 -6.12,-1.46 -10.03,-1.46 -4.27,0 -8.09,0.89 -11.45,2.62 -3.36,1.77 -6.21,4.25 -8.57,7.5 -2.37,3.27 -4.16,7.2 -5.38,11.82 -1.23,4.58 -1.83,9.8 -1.83,15.58 0,6.32 0.66,11.82 1.97,16.46 1.31,4.62 3.16,8.46 5.58,11.45 2.39,3 5.33,5.25 8.75,6.7 3.41,1.48 7.26,2.22 11.53,2.22 3.88,0 7.24,-0.46 10.09,-1.37 2.82,-0.91 5.24,-1.93 7.26,-3.02 2.05,-1.11 3.7,-2.1 5.01,-2.99 1.31,-0.88 2.31,-1.34 3.05,-1.34 0.54,0 1,0.12 1.31,0.35 0.34,0.22 0.63,0.65 0.86,1.33 0.19,0.66 0.37,1.6 0.48,2.8 0.11,1.22 0.17,2.82 0.17,4.84z"/>
    <path class="fil3" d="M3191.33 558.37c0,0.6 -0.17,1.12 -0.51,1.54 -0.32,0.43 -0.92,0.77 -1.8,1.06 -0.85,0.25 -2.02,0.48 -3.47,0.62 -1.46,0.15 -3.31,0.2 -5.59,0.2 -2.42,0 -4.36,-0.05 -5.81,-0.2 -1.48,-0.14 -2.68,-0.37 -3.56,-0.68 -0.91,-0.31 -1.57,-0.71 -2.02,-1.25 -0.43,-0.52 -0.77,-1.17 -1,-1.97l-8.69 -24.07c-1.22,-3.53 -2.5,-6.47 -3.84,-8.83 -1.34,-2.36 -2.82,-4.3 -4.44,-5.78 -1.6,-1.45 -3.45,-2.51 -5.5,-3.14 -2.08,-0.59 -4.39,-0.91 -6.95,-0.91l-4.93 0 0 43.33c0,0.6 -0.17,1.11 -0.51,1.54 -0.32,0.42 -0.91,0.77 -1.74,1.08 -0.83,0.31 -1.94,0.54 -3.33,0.68 -1.37,0.15 -3.17,0.2 -5.3,0.2 -2.11,0 -3.88,-0.05 -5.3,-0.2 -1.42,-0.14 -2.54,-0.37 -3.36,-0.68 -0.83,-0.31 -1.43,-0.66 -1.8,-1.08 -0.37,-0.43 -0.54,-0.94 -0.54,-1.54l0 -102.12c0,-0.6 0.17,-1.11 0.54,-1.54 0.37,-0.43 0.97,-0.77 1.8,-1.05 0.82,-0.26 1.94,-0.49 3.36,-0.63 1.42,-0.14 3.19,-0.2 5.3,-0.2 2.13,0 3.93,0.06 5.3,0.2 1.39,0.14 2.5,0.34 3.33,0.63 0.83,0.28 1.42,0.62 1.74,1.05 0.34,0.4 0.51,0.91 0.51,1.54l0 40.51 4.93 0c2.5,0 4.73,-0.35 6.61,-1 1.9,-0.68 3.61,-1.74 5.15,-3.16 1.54,-1.46 2.94,-3.34 4.19,-5.64 1.25,-2.31 2.45,-5.16 3.64,-8.55l7.27 -21.5c0.28,-0.77 0.6,-1.43 1,-1.94 0.39,-0.54 1.02,-0.97 1.88,-1.25 0.85,-0.32 1.99,-0.55 3.41,-0.69 1.4,-0.14 3.31,-0.2 5.7,-0.2 2.17,0 3.96,0.06 5.36,0.2 1.42,0.14 2.53,0.34 3.33,0.6 0.82,0.26 1.37,0.57 1.62,1 0.29,0.42 0.43,0.94 0.43,1.53 0,0.72 -0.11,1.63 -0.37,2.68 -0.26,1.06 -0.68,2.45 -1.31,4.16l-7.24 19.17c-1.34,3.56 -2.67,6.61 -4.01,9.09 -1.34,2.51 -2.74,4.64 -4.22,6.38 -1.45,1.77 -3.02,3.19 -4.67,4.3 -1.62,1.11 -3.45,2.02 -5.44,2.76l0 0.06c2.22,0.97 4.24,2.02 6.04,3.22 1.82,1.22 3.53,2.73 5.13,4.56 1.56,1.85 3.1,4.1 4.55,6.78 1.43,2.67 2.91,5.95 4.42,9.85l8.86 22.42c0.91,2.28 1.42,3.85 1.59,4.73 0.17,0.85 0.26,1.56 0.26,2.13zm108.98 -52.35c0,8.94 -1.11,16.95 -3.33,24.01 -2.22,7.07 -5.53,13.08 -9.94,17.98 -4.39,4.92 -9.83,8.68 -16.3,11.28 -6.49,2.59 -13.98,3.87 -22.5,3.87 -8.4,0 -15.72,-1.11 -21.96,-3.3 -6.27,-2.2 -11.48,-5.53 -15.67,-10.06 -4.16,-4.5 -7.29,-10.23 -9.37,-17.18 -2.08,-6.95 -3.13,-15.18 -3.13,-24.69 0,-8.72 1.11,-16.58 3.33,-23.56 2.22,-6.98 5.52,-12.9 9.94,-17.8 4.39,-4.9 9.83,-8.66 16.29,-11.25 6.5,-2.62 14.02,-3.94 22.59,-3.94 8.18,0 15.38,1.09 21.65,3.25 6.24,2.17 11.48,5.5 15.67,10.03 4.21,4.5 7.37,10.17 9.51,17.03 2.14,6.9 3.22,14.99 3.22,24.33zm-23.07 1.11c0,-5.67 -0.46,-10.82 -1.34,-15.47 -0.89,-4.64 -2.39,-8.63 -4.53,-11.93 -2.14,-3.31 -4.99,-5.87 -8.55,-7.69 -3.56,-1.8 -8,-2.71 -13.33,-2.71 -5.38,0 -9.88,1.03 -13.47,3.05 -3.62,2.02 -6.55,4.76 -8.77,8.15 -2.23,3.38 -3.79,7.34 -4.7,11.87 -0.92,4.56 -1.37,9.35 -1.37,14.42 0,5.89 0.45,11.19 1.34,15.89 0.88,4.7 2.39,8.72 4.5,12.08 2.11,3.33 4.93,5.87 8.49,7.63 3.56,1.74 8.03,2.62 13.41,2.62 5.39,0 9.89,-0.99 13.48,-3.02 3.61,-1.99 6.55,-4.72 8.77,-8.17 2.22,-3.45 3.79,-7.46 4.7,-12.05 0.91,-4.59 1.37,-9.49 1.37,-14.67zm102.77 -44.81c0,1.66 -0.06,3.05 -0.2,4.19 -0.14,1.14 -0.37,2.05 -0.63,2.73 -0.28,0.72 -0.62,1.2 -1.05,1.51 -0.43,0.32 -0.91,0.46 -1.45,0.46l-35.81 0 0 87.25c0,0.54 -0.17,1.03 -0.54,1.45 -0.37,0.43 -0.97,0.77 -1.8,1.06 -0.82,0.25 -1.96,0.48 -3.33,0.62 -1.39,0.15 -3.19,0.2 -5.35,0.2 -2.11,0 -3.88,-0.05 -5.3,-0.2 -1.43,-0.14 -2.57,-0.37 -3.39,-0.62 -0.83,-0.29 -1.43,-0.63 -1.8,-1.06 -0.37,-0.42 -0.54,-0.91 -0.54,-1.45l0 -98.27c0,-2.34 0.6,-4.08 1.8,-5.22 1.19,-1.14 2.76,-1.71 4.73,-1.71l51.33 0c1.11,0 1.93,0.69 2.5,2.08 0.54,1.4 0.83,3.71 0.83,6.98zm104.91 43.7c0,8.94 -1.11,16.95 -3.33,24.01 -2.22,7.07 -5.53,13.08 -9.94,17.98 -4.39,4.92 -9.83,8.68 -16.3,11.28 -6.49,2.59 -13.98,3.87 -22.5,3.87 -8.4,0 -15.72,-1.11 -21.96,-3.3 -6.27,-2.2 -11.48,-5.53 -15.67,-10.06 -4.16,-4.5 -7.29,-10.23 -9.37,-17.18 -2.08,-6.95 -3.13,-15.18 -3.13,-24.69 0,-8.72 1.11,-16.58 3.33,-23.56 2.22,-6.98 5.52,-12.9 9.94,-17.8 4.39,-4.9 9.83,-8.66 16.29,-11.25 6.5,-2.62 14.02,-3.94 22.59,-3.94 8.18,0 15.38,1.09 21.65,3.25 6.24,2.17 11.48,5.5 15.67,10.03 4.21,4.5 7.37,10.17 9.51,17.03 2.14,6.9 3.22,14.99 3.22,24.33zm-23.07 1.11c0,-5.67 -0.46,-10.82 -1.34,-15.47 -0.89,-4.64 -2.39,-8.63 -4.53,-11.93 -2.14,-3.31 -4.99,-5.87 -8.55,-7.69 -3.56,-1.8 -8,-2.71 -13.33,-2.71 -5.38,0 -9.88,1.03 -13.47,3.05 -3.62,2.02 -6.55,4.76 -8.77,8.15 -2.23,3.38 -3.79,7.34 -4.7,11.87 -0.92,4.56 -1.37,9.35 -1.37,14.42 0,5.89 0.45,11.19 1.34,15.89 0.88,4.7 2.39,8.72 4.5,12.08 2.11,3.33 4.93,5.87 8.49,7.63 3.56,1.74 8.03,2.62 13.41,2.62 5.39,0 9.89,-0.99 13.48,-3.02 3.61,-1.99 6.55,-4.72 8.77,-8.17 2.22,-3.45 3.79,-7.46 4.7,-12.05 0.91,-4.59 1.37,-9.49 1.37,-14.67zm-2082.58 316.19c0,0.6 -0.17,1.12 -0.51,1.54 -0.32,0.43 -0.92,0.77 -1.8,1.06 -0.85,0.25 -2.02,0.48 -3.47,0.62 -1.46,0.15 -3.31,0.2 -5.59,0.2 -2.42,0 -4.36,-0.05 -5.81,-0.2 -1.48,-0.14 -2.68,-0.37 -3.56,-0.68 -0.91,-0.31 -1.57,-0.71 -2.02,-1.25 -0.43,-0.52 -0.77,-1.17 -1,-1.97l-8.69 -24.07c-1.22,-3.53 -2.5,-6.47 -3.84,-8.83 -1.34,-2.36 -2.82,-4.3 -4.44,-5.78 -1.6,-1.45 -3.45,-2.51 -5.5,-3.14 -2.08,-0.59 -4.39,-0.91 -6.95,-0.91l-4.93 0 0 43.33c0,0.6 -0.17,1.11 -0.51,1.54 -0.32,0.42 -0.91,0.77 -1.74,1.08 -0.83,0.31 -1.94,0.54 -3.33,0.68 -1.37,0.15 -3.17,0.2 -5.3,0.2 -2.11,0 -3.88,-0.05 -5.3,-0.2 -1.42,-0.14 -2.54,-0.37 -3.36,-0.68 -0.83,-0.31 -1.43,-0.66 -1.8,-1.08 -0.37,-0.43 -0.54,-0.94 -0.54,-1.54l0 -102.12c0,-0.6 0.17,-1.11 0.54,-1.54 0.37,-0.43 0.97,-0.77 1.8,-1.05 0.82,-0.26 1.94,-0.49 3.36,-0.63 1.42,-0.14 3.19,-0.2 5.3,-0.2 2.13,0 3.93,0.06 5.3,0.2 1.39,0.14 2.5,0.34 3.33,0.63 0.83,0.28 1.42,0.62 1.74,1.05 0.34,0.4 0.51,0.91 0.51,1.54l0 40.51 4.93 0c2.5,0 4.73,-0.35 6.61,-1 1.9,-0.68 3.61,-1.74 5.15,-3.16 1.54,-1.46 2.94,-3.34 4.19,-5.64 1.25,-2.31 2.45,-5.16 3.64,-8.55l7.27 -21.5c0.28,-0.77 0.6,-1.43 1,-1.94 0.39,-0.54 1.02,-0.97 1.88,-1.25 0.85,-0.32 1.99,-0.55 3.41,-0.69 1.4,-0.14 3.31,-0.2 5.7,-0.2 2.17,0 3.96,0.06 5.36,0.2 1.42,0.14 2.53,0.34 3.33,0.6 0.82,0.26 1.37,0.57 1.62,1 0.29,0.42 0.43,0.94 0.43,1.53 0,0.72 -0.11,1.63 -0.37,2.68 -0.26,1.06 -0.68,2.45 -1.31,4.16l-7.24 19.17c-1.34,3.56 -2.67,6.61 -4.01,9.09 -1.34,2.51 -2.74,4.64 -4.22,6.38 -1.45,1.77 -3.02,3.19 -4.67,4.3 -1.62,1.11 -3.45,2.02 -5.44,2.76l0 0.06c2.22,0.97 4.24,2.02 6.04,3.22 1.82,1.22 3.53,2.73 5.13,4.56 1.56,1.85 3.1,4.1 4.55,6.78 1.43,2.67 2.91,5.95 4.42,9.85l8.86 22.42c0.91,2.28 1.42,3.85 1.59,4.73 0.17,0.85 0.26,1.56 0.26,2.13zm108.98 -52.35c0,8.94 -1.11,16.95 -3.33,24.01 -2.22,7.07 -5.53,13.08 -9.94,17.98 -4.39,4.92 -9.83,8.68 -16.3,11.28 -6.49,2.59 -13.98,3.87 -22.5,3.87 -8.4,0 -15.72,-1.11 -21.96,-3.3 -6.27,-2.2 -11.48,-5.53 -15.67,-10.06 -4.16,-4.5 -7.29,-10.23 -9.37,-17.18 -2.08,-6.95 -3.13,-15.18 -3.13,-24.69 0,-8.72 1.11,-16.58 3.33,-23.56 2.22,-6.98 5.52,-12.9 9.94,-17.8 4.39,-4.9 9.83,-8.66 16.29,-11.25 6.5,-2.62 14.02,-3.94 22.59,-3.94 8.18,0 15.38,1.09 21.65,3.25 6.24,2.17 11.48,5.5 15.67,10.03 4.21,4.5 7.37,10.17 9.51,17.03 2.14,6.9 3.22,14.99 3.22,24.33zm-23.07 1.11c0,-5.67 -0.46,-10.82 -1.34,-15.47 -0.89,-4.64 -2.39,-8.63 -4.53,-11.93 -2.14,-3.31 -4.99,-5.87 -8.55,-7.69 -3.56,-1.8 -8,-2.71 -13.33,-2.71 -5.38,0 -9.88,1.03 -13.47,3.05 -3.62,2.02 -6.55,4.76 -8.77,8.15 -2.23,3.38 -3.79,7.34 -4.7,11.87 -0.92,4.56 -1.37,9.35 -1.37,14.42 0,5.89 0.45,11.19 1.34,15.89 0.88,4.7 2.39,8.72 4.5,12.08 2.11,3.33 4.93,5.87 8.49,7.63 3.56,1.74 8.03,2.62 13.41,2.62 5.39,0 9.89,-0.99 13.48,-3.02 3.61,-1.99 6.55,-4.72 8.77,-8.17 2.22,-3.45 3.79,-7.46 4.7,-12.05 0.91,-4.59 1.37,-9.49 1.37,-14.67zm167.37 51.16c0,0.54 -0.14,1.05 -0.45,1.51 -0.32,0.43 -0.89,0.8 -1.68,1.08 -0.8,0.26 -1.88,0.49 -3.22,0.66 -1.34,0.17 -3.05,0.25 -5.1,0.25 -2.02,0 -3.7,-0.08 -5.04,-0.25 -1.34,-0.17 -2.4,-0.4 -3.19,-0.66 -0.77,-0.28 -1.34,-0.65 -1.66,-1.08 -0.34,-0.46 -0.51,-0.97 -0.51,-1.51l0 -87.93 -0.17 0 -31.19 87.84c-0.23,0.72 -0.57,1.31 -1.08,1.8 -0.52,0.48 -1.17,0.85 -2.05,1.14 -0.86,0.25 -1.97,0.45 -3.28,0.54 -1.34,0.08 -2.96,0.11 -4.84,0.11 -1.91,0 -3.51,-0.05 -4.84,-0.2 -1.34,-0.14 -2.45,-0.37 -3.31,-0.68 -0.85,-0.31 -1.54,-0.68 -2.05,-1.11 -0.48,-0.46 -0.83,-1 -1,-1.6l-30.11 -87.84 -0.17 0 0 87.93c0,0.54 -0.14,1.05 -0.45,1.51 -0.32,0.43 -0.88,0.8 -1.71,1.08 -0.86,0.26 -1.94,0.49 -3.25,0.66 -1.31,0.17 -2.99,0.25 -5.04,0.25 -2.02,0 -3.7,-0.08 -5.04,-0.25 -1.34,-0.17 -2.42,-0.4 -3.22,-0.66 -0.8,-0.28 -1.37,-0.65 -1.68,-1.08 -0.31,-0.46 -0.46,-0.97 -0.46,-1.51l0 -96.25c0,-2.85 0.74,-5.02 2.25,-6.52 1.51,-1.51 3.51,-2.26 6.04,-2.26l14.36 0c2.56,0 4.78,0.2 6.61,0.63 1.85,0.43 3.44,1.11 4.78,2.08 1.31,0.97 2.45,2.25 3.34,3.85 0.88,1.59 1.68,3.56 2.33,5.89l23.27 64.35 0.34 0 24.1 -64.2c0.72,-2.34 1.51,-4.31 2.37,-5.93 0.88,-1.59 1.88,-2.91 3.02,-3.9 1.14,-1 2.5,-1.71 4.04,-2.14 1.57,-0.43 3.39,-0.63 5.44,-0.63l14.81 0c1.51,0 2.8,0.2 3.88,0.6 1.08,0.37 1.99,0.94 2.68,1.71 0.71,0.74 1.22,1.65 1.59,2.74 0.37,1.08 0.54,2.33 0.54,3.73l0 96.25zm107.68 0.17c0,0.54 -0.17,1.03 -0.51,1.45 -0.32,0.43 -0.91,0.77 -1.74,1.06 -0.83,0.25 -1.94,0.48 -3.36,0.62 -1.43,0.15 -3.19,0.2 -5.27,0.2 -2.11,0 -3.87,-0.05 -5.3,-0.2 -1.42,-0.14 -2.53,-0.37 -3.36,-0.62 -0.83,-0.29 -1.42,-0.63 -1.79,-1.06 -0.38,-0.42 -0.55,-0.91 -0.55,-1.45l0 -86.91 -40.33 0 0 86.91c0,0.54 -0.17,1.03 -0.54,1.45 -0.37,0.43 -0.97,0.77 -1.8,1.06 -0.82,0.25 -1.93,0.48 -3.33,0.62 -1.37,0.15 -3.16,0.2 -5.3,0.2 -2.11,0 -3.87,-0.05 -5.3,-0.2 -1.42,-0.14 -2.53,-0.37 -3.36,-0.62 -0.82,-0.29 -1.42,-0.63 -1.73,-1.06 -0.35,-0.42 -0.52,-0.91 -0.52,-1.45l0 -98.27c0,-2.34 0.6,-4.08 1.77,-5.22 1.17,-1.14 2.7,-1.71 4.64,-1.71l71.33 0c2.02,0 3.56,0.57 4.67,1.71 1.11,1.14 1.68,2.88 1.68,5.22l0 98.27zm107.47 0c0,0.54 -0.17,1.03 -0.51,1.45 -0.32,0.43 -0.91,0.77 -1.74,1.06 -0.83,0.25 -1.97,0.48 -3.39,0.62 -1.42,0.15 -3.19,0.2 -5.3,0.2 -2.16,0 -3.96,-0.05 -5.35,-0.2 -1.37,-0.14 -2.51,-0.37 -3.34,-0.62 -0.82,-0.29 -1.42,-0.63 -1.73,-1.06 -0.35,-0.42 -0.52,-0.91 -0.52,-1.45l0 -87.25 -23.07 0c-1.57,12.76 -3.16,23.9 -4.79,33.44 -1.59,9.52 -3.33,17.69 -5.18,24.47 -1.82,6.81 -3.87,12.39 -6.07,16.72 -2.19,4.36 -4.73,7.81 -7.52,10.34 -2.82,2.54 -6.01,4.27 -9.57,5.21 -3.53,0.94 -7.57,1.43 -12.08,1.43 -0.85,0 -1.56,-0.12 -2.19,-0.34 -0.6,-0.2 -1.08,-0.63 -1.45,-1.26 -0.37,-0.6 -0.63,-1.45 -0.8,-2.56 -0.17,-1.11 -0.26,-2.54 -0.26,-4.24 0,-2.4 0.06,-4.33 0.18,-5.82 0.11,-1.45 0.31,-2.59 0.57,-3.39 0.28,-0.82 0.65,-1.36 1.11,-1.62 0.42,-0.28 0.96,-0.43 1.59,-0.43 1.71,0 3.39,-0.34 4.96,-1.05 1.59,-0.68 3.13,-2.05 4.61,-4.13 1.48,-2.05 2.91,-4.96 4.27,-8.69 1.37,-3.73 2.71,-8.63 4.02,-14.75 1.31,-6.1 2.62,-13.53 3.93,-22.31 1.31,-8.77 2.65,-19.2 3.99,-31.27 0.34,-2.85 1,-4.85 1.99,-5.99 1,-1.14 2.48,-1.71 4.42,-1.71l52.95 0c2.03,0 3.56,0.57 4.65,1.71 1.08,1.14 1.62,2.88 1.62,5.22l0 98.27zm87.47 -5.81c0,1.62 -0.05,2.96 -0.2,4.07 -0.14,1.08 -0.34,1.97 -0.62,2.62 -0.29,0.69 -0.63,1.17 -1.06,1.48 -0.4,0.32 -0.88,0.46 -1.36,0.46l-54.18 0c-1.83,0 -3.36,-0.54 -4.62,-1.62 -1.25,-1.09 -1.88,-2.85 -1.88,-5.3l0 -94.17c0,-2.45 0.63,-4.22 1.88,-5.3 1.26,-1.08 2.79,-1.63 4.62,-1.63l53.92 0c0.48,0 0.94,0.15 1.34,0.43 0.37,0.29 0.71,0.77 1,1.45 0.25,0.72 0.48,1.6 0.62,2.68 0.14,1.11 0.2,2.48 0.2,4.16 0,1.57 -0.06,2.88 -0.2,3.99 -0.14,1.08 -0.34,1.96 -0.62,2.62 -0.29,0.68 -0.63,1.17 -1,1.48 -0.4,0.31 -0.86,0.46 -1.34,0.46l-38.54 0 0 26.32 32.47 0c0.51,0 0.97,0.14 1.37,0.45 0.43,0.32 0.77,0.77 1.05,1.43 0.29,0.62 0.49,1.48 0.63,2.59 0.14,1.08 0.2,2.39 0.2,3.93 0,1.62 -0.06,2.96 -0.2,4.02 -0.14,1.05 -0.34,1.9 -0.63,2.53 -0.28,0.66 -0.62,1.11 -1.05,1.37 -0.4,0.28 -0.86,0.43 -1.37,0.43l-32.47 0 0 30.42 38.8 0c0.51,0 0.96,0.14 1.36,0.45 0.43,0.32 0.77,0.8 1.06,1.49 0.28,0.65 0.48,1.53 0.62,2.62 0.15,1.11 0.2,2.45 0.2,4.07zm99.45 5.72c0,0.6 -0.17,1.12 -0.51,1.54 -0.32,0.43 -0.92,0.77 -1.8,1.06 -0.85,0.25 -2.02,0.48 -3.47,0.62 -1.46,0.15 -3.31,0.2 -5.59,0.2 -2.42,0 -4.36,-0.05 -5.81,-0.2 -1.48,-0.14 -2.68,-0.37 -3.56,-0.68 -0.91,-0.31 -1.57,-0.71 -2.02,-1.25 -0.43,-0.52 -0.77,-1.17 -1,-1.97l-8.69 -24.07c-1.22,-3.53 -2.5,-6.47 -3.84,-8.83 -1.34,-2.36 -2.82,-4.3 -4.44,-5.78 -1.6,-1.45 -3.45,-2.51 -5.5,-3.14 -2.08,-0.59 -4.39,-0.91 -6.95,-0.91l-4.93 0 0 43.33c0,0.6 -0.17,1.11 -0.51,1.54 -0.32,0.42 -0.91,0.77 -1.74,1.08 -0.83,0.31 -1.94,0.54 -3.33,0.68 -1.37,0.15 -3.17,0.2 -5.3,0.2 -2.11,0 -3.88,-0.05 -5.3,-0.2 -1.42,-0.14 -2.54,-0.37 -3.36,-0.68 -0.83,-0.31 -1.43,-0.66 -1.8,-1.08 -0.37,-0.43 -0.54,-0.94 -0.54,-1.54l0 -102.12c0,-0.6 0.17,-1.11 0.54,-1.54 0.37,-0.43 0.97,-0.77 1.8,-1.05 0.82,-0.26 1.94,-0.49 3.36,-0.63 1.42,-0.14 3.19,-0.2 5.3,-0.2 2.13,0 3.93,0.06 5.3,0.2 1.39,0.14 2.5,0.34 3.33,0.63 0.83,0.28 1.42,0.62 1.74,1.05 0.34,0.4 0.51,0.91 0.51,1.54l0 40.51 4.93 0c2.5,0 4.73,-0.35 6.61,-1 1.9,-0.68 3.61,-1.74 5.15,-3.16 1.54,-1.46 2.94,-3.34 4.19,-5.64 1.25,-2.31 2.45,-5.16 3.64,-8.55l7.27 -21.5c0.28,-0.77 0.6,-1.43 1,-1.94 0.39,-0.54 1.02,-0.97 1.88,-1.25 0.85,-0.32 1.99,-0.55 3.41,-0.69 1.4,-0.14 3.31,-0.2 5.7,-0.2 2.17,0 3.96,0.06 5.36,0.2 1.42,0.14 2.53,0.34 3.33,0.6 0.82,0.26 1.37,0.57 1.62,1 0.29,0.42 0.43,0.94 0.43,1.53 0,0.72 -0.11,1.63 -0.37,2.68 -0.26,1.06 -0.68,2.45 -1.31,4.16l-7.24 19.17c-1.34,3.56 -2.67,6.61 -4.01,9.09 -1.34,2.51 -2.74,4.64 -4.22,6.38 -1.45,1.77 -3.02,3.19 -4.67,4.3 -1.62,1.11 -3.45,2.02 -5.44,2.76l0 0.06c2.22,0.97 4.24,2.02 6.04,3.22 1.82,1.22 3.53,2.73 5.13,4.56 1.56,1.85 3.1,4.1 4.55,6.78 1.43,2.67 2.91,5.95 4.42,9.85l8.86 22.42c0.91,2.28 1.42,3.85 1.59,4.73 0.17,0.85 0.26,1.56 0.26,2.13zm86.08 -13.41c0,1.39 -0.03,2.59 -0.11,3.56 -0.09,0.97 -0.23,1.82 -0.4,2.51 -0.14,0.71 -0.37,1.31 -0.66,1.82 -0.28,0.48 -0.71,1.05 -1.34,1.68 -0.59,0.63 -1.79,1.45 -3.53,2.45 -1.76,0.97 -3.9,1.94 -6.44,2.85 -2.53,0.88 -5.41,1.65 -8.66,2.25 -3.24,0.6 -6.77,0.91 -10.56,0.91 -7.38,0 -14.05,-1.14 -20,-3.42 -5.95,-2.28 -11.02,-5.7 -15.18,-10.23 -4.19,-4.52 -7.38,-10.16 -9.6,-16.97 -2.22,-6.78 -3.33,-14.67 -3.33,-23.67 0,-9.18 1.22,-17.32 3.67,-24.44 2.45,-7.12 5.87,-13.11 10.25,-17.95 4.39,-4.84 9.66,-8.49 15.81,-10.99 6.13,-2.51 12.91,-3.76 20.31,-3.76 2.99,0 5.87,0.25 8.66,0.76 2.79,0.49 5.36,1.14 7.72,1.97 2.37,0.8 4.47,1.74 6.38,2.79 1.88,1.08 3.22,2 3.96,2.74 0.74,0.77 1.26,1.39 1.54,1.88 0.29,0.51 0.51,1.14 0.66,1.9 0.17,0.8 0.31,1.71 0.39,2.77 0.09,1.05 0.12,2.33 0.12,3.9 0,1.65 -0.06,3.08 -0.17,4.24 -0.12,1.17 -0.32,2.11 -0.57,2.82 -0.29,0.72 -0.63,1.26 -1,1.57 -0.4,0.34 -0.85,0.51 -1.34,0.51 -0.82,0 -1.88,-0.48 -3.16,-1.45 -1.28,-0.97 -2.93,-2.05 -4.96,-3.25 -2.02,-1.19 -4.44,-2.27 -7.26,-3.24 -2.79,-0.97 -6.12,-1.46 -10.03,-1.46 -4.27,0 -8.09,0.89 -11.45,2.62 -3.36,1.77 -6.21,4.25 -8.57,7.5 -2.37,3.27 -4.16,7.2 -5.38,11.82 -1.23,4.58 -1.83,9.8 -1.83,15.58 0,6.32 0.66,11.82 1.97,16.46 1.31,4.62 3.16,8.46 5.58,11.45 2.39,3 5.33,5.25 8.75,6.7 3.41,1.48 7.26,2.22 11.53,2.22 3.88,0 7.24,-0.46 10.09,-1.37 2.82,-0.91 5.24,-1.93 7.26,-3.02 2.05,-1.11 3.7,-2.1 5.01,-2.99 1.31,-0.88 2.31,-1.34 3.05,-1.34 0.54,0 1,0.12 1.31,0.35 0.34,0.22 0.63,0.65 0.86,1.33 0.19,0.66 0.37,1.6 0.48,2.8 0.11,1.22 0.17,2.82 0.17,4.84zm104.23 8.14c0.65,2 1.08,3.59 1.25,4.76 0.17,1.17 -0.05,2.05 -0.65,2.65 -0.63,0.57 -1.71,0.94 -3.28,1.08 -1.54,0.15 -3.7,0.2 -6.41,0.2 -2.85,0 -5.07,-0.03 -6.64,-0.11 -1.59,-0.09 -2.79,-0.26 -3.64,-0.51 -0.83,-0.26 -1.4,-0.6 -1.74,-1.06 -0.34,-0.43 -0.63,-1.02 -0.82,-1.74l-7.1 -21.7 -40.73 0 -6.81 21.11c-0.23,0.79 -0.51,1.45 -0.88,1.96 -0.34,0.54 -0.94,0.94 -1.74,1.26 -0.8,0.31 -1.94,0.51 -3.42,0.62 -1.48,0.12 -3.42,0.17 -5.81,0.17 -2.56,0 -4.56,-0.08 -6.01,-0.25 -1.45,-0.17 -2.45,-0.57 -2.99,-1.2 -0.57,-0.66 -0.77,-1.57 -0.6,-2.73 0.17,-1.17 0.6,-2.71 1.26,-4.68l33.27 -95.85c0.31,-0.94 0.71,-1.71 1.16,-2.28 0.43,-0.6 1.14,-1.02 2.11,-1.34 1,-0.31 2.34,-0.51 4.07,-0.59 1.71,-0.09 3.99,-0.12 6.84,-0.12 3.28,0 5.9,0.03 7.83,0.12 1.97,0.08 3.48,0.28 4.56,0.59 1.08,0.32 1.85,0.77 2.34,1.37 0.45,0.63 0.88,1.45 1.19,2.51l33.39 95.76zm-49.57 -79.3l-0.08 0 -15.04 45.95 30.31 0 -15.19 -45.95zm177.33 12.28c0,6.1 -0.94,11.45 -2.85,16.12 -1.88,4.7 -4.64,8.63 -8.29,11.82 -3.62,3.22 -8.06,5.64 -13.33,7.32 -5.27,1.68 -11.48,2.51 -18.63,2.51l-9.03 0 0 34.44c0,0.57 -0.17,1.05 -0.54,1.51 -0.37,0.43 -0.97,0.8 -1.8,1.08 -0.82,0.29 -1.93,0.49 -3.33,0.66 -1.37,0.17 -3.16,0.25 -5.3,0.25 -2.11,0 -3.87,-0.08 -5.3,-0.25 -1.42,-0.17 -2.53,-0.4 -3.36,-0.66 -0.82,-0.28 -1.42,-0.65 -1.73,-1.08 -0.35,-0.46 -0.52,-0.97 -0.52,-1.51l0 -97.16c0,-2.62 0.69,-4.59 2.05,-5.9 1.37,-1.31 3.17,-1.97 5.39,-1.97l25.46 0c2.57,0 5.02,0.09 7.32,0.29 2.31,0.2 5.07,0.63 8.32,1.25 3.22,0.66 6.5,1.83 9.8,3.56 3.3,1.71 6.15,3.91 8.49,6.56 2.33,2.64 4.13,5.72 5.35,9.28 1.23,3.53 1.83,7.49 1.83,11.88zm-22.91 1.59c0,-3.78 -0.68,-6.92 -2.02,-9.37 -1.34,-2.45 -2.99,-4.27 -4.95,-5.44 -1.97,-1.17 -4.02,-1.91 -6.16,-2.22 -2.16,-0.31 -4.38,-0.46 -6.69,-0.46l-9.4 0 0 36.75 9.91 0c3.53,0 6.47,-0.48 8.86,-1.42 2.37,-0.94 4.33,-2.28 5.84,-3.99 1.51,-1.68 2.65,-3.73 3.45,-6.1 0.77,-2.36 1.16,-4.95 1.16,-7.75z"/>
    <path class="fil3" d="M2466.71 770.97c0,8.94 -1.11,16.95 -3.33,24.01 -2.22,7.07 -5.53,13.08 -9.94,17.98 -4.39,4.92 -9.83,8.68 -16.3,11.28 -6.49,2.59 -13.98,3.87 -22.5,3.87 -8.4,0 -15.72,-1.11 -21.96,-3.3 -6.27,-2.2 -11.48,-5.53 -15.67,-10.06 -4.16,-4.5 -7.29,-10.23 -9.37,-17.18 -2.08,-6.95 -3.13,-15.18 -3.13,-24.69 0,-8.72 1.11,-16.58 3.33,-23.56 2.22,-6.98 5.52,-12.9 9.94,-17.8 4.39,-4.9 9.83,-8.66 16.29,-11.25 6.5,-2.62 14.02,-3.94 22.59,-3.94 8.18,0 15.38,1.09 21.65,3.25 6.24,2.17 11.48,5.5 15.67,10.03 4.21,4.5 7.37,10.17 9.51,17.03 2.14,6.9 3.22,14.99 3.22,24.33zm-23.07 1.11c0,-5.67 -0.46,-10.82 -1.34,-15.47 -0.89,-4.64 -2.39,-8.63 -4.53,-11.93 -2.14,-3.31 -4.99,-5.87 -8.55,-7.69 -3.56,-1.8 -8,-2.71 -13.33,-2.71 -5.38,0 -9.88,1.03 -13.47,3.05 -3.62,2.02 -6.55,4.76 -8.77,8.15 -2.23,3.38 -3.79,7.34 -4.7,11.87 -0.92,4.56 -1.37,9.35 -1.37,14.42 0,5.89 0.45,11.19 1.34,15.89 0.88,4.7 2.39,8.72 4.5,12.08 2.11,3.33 4.93,5.87 8.49,7.63 3.56,1.74 8.03,2.62 13.41,2.62 5.39,0 9.89,-0.99 13.48,-3.02 3.61,-1.99 6.55,-4.72 8.77,-8.17 2.22,-3.45 3.79,-7.46 4.7,-12.05 0.91,-4.59 1.37,-9.49 1.37,-14.67zm116.27 37.83c0,1.39 -0.03,2.59 -0.11,3.56 -0.09,0.97 -0.23,1.82 -0.4,2.51 -0.14,0.71 -0.37,1.31 -0.66,1.82 -0.28,0.48 -0.71,1.05 -1.34,1.68 -0.59,0.63 -1.79,1.45 -3.53,2.45 -1.76,0.97 -3.9,1.94 -6.44,2.85 -2.53,0.88 -5.41,1.65 -8.66,2.25 -3.24,0.6 -6.77,0.91 -10.56,0.91 -7.38,0 -14.05,-1.14 -20,-3.42 -5.95,-2.28 -11.02,-5.7 -15.18,-10.23 -4.19,-4.52 -7.38,-10.16 -9.6,-16.97 -2.22,-6.78 -3.33,-14.67 -3.33,-23.67 0,-9.18 1.22,-17.32 3.67,-24.44 2.45,-7.12 5.87,-13.11 10.25,-17.95 4.39,-4.84 9.66,-8.49 15.81,-10.99 6.13,-2.51 12.91,-3.76 20.31,-3.76 2.99,0 5.87,0.25 8.66,0.76 2.79,0.49 5.36,1.14 7.72,1.97 2.37,0.8 4.47,1.74 6.38,2.79 1.88,1.08 3.22,2 3.96,2.74 0.74,0.77 1.26,1.39 1.54,1.88 0.29,0.51 0.51,1.14 0.66,1.9 0.17,0.8 0.31,1.71 0.39,2.77 0.09,1.05 0.12,2.33 0.12,3.9 0,1.65 -0.06,3.08 -0.17,4.24 -0.12,1.17 -0.32,2.11 -0.57,2.82 -0.29,0.72 -0.63,1.26 -1,1.57 -0.4,0.34 -0.85,0.51 -1.34,0.51 -0.82,0 -1.88,-0.48 -3.16,-1.45 -1.28,-0.97 -2.93,-2.05 -4.96,-3.25 -2.02,-1.19 -4.44,-2.27 -7.26,-3.24 -2.79,-0.97 -6.12,-1.46 -10.03,-1.46 -4.27,0 -8.09,0.89 -11.45,2.62 -3.36,1.77 -6.21,4.25 -8.57,7.5 -2.37,3.27 -4.16,7.2 -5.38,11.82 -1.23,4.58 -1.83,9.8 -1.83,15.58 0,6.32 0.66,11.82 1.97,16.46 1.31,4.62 3.16,8.46 5.58,11.45 2.39,3 5.33,5.25 8.75,6.7 3.41,1.48 7.26,2.22 11.53,2.22 3.88,0 7.24,-0.46 10.09,-1.37 2.82,-0.91 5.24,-1.93 7.26,-3.02 2.05,-1.11 3.7,-2.1 5.01,-2.99 1.31,-0.88 2.31,-1.34 3.05,-1.34 0.54,0 1,0.12 1.31,0.35 0.34,0.22 0.63,0.65 0.86,1.33 0.19,0.66 0.37,1.6 0.48,2.8 0.11,1.22 0.17,2.82 0.17,4.84zm89.13 0c0,1.39 -0.03,2.59 -0.11,3.56 -0.09,0.97 -0.23,1.82 -0.4,2.51 -0.14,0.71 -0.37,1.31 -0.66,1.82 -0.28,0.48 -0.71,1.05 -1.34,1.68 -0.59,0.63 -1.79,1.45 -3.53,2.45 -1.76,0.97 -3.9,1.94 -6.44,2.85 -2.53,0.88 -5.41,1.65 -8.66,2.25 -3.24,0.6 -6.77,0.91 -10.56,0.91 -7.38,0 -14.05,-1.14 -20,-3.42 -5.95,-2.28 -11.02,-5.7 -15.18,-10.23 -4.19,-4.52 -7.38,-10.16 -9.6,-16.97 -2.22,-6.78 -3.33,-14.67 -3.33,-23.67 0,-9.18 1.22,-17.32 3.67,-24.44 2.45,-7.12 5.87,-13.11 10.25,-17.95 4.39,-4.84 9.66,-8.49 15.81,-10.99 6.13,-2.51 12.91,-3.76 20.31,-3.76 2.99,0 5.87,0.25 8.66,0.76 2.79,0.49 5.36,1.14 7.72,1.97 2.37,0.8 4.47,1.74 6.38,2.79 1.88,1.08 3.22,2 3.96,2.74 0.74,0.77 1.26,1.39 1.54,1.88 0.29,0.51 0.51,1.14 0.66,1.9 0.17,0.8 0.31,1.71 0.39,2.77 0.09,1.05 0.12,2.33 0.12,3.9 0,1.65 -0.06,3.08 -0.17,4.24 -0.12,1.17 -0.32,2.11 -0.57,2.82 -0.29,0.72 -0.63,1.26 -1,1.57 -0.4,0.34 -0.85,0.51 -1.34,0.51 -0.82,0 -1.88,-0.48 -3.16,-1.45 -1.28,-0.97 -2.93,-2.05 -4.96,-3.25 -2.02,-1.19 -4.44,-2.27 -7.26,-3.24 -2.79,-0.97 -6.12,-1.46 -10.03,-1.46 -4.27,0 -8.09,0.89 -11.45,2.62 -3.36,1.77 -6.21,4.25 -8.57,7.5 -2.37,3.27 -4.16,7.2 -5.38,11.82 -1.23,4.58 -1.83,9.8 -1.83,15.58 0,6.32 0.66,11.82 1.97,16.46 1.31,4.62 3.16,8.46 5.58,11.45 2.39,3 5.33,5.25 8.75,6.7 3.41,1.48 7.26,2.22 11.53,2.22 3.88,0 7.24,-0.46 10.09,-1.37 2.82,-0.91 5.24,-1.93 7.26,-3.02 2.05,-1.11 3.7,-2.1 5.01,-2.99 1.31,-0.88 2.31,-1.34 3.05,-1.34 0.54,0 1,0.12 1.31,0.35 0.34,0.22 0.63,0.65 0.86,1.33 0.19,0.66 0.37,1.6 0.48,2.8 0.11,1.22 0.17,2.82 0.17,4.84zm103.63 13.5c0,0.54 -0.17,1.03 -0.54,1.45 -0.37,0.43 -0.97,0.77 -1.8,1.06 -0.82,0.25 -1.96,0.48 -3.38,0.62 -1.43,0.15 -3.2,0.2 -5.3,0.2 -2.11,0 -3.88,-0.05 -5.3,-0.2 -1.43,-0.14 -2.54,-0.37 -3.33,-0.62 -0.83,-0.29 -1.4,-0.63 -1.71,-1.06 -0.35,-0.42 -0.52,-0.91 -0.52,-1.45l0 -56.94c0,-2.17 0.03,-4.3 0.09,-6.38 0.06,-2.11 0.14,-3.96 0.26,-5.56l-0.18 0c-0.45,0.77 -0.96,1.68 -1.59,2.71 -0.63,1.02 -1.28,2.11 -1.97,3.25 -0.71,1.14 -1.45,2.3 -2.22,3.5 -0.8,1.2 -1.56,2.36 -2.33,3.48l-37.52 56.03c-0.45,0.59 -0.91,1.13 -1.37,1.56 -0.48,0.46 -1.08,0.8 -1.85,1.06 -0.74,0.25 -1.65,0.42 -2.73,0.51 -1.08,0.08 -2.51,0.11 -4.22,0.11 -2.16,0 -3.93,-0.05 -5.24,-0.2 -1.34,-0.14 -2.39,-0.37 -3.13,-0.62 -0.77,-0.29 -1.28,-0.66 -1.54,-1.09 -0.28,-0.45 -0.43,-0.99 -0.43,-1.59l0 -102.21c0,-0.54 0.17,-1.02 0.54,-1.45 0.37,-0.43 0.97,-0.77 1.83,-1.05 0.85,-0.26 1.99,-0.49 3.39,-0.63 1.36,-0.14 3.13,-0.2 5.24,-0.2 2.13,0 3.93,0.06 5.3,0.2 1.39,0.14 2.5,0.37 3.33,0.63 0.83,0.28 1.42,0.62 1.74,1.05 0.34,0.43 0.51,0.91 0.51,1.45l0 57.29c0,1.76 -0.03,3.67 -0.09,5.67 -0.05,2.02 -0.14,3.96 -0.25,5.84l0.17 0c0.97,-1.66 2.16,-3.68 3.62,-6.01 1.45,-2.34 2.96,-4.62 4.5,-6.84l37.57 -56.03c0.4,-0.54 0.8,-1.03 1.25,-1.45 0.46,-0.43 1.06,-0.77 1.8,-1.06 0.74,-0.25 1.68,-0.45 2.79,-0.57 1.11,-0.11 2.53,-0.17 4.27,-0.17 2.11,0 3.82,0.06 5.13,0.2 1.31,0.14 2.33,0.37 3.13,0.63 0.77,0.28 1.31,0.62 1.62,1.05 0.32,0.43 0.46,0.94 0.46,1.54l0 102.29zm111.4 0c0,0.54 -0.17,1.03 -0.54,1.45 -0.37,0.43 -0.97,0.77 -1.8,1.06 -0.82,0.25 -1.96,0.48 -3.38,0.62 -1.43,0.15 -3.2,0.2 -5.3,0.2 -2.11,0 -3.88,-0.05 -5.3,-0.2 -1.43,-0.14 -2.54,-0.37 -3.33,-0.62 -0.83,-0.29 -1.4,-0.63 -1.71,-1.06 -0.35,-0.42 -0.52,-0.91 -0.52,-1.45l0 -56.94c0,-2.17 0.03,-4.3 0.09,-6.38 0.06,-2.11 0.14,-3.96 0.26,-5.56l-0.18 0c-0.45,0.77 -0.96,1.68 -1.59,2.71 -0.63,1.02 -1.28,2.11 -1.97,3.25 -0.71,1.14 -1.45,2.3 -2.22,3.5 -0.8,1.2 -1.56,2.36 -2.33,3.48l-37.52 56.03c-0.45,0.59 -0.91,1.13 -1.37,1.56 -0.48,0.46 -1.08,0.8 -1.85,1.06 -0.74,0.25 -1.65,0.42 -2.73,0.51 -1.08,0.08 -2.51,0.11 -4.22,0.11 -2.16,0 -3.93,-0.05 -5.24,-0.2 -1.34,-0.14 -2.39,-0.37 -3.13,-0.62 -0.77,-0.29 -1.28,-0.66 -1.54,-1.09 -0.28,-0.45 -0.43,-0.99 -0.43,-1.59l0 -102.21c0,-0.54 0.17,-1.02 0.54,-1.45 0.37,-0.43 0.97,-0.77 1.83,-1.05 0.85,-0.26 1.99,-0.49 3.39,-0.63 1.36,-0.14 3.13,-0.2 5.24,-0.2 2.13,0 3.93,0.06 5.3,0.2 1.39,0.14 2.5,0.37 3.33,0.63 0.83,0.28 1.42,0.62 1.74,1.05 0.34,0.43 0.51,0.91 0.51,1.45l0 57.29c0,1.76 -0.03,3.67 -0.09,5.67 -0.05,2.02 -0.14,3.96 -0.25,5.84l0.17 0c0.97,-1.66 2.16,-3.68 3.62,-6.01 1.45,-2.34 2.96,-4.62 4.5,-6.84l37.57 -56.03c0.4,-0.54 0.8,-1.03 1.25,-1.45 0.46,-0.43 1.06,-0.77 1.8,-1.06 0.74,-0.25 1.68,-0.45 2.79,-0.57 1.11,-0.11 2.53,-0.17 4.27,-0.17 2.11,0 3.82,0.06 5.13,0.2 1.31,0.14 2.33,0.37 3.13,0.63 0.77,0.28 1.31,0.62 1.62,1.05 0.32,0.43 0.46,0.94 0.46,1.54l0 102.29z"/>
   </g>
  </g>
 </g>
</svg>
