<svg width="602" height="182" viewBox="0 0 602 182" fill="none" xmlns="http://www.w3.org/2000/svg">
<path fill-rule="evenodd" clip-rule="evenodd" d="M67.1034 145.768L30.8407 48.3056L69.201 70.545L70.5757 71.3419L72.0788 70.6665L192.868 15.6674L67.1048 145.77L67.1034 145.768ZM172.915 145.128L93.7684 125.177L120.365 97.6538L172.915 145.128ZM215 0L201.824 6.66415L161.173 25.1702C144.053 11.9173 121.05 3.79891 95.7543 3.79891C42.8794 3.79891 0 39.2647 0 82.9857C0 126.705 42.8794 162.166 95.7543 162.166C118.17 162.166 138.79 155.792 155.106 145.116L180.493 151.515L189.715 153.838L183.323 148.074L168.38 134.579C182.796 120.721 191.513 102.691 191.513 82.9857C191.513 67.116 185.859 52.3376 176.134 39.9458L205.24 9.82944L215 0Z" fill="#32436E"/>
<path d="M228.695 97.71V155H241.615V108.335H262.015V155H274.935V97.71H228.695Z" fill="#32436E"/>
<path d="M322.429 138.34C322.599 137.405 322.854 135.45 322.854 133.24C322.854 122.955 317.754 112.5 304.324 112.5C289.959 112.5 283.329 124.145 283.329 134.685C283.329 147.69 291.404 155.85 305.514 155.85C311.124 155.85 316.309 155 320.559 153.215L318.859 144.46C315.374 145.65 311.804 146.245 307.384 146.245C301.349 146.245 296.079 143.695 295.654 138.34H322.429ZM295.569 129.5C295.909 126.1 298.119 121.085 303.644 121.085C309.509 121.085 310.869 126.355 310.869 129.5H295.569Z" fill="#32436E"/>
<path d="M330.617 171.83H343.537V151.175H343.707C345.577 153.895 349.487 155.935 354.502 155.935C363.767 155.935 373.372 148.795 373.372 133.665C373.372 120.405 365.212 112.5 356.117 112.5C350.082 112.5 345.322 114.88 342.262 119.215H342.092L341.497 113.435H330.277C330.447 117.345 330.617 121.935 330.617 127.375V171.83ZM343.537 131.455C343.537 130.69 343.622 129.84 343.792 129.16C344.642 125.335 347.872 122.615 351.527 122.615C357.307 122.615 360.282 127.63 360.282 134.26C360.282 141.315 356.967 145.99 351.357 145.99C347.617 145.99 344.642 143.355 343.792 139.87C343.622 139.02 343.537 138.17 343.537 137.15V131.455Z" fill="#32436E"/>
<path d="M411.082 144.375C409.127 145.225 406.747 145.735 403.687 145.735C397.397 145.735 392.297 141.74 392.297 134.09C392.212 127.375 396.632 122.53 403.432 122.53C406.832 122.53 409.127 123.125 410.657 123.805L412.697 114.2C409.977 113.18 406.237 112.585 402.837 112.585C387.367 112.585 379.037 122.53 379.037 134.6C379.037 147.605 387.622 155.85 401.052 155.85C405.982 155.85 410.317 155 412.612 153.895L411.082 144.375Z" fill="#32436E"/>
<path d="M438.396 155.935C449.446 155.935 460.241 148.965 460.241 133.835C460.241 121.255 451.741 112.5 439.076 112.5C425.646 112.5 416.806 121.085 416.806 134.515C416.806 147.945 426.156 155.935 438.311 155.935H438.396ZM438.566 146.67C433.126 146.67 430.151 141.315 430.151 134.26C430.151 128.055 432.531 121.765 438.651 121.765C444.516 121.765 446.896 128.055 446.896 134.175C446.896 141.655 443.751 146.67 438.651 146.67H438.566Z" fill="#32436E"/>
<path d="M468.159 113.435V155H481.079V138.51H494.169V155H507.089V113.435H494.169V128.48H481.079V113.435H468.159Z" fill="#32436E"/>
<path d="M552.062 130.435C552.062 120.66 547.727 112.5 533.872 112.5C526.307 112.5 520.612 114.625 517.722 116.24L520.102 124.485C522.822 122.87 527.327 121.425 531.577 121.425C537.952 121.425 539.142 124.57 539.142 126.78V127.29C524.437 127.29 514.747 132.39 514.747 143.185C514.747 149.815 519.762 155.935 528.177 155.935C533.107 155.935 537.357 154.15 540.077 150.835H540.332L541.097 155H552.742C552.232 152.705 552.062 148.88 552.062 144.97V130.435ZM539.567 139.87C539.567 140.635 539.482 141.4 539.312 142.08C538.462 144.715 535.742 146.84 532.597 146.84C529.707 146.84 527.497 145.225 527.497 141.91C527.497 136.98 532.767 135.365 539.567 135.365V139.87Z" fill="#32436E"/>
<path d="M564.999 113.435V130.265C564.999 137.32 564.659 141.23 562.279 143.61C561.259 144.715 559.559 145.48 557.604 145.82L559.049 155.85C564.829 155.85 568.484 154.575 571.12 151.77C575.794 148.03 576.984 140.975 576.984 130.945V123.295H585.995V155H598.914V113.435H564.999Z" fill="#32436E"/>
<path d="M229.078 6.388V32H230.902V19.65H231.928C237.02 19.65 238.882 22.006 240.25 25.692C241.048 27.782 241.846 30.214 242.796 32H244.734C243.67 29.91 242.986 27.782 241.998 25.236C240.516 21.55 238.806 18.814 233.98 18.358L244.126 6.388H242.036L232.232 18.206H230.902V6.388H229.078Z" fill="#32436E"/>
<path d="M255.067 32.418C259.095 32.418 263.769 29.492 263.769 22.728C263.769 17.142 260.349 13.342 255.295 13.342C250.773 13.342 246.669 16.8 246.669 23.032C246.669 28.732 250.317 32.418 255.029 32.418H255.067ZM255.105 30.898C251.381 30.898 248.493 27.478 248.493 22.918C248.493 19.004 250.583 14.862 255.257 14.862C260.083 14.862 261.945 19.46 261.945 22.804C261.945 27.478 258.943 30.898 255.143 30.898H255.105Z" fill="#32436E"/>
<path d="M268.376 39.524H270.2V29.036H270.276C271.53 31.24 273.848 32.418 276.47 32.418C280.878 32.418 284.754 29.074 284.754 22.576C284.754 17.218 281.6 13.342 276.926 13.342C273.734 13.342 271.492 14.824 270.162 17.218H270.086L269.972 13.76H268.224C268.338 15.508 268.376 17.294 268.376 19.574V39.524ZM270.2 21.246C270.2 20.752 270.352 20.182 270.466 19.688C271.264 16.686 273.848 14.862 276.508 14.862C280.65 14.862 282.93 18.548 282.93 22.652C282.93 27.516 280.536 30.898 276.356 30.898C273.544 30.898 271.112 29.074 270.352 26.262C270.238 25.806 270.2 25.312 270.2 24.818V21.246Z" fill="#32436E"/>
<path d="M289.229 13.76V32H291.053V15.28H301.351V32H303.175V13.76H289.229Z" fill="#32436E"/>
<path d="M316.075 32.418C320.103 32.418 324.777 29.492 324.777 22.728C324.777 17.142 321.357 13.342 316.303 13.342C311.781 13.342 307.677 16.8 307.677 23.032C307.677 28.732 311.325 32.418 316.037 32.418H316.075ZM316.113 30.898C312.389 30.898 309.501 27.478 309.501 22.918C309.501 19.004 311.591 14.862 316.265 14.862C321.091 14.862 322.953 19.46 322.953 22.804C322.953 27.478 319.951 30.898 316.151 30.898H316.113Z" fill="#32436E"/>
<path d="M329.384 39.524H331.208V29.036H331.284C332.538 31.24 334.856 32.418 337.478 32.418C341.886 32.418 345.762 29.074 345.762 22.576C345.762 17.218 342.608 13.342 337.934 13.342C334.742 13.342 332.5 14.824 331.17 17.218H331.094L330.98 13.76H329.232C329.346 15.508 329.384 17.294 329.384 19.574V39.524ZM331.208 21.246C331.208 20.752 331.36 20.182 331.474 19.688C332.272 16.686 334.856 14.862 337.516 14.862C341.658 14.862 343.938 18.548 343.938 22.652C343.938 27.516 341.544 30.898 337.364 30.898C334.552 30.898 332.12 29.074 331.36 26.262C331.246 25.806 331.208 25.312 331.208 24.818V21.246Z" fill="#32436E"/>
<path d="M361.751 20.524C361.751 17.294 360.725 13.342 355.443 13.342C353.809 13.342 351.757 13.798 350.085 14.9L350.655 16.23C351.985 15.28 353.657 14.862 355.253 14.862C359.585 14.824 359.927 18.434 359.927 20.22V20.714C352.479 20.638 348.793 23.184 348.793 27.402C348.793 29.834 350.465 32.418 354.151 32.418C357.077 32.418 359.091 30.784 360.003 29.378H360.079L360.345 32H362.017C361.789 30.594 361.751 29.112 361.751 27.668V20.524ZM359.927 26.148C359.927 26.452 359.889 26.87 359.737 27.25C359.129 29.036 357.381 30.898 354.341 30.898C352.441 30.898 350.693 29.72 350.693 27.098C350.693 22.728 355.937 22.12 359.927 22.234V26.148Z" fill="#32436E"/>
<path d="M364.946 13.76V15.28H370.874V32H372.698V15.28H378.626V13.76H364.946Z" fill="#32436E"/>
<path d="M381.631 13.76V32H383.569C385.925 28.542 388.319 24.856 390.409 21.854C391.701 19.878 392.689 18.282 394.171 15.698H394.247C394.095 18.092 394.057 19.84 394.057 22.88V32H395.843V13.76H393.867L386.837 24.21C385.317 26.528 384.633 27.744 383.341 30.024L383.265 29.986C383.417 27.288 383.417 25.654 383.417 22.766V13.76H381.631Z" fill="#32436E"/>
<path d="M401.707 32C402.619 32.076 404.367 32.19 406.077 32.19C409.573 32.19 414.969 31.506 414.969 26.984C414.969 24.21 412.879 22.728 410.257 22.386V22.31C412.461 21.816 414.133 20.296 414.133 18.092C414.133 14.178 409.611 13.57 406.571 13.57C404.861 13.57 402.999 13.722 401.707 13.95V32ZM403.417 15.318C404.253 15.242 405.013 15.128 406.381 15.128C410.333 15.128 412.271 16.078 412.271 18.32C412.271 20.904 409.079 21.74 406.495 21.74H403.417V15.318ZM403.379 23.222H406.305C409.725 23.222 413.107 23.716 413.107 26.984C413.107 30.214 408.927 30.67 406.495 30.67C405.355 30.67 404.519 30.632 403.379 30.518V23.222Z" fill="#32436E"/>
<path d="M419.52 13.76V32H421.344V23.108H431.832V32H433.656V13.76H431.832V21.588H421.344V13.76H419.52Z" fill="#32436E"/>
<path d="M439.485 13.76V32C440.549 32.038 441.993 32.19 443.665 32.19C445.907 32.19 448.681 31.734 450.467 30.024C451.417 29.074 451.987 27.82 451.987 26.186C451.987 21.778 448.149 20.182 444.273 20.182C443.095 20.182 441.955 20.296 441.347 20.41V13.76H439.485ZM441.309 21.892C442.107 21.74 443.095 21.664 444.083 21.664C447.047 21.664 450.163 22.728 450.163 26.224C450.163 29.53 446.933 30.746 443.969 30.746C442.905 30.746 442.069 30.67 441.309 30.556V21.892ZM454.457 13.76V32H456.243V13.76H454.457Z" fill="#32436E"/>
<path d="M462.158 13.76V32H464.096C466.452 28.542 468.846 24.856 470.936 21.854C472.228 19.878 473.216 18.282 474.698 15.698H474.774C474.622 18.092 474.584 19.84 474.584 22.88V32H476.37V13.76H474.394L467.364 24.21C465.844 26.528 465.16 27.744 463.868 30.024L463.792 29.986C463.944 27.288 463.944 25.654 463.944 22.766V13.76H462.158ZM464.666 6.388C464.818 8.592 465.882 10.72 469.15 10.72C471.848 10.72 473.71 9.238 473.862 6.388H472.19C472 8.022 471.126 9.39 469.188 9.39C467.364 9.428 466.49 8.022 466.338 6.388H464.666Z" fill="#32436E"/>
<path d="M490.547 13.76V32H504.303L504.417 37.7H505.937L506.089 30.48H504.303V13.76H502.479V30.48H492.371V13.76H490.547Z" fill="#32436E"/>
<path d="M524.271 22.69C524.347 22.348 524.347 22.082 524.347 21.588C524.347 18.966 523.207 13.342 517.241 13.342C512.529 13.342 509.033 17.142 509.033 23.222C509.033 28.58 512.301 32.38 517.545 32.38C520.737 32.38 522.599 31.582 523.283 31.202L522.827 29.796C521.801 30.29 520.433 30.822 517.773 30.822C514.011 30.822 510.819 28.504 510.819 22.69H524.271ZM510.933 21.246C511.275 18.434 512.985 14.862 517.013 14.862C521.421 14.862 522.485 18.7 522.447 21.246H510.933Z" fill="#32436E"/>
<path d="M528.844 13.76V32H530.668V23.108H541.156V32H542.98V13.76H541.156V21.588H530.668V13.76H528.844Z" fill="#32436E"/>
<path d="M546.263 13.76V15.28H552.191V32H554.015V15.28H559.943V13.76H546.263Z" fill="#32436E"/>
<path d="M563.061 39.524H564.885V29.036H564.961C566.215 31.24 568.533 32.418 571.155 32.418C575.563 32.418 579.439 29.074 579.439 22.576C579.439 17.218 576.285 13.342 571.611 13.342C568.419 13.342 566.177 14.824 564.847 17.218H564.771L564.657 13.76H562.909C563.023 15.508 563.061 17.294 563.061 19.574V39.524ZM564.885 21.246C564.885 20.752 565.037 20.182 565.151 19.688C565.949 16.686 568.533 14.862 571.193 14.862C575.335 14.862 577.615 18.548 577.615 22.652C577.615 27.516 575.221 30.898 571.041 30.898C568.229 30.898 565.797 29.074 565.037 26.262C564.923 25.806 564.885 25.312 564.885 24.818V21.246Z" fill="#32436E"/>
<path d="M228.926 51.76V70H230.75V53.28H241.048V70H242.872V51.76H228.926Z" fill="#32436E"/>
<path d="M255.772 70.418C259.8 70.418 264.474 67.492 264.474 60.728C264.474 55.142 261.054 51.342 256 51.342C251.478 51.342 247.374 54.8 247.374 61.032C247.374 66.732 251.022 70.418 255.734 70.418H255.772ZM255.81 68.898C252.086 68.898 249.198 65.478 249.198 60.918C249.198 57.004 251.288 52.862 255.962 52.862C260.788 52.862 262.65 57.46 262.65 60.804C262.65 65.478 259.648 68.898 255.848 68.898H255.81Z" fill="#32436E"/>
<path d="M270.791 51.76V56.662C270.791 59.588 270.449 62.286 269.613 64.794C269.157 66.048 268.549 67.264 267.751 68.48H266.307L266.459 75.7H267.979L268.093 70H281.507L281.621 75.7H283.141L283.293 68.48H281.507V51.76H270.791ZM272.463 53.28H279.683V68.48H269.765C270.335 67.416 270.905 66.314 271.361 64.908C272.083 62.552 272.463 59.816 272.463 56.814V53.28Z" fill="#32436E"/>
<path d="M287.744 51.76V70H289.568V53.28H298.042V51.76H287.744Z" fill="#32436E"/>
<path d="M307.763 70.418C311.791 70.418 316.465 67.492 316.465 60.728C316.465 55.142 313.045 51.342 307.991 51.342C303.469 51.342 299.365 54.8 299.365 61.032C299.365 66.732 303.013 70.418 307.725 70.418H307.763ZM307.801 68.898C304.077 68.898 301.189 65.478 301.189 60.918C301.189 57.004 303.279 52.862 307.953 52.862C312.779 52.862 314.641 57.46 314.641 60.804C314.641 65.478 311.639 68.898 307.839 68.898H307.801Z" fill="#32436E"/>
<path d="M318.411 51.76V53.28H324.339V70H326.163V53.28H332.091V51.76H318.411Z" fill="#32436E"/>
<path d="M341.532 70.418C345.56 70.418 350.234 67.492 350.234 60.728C350.234 55.142 346.814 51.342 341.76 51.342C337.238 51.342 333.134 54.8 333.134 61.032C333.134 66.732 336.782 70.418 341.494 70.418H341.532ZM341.57 68.898C337.846 68.898 334.958 65.478 334.958 60.918C334.958 57.004 337.048 52.862 341.722 52.862C346.548 52.862 348.41 57.46 348.41 60.804C348.41 65.478 345.408 68.898 341.608 68.898H341.57Z" fill="#32436E"/>
<path d="M354.727 70C355.639 70.076 357.387 70.19 359.097 70.19C362.593 70.19 367.989 69.506 367.989 64.984C367.989 62.21 365.899 60.728 363.277 60.386V60.31C365.481 59.816 367.153 58.296 367.153 56.092C367.153 52.178 362.631 51.57 359.591 51.57C357.881 51.57 356.019 51.722 354.727 51.95V70ZM356.437 53.318C357.273 53.242 358.033 53.128 359.401 53.128C363.353 53.128 365.291 54.078 365.291 56.32C365.291 58.904 362.099 59.74 359.515 59.74H356.437V53.318ZM356.399 61.222H359.325C362.745 61.222 366.127 61.716 366.127 64.984C366.127 68.214 361.947 68.67 359.515 68.67C358.375 68.67 357.539 68.632 356.399 68.518V61.222Z" fill="#32436E"/>
<path d="M372.691 51.76V70H374.515V61.45H375.199C379.075 61.45 381.089 62.932 382.609 66.466C383.141 67.682 383.863 69.202 384.357 70H386.257C385.497 68.67 384.889 67.112 384.471 66.124C382.837 62.4 380.785 60.538 377.327 60.234L386.067 51.76H383.673L375.389 60.082H374.515V51.76H372.691Z" fill="#32436E"/>
<path d="M389.572 51.76V70H391.51C393.866 66.542 396.26 62.856 398.35 59.854C399.642 57.878 400.63 56.282 402.112 53.698H402.188C402.036 56.092 401.998 57.84 401.998 60.88V70H403.784V51.76H401.808L394.778 62.21C393.258 64.528 392.574 65.744 391.282 68.024L391.206 67.986C391.358 65.288 391.358 63.654 391.358 60.766V51.76H389.572Z" fill="#32436E"/>
<path d="M418.113 51.76V70H419.937V61.45H420.621C424.497 61.45 426.511 62.932 428.031 66.466C428.563 67.682 429.285 69.202 429.779 70H431.679C430.919 68.67 430.311 67.112 429.893 66.124C428.259 62.4 426.207 60.538 422.749 60.234L431.489 51.76H429.095L420.811 60.082H419.937V51.76H418.113Z" fill="#32436E"/>
<path d="M446.879 58.524C446.879 55.294 445.853 51.342 440.571 51.342C438.937 51.342 436.885 51.798 435.213 52.9L435.783 54.23C437.113 53.28 438.785 52.862 440.381 52.862C444.713 52.824 445.055 56.434 445.055 58.22V58.714C437.607 58.638 433.921 61.184 433.921 65.402C433.921 67.834 435.593 70.418 439.279 70.418C442.205 70.418 444.219 68.784 445.131 67.378H445.207L445.473 70H447.145C446.917 68.594 446.879 67.112 446.879 65.668V58.524ZM445.055 64.148C445.055 64.452 445.017 64.87 444.865 65.25C444.257 67.036 442.509 68.898 439.469 68.898C437.569 68.898 435.821 67.72 435.821 65.098C435.821 60.728 441.065 60.12 445.055 60.234V64.148Z" fill="#32436E"/>
<path d="M454.445 51.76V56.662C454.445 59.588 454.103 62.286 453.267 64.794C452.811 66.048 452.203 67.264 451.405 68.48H449.961L450.113 75.7H451.633L451.747 70H465.161L465.275 75.7H466.795L466.947 68.48H465.161V51.76H454.445ZM456.117 53.28H463.337V68.48H453.419C453.989 67.416 454.559 66.314 455.015 64.908C455.737 62.552 456.117 59.816 456.117 56.814V53.28Z" fill="#32436E"/>
<path d="M471.513 77.524H473.337V67.036H473.413C474.667 69.24 476.985 70.418 479.607 70.418C484.015 70.418 487.891 67.074 487.891 60.576C487.891 55.218 484.737 51.342 480.063 51.342C476.871 51.342 474.629 52.824 473.299 55.218H473.223L473.109 51.76H471.361C471.475 53.508 471.513 55.294 471.513 57.574V77.524ZM473.337 59.246C473.337 58.752 473.489 58.182 473.603 57.688C474.401 54.686 476.985 52.862 479.645 52.862C483.787 52.862 486.067 56.548 486.067 60.652C486.067 65.516 483.673 68.898 479.493 68.898C476.681 68.898 474.249 67.074 473.489 64.262C473.375 63.806 473.337 63.312 473.337 62.818V59.246Z" fill="#32436E"/>
<path d="M499.395 70.418C503.423 70.418 508.097 67.492 508.097 60.728C508.097 55.142 504.677 51.342 499.623 51.342C495.101 51.342 490.997 54.8 490.997 61.032C490.997 66.732 494.645 70.418 499.357 70.418H499.395ZM499.433 68.898C495.709 68.898 492.821 65.478 492.821 60.918C492.821 57.004 494.911 52.862 499.585 52.862C504.411 52.862 506.273 57.46 506.273 60.804C506.273 65.478 503.271 68.898 499.471 68.898H499.433Z" fill="#32436E"/>
<path d="M512.59 70C513.502 70.076 515.25 70.19 516.96 70.19C520.456 70.19 525.852 69.506 525.852 64.984C525.852 62.21 523.762 60.728 521.14 60.386V60.31C523.344 59.816 525.016 58.296 525.016 56.092C525.016 52.178 520.494 51.57 517.454 51.57C515.744 51.57 513.882 51.722 512.59 51.95V70ZM514.3 53.318C515.136 53.242 515.896 53.128 517.264 53.128C521.216 53.128 523.154 54.078 523.154 56.32C523.154 58.904 519.962 59.74 517.378 59.74H514.3V53.318ZM514.262 61.222H517.188C520.608 61.222 523.99 61.716 523.99 64.984C523.99 68.214 519.81 68.67 517.378 68.67C516.238 68.67 515.402 68.632 514.262 68.518V61.222Z" fill="#32436E"/>
<path d="M482.41 177H483.491L482.456 161.498H481.145L477.672 170.445C476.89 172.538 476.338 174.033 475.947 175.459H475.878C475.441 173.964 474.912 172.4 474.176 170.445L470.841 161.498H469.576L468.449 177H469.53L470.013 169.87C470.197 167.294 470.312 164.603 470.358 162.786H470.404C470.864 164.488 471.531 166.351 472.405 168.766L475.464 177H476.223L479.489 168.582C480.386 166.259 481.007 164.465 481.582 162.786H481.628C481.628 164.488 481.812 167.34 481.95 169.663L482.41 177Z" fill="#32436E"/>
<path d="M493.754 170.054C493.754 168.099 493.133 165.707 489.936 165.707C488.947 165.707 487.705 165.983 486.693 166.65L487.038 167.455C487.843 166.88 488.855 166.627 489.821 166.627C492.443 166.604 492.65 168.789 492.65 169.87V170.169C488.142 170.123 485.911 171.664 485.911 174.217C485.911 175.689 486.923 177.253 489.154 177.253C490.925 177.253 492.144 176.264 492.696 175.413H492.742L492.903 177H493.915C493.777 176.149 493.754 175.252 493.754 174.378V170.054ZM492.65 173.458C492.65 173.642 492.627 173.895 492.535 174.125C492.167 175.206 491.109 176.333 489.269 176.333C488.119 176.333 487.061 175.62 487.061 174.033C487.061 171.388 490.235 171.02 492.65 171.089V173.458Z" fill="#32436E"/>
<path d="M497.229 165.96V177H498.333V166.88H503.462V165.96H497.229Z" fill="#32436E"/>
<path d="M505.45 165.96V177H506.554V171.618H512.902V177H514.006V165.96H512.902V170.698H506.554V165.96H505.45Z" fill="#32436E"/>
<path d="M517.534 165.96V177H518.707C520.133 174.907 521.582 172.676 522.847 170.859C523.629 169.663 524.227 168.697 525.124 167.133H525.17C525.078 168.582 525.055 169.64 525.055 171.48V177H526.136V165.96H524.94L520.685 172.285C519.765 173.688 519.351 174.424 518.569 175.804L518.523 175.781C518.615 174.148 518.615 173.159 518.615 171.411V165.96H517.534Z" fill="#32436E"/>
<path d="M528.144 165.96V166.88H531.732V177H532.836V166.88H536.424V165.96H528.144Z" fill="#32436E"/>
<path d="M542.138 177.253C544.576 177.253 547.405 175.482 547.405 171.388C547.405 168.007 545.335 165.707 542.276 165.707C539.539 165.707 537.055 167.8 537.055 171.572C537.055 175.022 539.263 177.253 542.115 177.253H542.138ZM542.161 176.333C539.907 176.333 538.159 174.263 538.159 171.503C538.159 169.134 539.424 166.627 542.253 166.627C545.174 166.627 546.301 169.41 546.301 171.434C546.301 174.263 544.484 176.333 542.184 176.333H542.161Z" fill="#32436E"/>
<path d="M550.125 165.96V177H551.229V166.88H556.358V165.96H550.125Z" fill="#32436E"/>
<path d="M562.241 177.253C564.679 177.253 567.508 175.482 567.508 171.388C567.508 168.007 565.438 165.707 562.379 165.707C559.642 165.707 557.158 167.8 557.158 171.572C557.158 175.022 559.366 177.253 562.218 177.253H562.241ZM562.264 176.333C560.01 176.333 558.262 174.263 558.262 171.503C558.262 169.134 559.527 166.627 562.356 166.627C565.277 166.627 566.404 169.41 566.404 171.434C566.404 174.263 564.587 176.333 562.287 176.333H562.264Z" fill="#32436E"/>
<path d="M570.296 181.554H571.4V175.206H571.446C572.205 176.54 573.608 177.253 575.195 177.253C577.863 177.253 580.209 175.229 580.209 171.296C580.209 168.053 578.3 165.707 575.471 165.707C573.539 165.707 572.182 166.604 571.377 168.053H571.331L571.262 165.96H570.204C570.273 167.018 570.296 168.099 570.296 169.479V181.554ZM571.4 170.491C571.4 170.192 571.492 169.847 571.561 169.548C572.044 167.731 573.608 166.627 575.218 166.627C577.725 166.627 579.105 168.858 579.105 171.342C579.105 174.286 577.656 176.333 575.126 176.333C573.424 176.333 571.952 175.229 571.492 173.527C571.423 173.251 571.4 172.952 571.4 172.653V170.491Z" fill="#32436E"/>
<path d="M590.323 175.643C589.725 175.919 588.874 176.287 587.563 176.287C585.01 176.287 583.193 174.401 583.193 171.503C583.193 168.904 584.711 166.65 587.678 166.65C588.897 166.65 589.748 166.972 590.277 167.294L590.668 166.397C590.254 166.098 589.127 165.707 587.77 165.707C584.481 165.707 582.089 168.076 582.089 171.595C582.089 174.907 584.205 177.23 587.379 177.23C588.989 177.23 590.139 176.747 590.622 176.517L590.323 175.643Z" fill="#32436E"/>
<path d="M593.274 165.96V177H594.378V171.825H594.792C597.138 171.825 598.357 172.722 599.277 174.861C599.599 175.597 600.036 176.517 600.335 177H601.485C601.025 176.195 600.657 175.252 600.404 174.654C599.415 172.4 598.173 171.273 596.08 171.089L601.37 165.96H599.921L594.907 170.997H594.378V165.96H593.274Z" fill="#32436E"/>
</svg>
